<svg xmlns="http://www.w3.org/2000/svg" viewBox="0 0 619.42 619.42"><defs><style>.cls-1{opacity:1;}.cls-2{fill:#d7e5ff;}.cls-3{fill:#aec3ff;}</style></defs><g id="Layer_2" data-name="Layer 2"><g id="_лой_1" data-name="‘лой_1"><g class="cls-1"><path class="cls-2" d="M619.42,309.72a312,312,0,0,1-5,55.79,308.11,308.11,0,0,1-48.88,118.81C509.77,565.89,416,619.42,309.72,619.42c-126.42,0-235.15-75.73-283.27-184.32a304.67,304.67,0,0,1-15.78-44.54A312,312,0,0,1,7,243.81c0-.24.11-.47.15-.72A310.52,310.52,0,0,1,128.07,58.84q9.56-6.92,19.65-13.13A308.13,308.13,0,0,1,309.72,0q11.82,0,23.4.88A307.45,307.45,0,0,1,486.52,55.4h0a310.76,310.76,0,0,1,85,88.71q7.13,11.23,13.29,23.09a308.14,308.14,0,0,1,34.65,142.52Z"/><path class="cls-3" d="M204.5,171.08c-12.36,19.57,5.16,53.56-31.92,44.29s-59.74-13.39-61.8,7.2,27.81,20.61,27.81,42.24-13.39,28.78-34,18.51S78.08,258.1,54.13,267.37s-37.85,3.09-43.25-15.44A27.23,27.23,0,0,0,7,243.81c0-.24.11-.47.15-.72A310.52,310.52,0,0,1,128.07,58.84q9.56-6.92,19.65-13.13c9.66.36,21.2,4,31,16.19,21.63,26.79,36,13.4,30.9,44.3s3.09,35,20.59,34,38.11-1,40.17,12.36S216.86,151.51,204.5,171.08Z"/><path class="cls-3" d="M332.72,356.47s-27.29,8.75-34.5-10.3,1-23.18-23.17-28.84-26.26-22.15-41.71-20.08-7.73,8.23-25.75,21.62-34.5,7.21-34,31.93,27.29,28.58,32.7,44.8-3.86,23.18,7.73,35.54,33.21,6.95,23.17,23.94-25.49,30.13-17.77,56.39,2.32,27.81,15.45,46.35,38.62,24.71,42.49,12.36-17.77-28.58-10.82-40.94,18.54-3.87,23.18-22.41,23.43-18.53,25-31.41S292,443,301.31,434.74s27.81,14.93,42.23-5.66,4.63-37.08,19.57-56.65S343,345.14,332.72,356.47Z"/><path class="cls-3" d="M619.42,309.72a312,312,0,0,1-5,55.79,308.11,308.11,0,0,1-48.88,118.81,35.36,35.36,0,0,1-24.77-.66c-38.62-15.45-10-57.16,5.41-78s-23.95-11.59-52.53-30.9,3.09-71.06-26.26-62.56-64.89,19.31-81.88-9.27,15.45-33.22.77-57.16,8.5-37.85,37.85-40.17,25.49-23.18,61.8-26.26,35.53,43.25,75.7,40.16S600,225.66,600,225.66a18.76,18.76,0,0,1,8.39,1.76A310.25,310.25,0,0,1,619.42,309.72Z"/><path class="cls-3" d="M584.77,167.2c-33.4,16.26-46.81-27.94-75.36-14.66-28.78,13.4-23.74-12.36-46.39-28.84s-68,13.39-65.92-12.36,36-18.54,43.25-39.13,40.17-15.45,40.17-15.45a22.53,22.53,0,0,1,6-1.36s0,0,0,0a310.76,310.76,0,0,1,85,88.71Q578.61,155.34,584.77,167.2Z"/><path class="cls-3" d="M303.37,78.39s17.51-25.27-10.3-32.72-27.29,2.3-48.92,0S214,60.1,230.25,78.39s29.35,53.36,44,34.66S286.12,80.19,303.37,78.39Z"/></g></g></g></svg>