<?xml version="1.0" encoding="utf-8"?>
<!-- Generator: Adobe Illustrator 24.2.3, SVG Export Plug-In . SVG Version: 6.00 Build 0)  -->
<svg version="1.1" id="Layer_1" xmlns="http://www.w3.org/2000/svg" xmlns:xlink="http://www.w3.org/1999/xlink" x="0px" y="0px"
	 viewBox="0 0 291.8 327.5" style="enable-background:new 0 0 291.8 327.5;" xml:space="preserve">
<style type="text/css">
	.st0{fill:#140D33;}
	.st1{fill:#CCCCCC;}
	.st2{fill:#355389;}
	.st3{fill:#FFA73E;}
	.st4{fill:#B5282E;}
	.st5{fill:#E04B14;}
	.st6{fill:#E1DD79;}
	.st7{fill:#F6A527;}
	.st8{fill:#F47458;stroke:#040440;stroke-width:2.2;stroke-miterlimit:10;}
</style>
<g id="Layer_2_1_">
	<g id="Layer_4">
		<polygon class="st0" points="291.8,178.3 291.8,149.1 285.3,149.1 285.3,171.8 278.8,171.8 278.8,165.4 272.4,165.4 272.4,158.9 
			265.9,158.9 265.9,152.4 259.4,152.4 259.4,145.9 252.9,145.9 252.9,139.4 246.4,139.4 246.4,132.9 239.9,132.9 239.9,126.4 
			233.4,126.4 233.4,120 227,120 227,113.5 220.5,113.5 214,113.5 207.5,113.5 201,113.5 201,107 194.5,107 194.5,100.5 
			188.1,100.5 188.1,94 181.6,94 181.6,87.5 175.1,87.5 175.1,81.1 168.6,81.1 168.6,74.6 162.1,74.6 162.1,68.1 155.6,68.1 
			155.6,61.6 149.1,61.6 149.1,55.1 142.7,55.1 142.7,61.6 136.2,61.6 136.2,68.1 129.7,68.1 129.7,74.6 123.2,74.6 123.2,81.1 
			116.7,81.1 116.7,87.5 110.2,87.5 110.2,94 103.8,94 103.8,100.5 97.3,100.5 97.3,107 90.8,107 90.8,113.5 84.3,113.5 77.8,113.5 
			71.3,113.5 64.8,113.5 64.8,120 58.4,120 58.4,126.4 51.9,126.4 51.9,132.9 45.4,132.9 45.4,139.4 38.9,139.4 38.9,145.9 
			32.4,145.9 32.4,152.4 25.9,152.4 25.9,158.9 19.5,158.9 19.5,165.4 25.9,165.4 25.9,169.6 25.9,171.8 32.4,171.8 32.4,165.4 
			38.9,165.4 38.9,159.1 39.2,158.9 45.4,158.9 45.4,156.5 246.4,155.7 246.4,158.9 252.9,158.9 252.9,165.4 259.4,165.4 
			259.4,171.8 265.9,171.8 265.9,178.3 272.4,178.3 272.4,184.8 265.9,184.8 265.9,191.3 259.4,191.3 259.4,197.8 252.9,197.8 
			252.9,204.3 246.4,204.3 246.4,210.8 239.9,210.8 239.9,217.2 233.4,217.2 233.4,223.7 227,223.7 227,230.2 220.5,230.2 
			220.5,236.7 214,236.7 214,243.2 207.5,243.2 207.5,249.7 201,249.7 201,256.1 194.5,256.1 194.5,262.6 188.1,262.6 188.1,269.1 
			181.6,269.1 181.6,275.6 175.1,275.6 175.1,282.1 168.6,282.1 168.6,288.6 162.1,288.6 162.1,295 155.6,295 155.6,301.5 
			149.1,301.5 149.1,308 142.7,308 142.7,301.5 136.2,301.5 136.2,295 129.7,295 129.7,288.6 123.2,288.6 123.2,282.1 116.7,282.1 
			116.7,275.6 110.2,275.6 110.2,269.1 103.8,269.1 103.8,262.6 97.3,262.6 97.3,256.1 90.8,256.1 90.8,249.7 84.3,249.7 
			84.3,243.2 77.8,243.2 77.8,236.7 71.3,236.7 71.3,230.2 64.8,230.2 64.8,223.7 58.4,223.7 58.4,217.2 51.9,217.2 51.9,210.8 
			45.4,210.8 45.4,204.3 38.9,204.3 38.9,197.8 32.4,197.8 32.4,191.3 25.9,191.3 25.9,184.8 19.5,184.8 19.5,178.3 15.2,178.3 
			13,178.3 13,171.8 6.5,171.8 6.5,178.3 6.5,178.3 6.5,172.6 6.5,172.1 6.5,166.1 6.5,159.6 6.5,149.1 0,149.1 0,159.6 0,166.1 
			0,172.1 0,172.6 0,178.3 0,178.3 0,184.8 6.5,184.8 6.5,191.3 13,191.3 13,197.8 19.5,197.8 19.5,204.3 25.9,204.3 25.9,210.8 
			32.4,210.8 32.4,217.2 38.9,217.2 38.9,223.7 45.4,223.7 45.4,230.2 51.9,230.2 51.9,236.7 58.4,236.7 58.4,243.2 64.8,243.2 
			64.8,249.7 71.3,249.7 71.3,256.1 77.8,256.1 77.8,262.6 84.3,262.6 84.3,269.1 90.8,269.1 90.8,275.6 97.3,275.6 97.3,282.1 
			103.8,282.1 103.8,288.6 110.2,288.6 110.2,295 116.7,295 116.7,301.5 123.2,301.5 123.2,308 129.7,308 129.7,314.5 136.2,314.5 
			136.2,321 142.7,321 142.7,327.5 149.1,327.5 149.1,321 155.6,321 155.6,314.5 162.1,314.5 162.1,308 168.6,308 168.6,301.5 
			175.1,301.5 175.1,295 181.6,295 181.6,288.6 188.1,288.6 188.1,282.1 194.5,282.1 194.5,275.6 201,275.6 201,269.1 207.5,269.1 
			207.5,262.6 214,262.6 214,256.1 220.5,256.1 220.5,249.7 227,249.7 227,243.2 233.4,243.2 233.4,236.7 239.9,236.7 239.9,230.2 
			246.4,230.2 246.4,223.7 252.9,223.7 252.9,217.2 259.4,217.2 259.4,210.8 265.9,210.8 265.9,204.3 272.4,204.3 272.4,197.8 
			278.8,197.8 278.8,191.3 285.3,191.3 285.3,184.8 291.8,184.8 291.8,178.3 285.3,178.3 285.3,178.3 		"/>
		<polyline class="st1" points="6.5,155.6 13,155.6 13,162.1 19.5,162.1 19.5,168.6 25.9,168.6 25.9,171.8 32.4,171.8 32.4,165.4 
			38.9,165.4 38.9,159.1 39.2,158.9 45.4,158.9 45.4,156.5 246.4,155.7 246.4,158.9 252.9,158.9 252.9,165.4 259.4,165.4 
			259.4,171.8 265.9,171.8 265.9,178.3 265.9,178.3 265.9,175.1 265.9,175.1 265.9,168.6 272.4,168.6 272.4,168.6 272.4,168.6 
			272.4,162.1 278.8,162.1 278.8,168.6 278.8,168.6 278.8,175.1 272.4,175.1 272.4,175.1 272.4,178.3 272.4,181.6 272.4,181.6 
			272.4,184.8 272.4,188.1 265.9,188.1 265.9,184.8 265.9,184.8 265.9,191.3 259.4,191.3 259.4,197.8 252.9,197.8 252.9,204.3 
			246.4,204.3 246.4,210.8 239.9,210.8 239.9,217.2 233.4,217.2 233.4,223.7 227,223.7 227,230.2 220.5,230.2 220.5,236.7 
			214,236.7 214,243.2 207.5,243.2 207.5,249.7 201,249.7 201,256.1 194.5,256.1 194.5,262.6 188.1,262.6 188.1,269.1 181.6,269.1 
			181.6,275.6 175.1,275.6 175.1,282.1 168.6,282.1 168.6,288.6 162.1,288.6 162.1,295 155.6,295 155.6,301.5 149.1,301.5 
			149.1,308 142.7,308 142.7,301.5 136.2,301.5 136.2,295 129.7,295 129.7,288.6 123.2,288.6 123.2,282.1 116.7,282.1 116.7,275.6 
			110.2,275.6 110.2,269.1 103.8,269.1 103.8,262.6 97.3,262.6 97.3,256.1 90.8,256.1 90.8,249.7 84.3,249.7 84.3,243.2 77.8,243.2 
			77.8,236.7 71.3,236.7 71.3,230.2 64.8,230.2 64.8,223.7 58.4,223.7 58.4,217.2 51.9,217.2 51.9,210.8 45.4,210.8 45.4,204.3 
			38.9,204.3 38.9,197.8 32.4,197.8 32.4,191.3 25.9,191.3 25.9,184.8 19.5,184.8 19.5,178.3 13,178.3 13,172.4 6.5,172.4 
			6.5,172.4 6.5,155.6 		"/>
		<polygon class="st1" points="278.8,155.6 278.8,162.1 278.8,162.1 278.8,167.5 278.8,168.6 278.8,174 285.3,174 285.3,168.6 
			285.3,167.5 285.3,162.1 285.3,162.1 285.3,155.6 		"/>
		<rect x="272.4" y="175.1" class="st1" width="6.5" height="6.5"/>
		<path class="st0" d="M285.3,142.7v-6.5h-6.5v-6.5h-6.5v-6.5h-6.5v-6.5h-6.5v-6.5h-6.5v-6.5h-6.5v-6.5h-6.5v-6.5h-6.5v-6.5H227
			v-6.5h-6.5v-6.5H214v-6.5h-6.5v-6.5H201v-6.5h-6.5v-6.5H188v-6.5h-6.5v-6.5h-6.5v-6.5h-6.5v-6.5h-6.5V13h-6.5V6.5h-6.5V0h-6.5v6.5
			h-6.5V13h-6.5v6.5h-6.5V26h-6.5v6.5h-6.5v6.5h-6.5v6.5h-6.5v6.5h-6.5v6.5h-6.5v6.5h-6.5v6.5h-6.5v6.5h-6.5v6.5h-6.5v6.5h-6.5v6.5
			h-6.5v6.5h-6.5v6.5h-6.5v6.5h-6.5v6.5h-6.5v6.5H13v6.5H6.5v6.5H0v6.5h6.5v6.5H13v6.5h6.5v6.5H26v6.5h6.5v6.5h6.5v6.5h6.5v6.5h6.5
			v6.5h6.5v6.5h6.5v6.5h6.5v6.5h6.5v6.5h6.4v6.5h6.5v6.5h6.5v6.5h6.5v6.5h6.5v6.5h6.5v6.5h6.5v6.5h6.5v6.5h6.5v6.5h6.5v6.5h6.5v-6.5
			h6.5v-6.5h6.5v-6.5h6.5v-6.5h6.5v-6.5h6.5v-6.5h6.5v-6.5h6.5v-6.5h6.5v-6.5h6.5V227h6.5v-6.5h6.5V214h6.5v-6.5h6.5V201h6.5v-6.5
			h6.5V188h6.5v-6.5h6.5v-6.5h6.5v-6.5h6.5v-6.5h6.5v-6.5h6.5v-6.5h6.5v-6.5H285.3z M97.2,64.9L97.2,64.9z M84.3,77.8L84.3,77.8z
			 M58.4,103.8L58.4,103.8z M19.4,142.7L19.4,142.7z"/>
		<rect x="273" y="141.4" class="st2" width="5.8" height="5.8"/>
		<rect x="267.2" y="147.2" class="st2" width="5.8" height="5.8"/>
		<rect x="267.2" y="141.4" class="st2" width="5.8" height="5.8"/>
		<rect x="267.2" y="135.5" class="st2" width="5.8" height="5.8"/>
		<rect x="261.3" y="153" class="st2" width="5.8" height="5.8"/>
		<rect x="261.3" y="147.2" class="st2" width="5.8" height="5.8"/>
		<rect x="261.3" y="141.4" class="st2" width="5.8" height="5.8"/>
		<rect x="261.3" y="135.5" class="st2" width="5.8" height="5.8"/>
		<rect x="261.3" y="129.7" class="st2" width="5.8" height="5.8"/>
		<rect x="255.5" y="158.9" class="st2" width="5.8" height="5.8"/>
		<rect x="255.5" y="153" class="st2" width="5.8" height="5.8"/>
		<rect x="255.5" y="147.2" class="st2" width="5.8" height="5.8"/>
		<rect x="255.5" y="135.5" class="st2" width="5.8" height="5.8"/>
		<rect x="255.5" y="129.7" class="st2" width="5.8" height="5.8"/>
		<rect x="255.5" y="123.8" class="st2" width="5.8" height="5.8"/>
		<rect x="249.7" y="164.7" class="st2" width="5.8" height="5.8"/>
		<rect x="249.7" y="158.9" class="st2" width="5.8" height="5.8"/>
		<rect x="249.7" y="153" class="st2" width="5.8" height="5.8"/>
		<rect x="249.7" y="129.7" class="st2" width="5.8" height="5.8"/>
		<rect x="249.7" y="123.8" class="st2" width="5.8" height="5.8"/>
		<rect x="249.7" y="118" class="st2" width="5.8" height="5.8"/>
		<rect x="243.8" y="170.6" class="st2" width="5.8" height="5.8"/>
		<rect x="243.8" y="164.7" class="st2" width="5.8" height="5.8"/>
		<rect x="243.8" y="158.9" class="st2" width="5.8" height="5.8"/>
		<rect x="243.8" y="123.8" class="st2" width="5.8" height="5.8"/>
		<rect x="243.8" y="118" class="st2" width="5.8" height="5.8"/>
		<rect x="243.8" y="112.2" class="st2" width="5.8" height="5.8"/>
		<rect x="238" y="176.4" class="st2" width="5.8" height="5.8"/>
		<rect x="238" y="170.6" class="st2" width="5.8" height="5.8"/>
		<rect x="238" y="164.7" class="st2" width="5.8" height="5.8"/>
		<rect x="238" y="118" class="st2" width="5.8" height="5.8"/>
		<rect x="238" y="112.2" class="st2" width="5.8" height="5.8"/>
		<rect x="238" y="106.3" class="st2" width="5.8" height="5.8"/>
		<rect x="232.1" y="182.2" class="st2" width="5.8" height="5.8"/>
		<rect x="232.1" y="176.4" class="st2" width="5.8" height="5.8"/>
		<rect x="232.1" y="170.6" class="st2" width="5.8" height="5.8"/>
		<rect x="232.1" y="112.2" class="st2" width="5.8" height="5.8"/>
		<rect x="232.1" y="106.3" class="st2" width="5.8" height="5.8"/>
		<rect x="232.1" y="100.5" class="st2" width="5.8" height="5.8"/>
		<rect x="226.3" y="188.1" class="st2" width="5.8" height="5.8"/>
		<rect x="226.3" y="182.2" class="st2" width="5.8" height="5.8"/>
		<rect x="226.3" y="176.4" class="st2" width="5.8" height="5.8"/>
		<rect x="226.3" y="106.3" class="st2" width="5.8" height="5.8"/>
		<rect x="226.3" y="100.5" class="st2" width="5.8" height="5.8"/>
		<rect x="226.3" y="94.7" class="st2" width="5.8" height="5.8"/>
		<rect x="220.5" y="193.9" class="st2" width="5.8" height="5.8"/>
		<rect x="220.5" y="188.1" class="st2" width="5.8" height="5.8"/>
		<rect x="220.5" y="182.2" class="st2" width="5.8" height="5.8"/>
		<rect x="220.5" y="100.5" class="st2" width="5.8" height="5.8"/>
		<rect x="220.5" y="94.7" class="st2" width="5.8" height="5.8"/>
		<rect x="220.5" y="88.8" class="st2" width="5.8" height="5.8"/>
		<rect x="214.6" y="199.7" class="st2" width="5.8" height="5.8"/>
		<rect x="214.6" y="193.9" class="st2" width="5.8" height="5.8"/>
		<rect x="214.6" y="188.1" class="st2" width="5.8" height="5.8"/>
		<rect x="214.6" y="94.7" class="st2" width="5.8" height="5.8"/>
		<rect x="214.6" y="88.8" class="st2" width="5.8" height="5.8"/>
		<rect x="214.6" y="83" class="st2" width="5.8" height="5.8"/>
		<rect x="208.8" y="205.6" class="st2" width="5.8" height="5.8"/>
		<rect x="208.8" y="199.7" class="st2" width="5.8" height="5.8"/>
		<rect x="208.8" y="193.9" class="st2" width="5.8" height="5.8"/>
		<rect x="208.8" y="88.8" class="st2" width="5.8" height="5.8"/>
		<rect x="208.8" y="83" class="st2" width="5.8" height="5.8"/>
		<rect x="208.8" y="77.2" class="st2" width="5.8" height="5.8"/>
		<rect x="203" y="211.4" class="st2" width="5.8" height="5.8"/>
		<rect x="203" y="205.6" class="st2" width="5.8" height="5.8"/>
		<rect x="203" y="199.7" class="st2" width="5.8" height="5.8"/>
		<rect x="203" y="83" class="st2" width="5.8" height="5.8"/>
		<rect x="203" y="77.2" class="st2" width="5.8" height="5.8"/>
		<rect x="203" y="71.3" class="st2" width="5.8" height="5.8"/>
		<rect x="197.1" y="217.2" class="st2" width="5.8" height="5.8"/>
		<rect x="197.1" y="211.4" class="st2" width="5.8" height="5.8"/>
		<rect x="197.1" y="205.6" class="st2" width="5.8" height="5.8"/>
		<rect x="197.1" y="77.2" class="st2" width="5.8" height="5.8"/>
		<rect x="197.1" y="71.3" class="st2" width="5.8" height="5.8"/>
		<rect x="197.1" y="65.5" class="st2" width="5.8" height="5.8"/>
		<rect x="191.3" y="223.1" class="st2" width="5.8" height="5.8"/>
		<rect x="191.3" y="217.2" class="st2" width="5.8" height="5.8"/>
		<rect x="191.3" y="211.4" class="st2" width="5.8" height="5.8"/>
		<rect x="191.3" y="71.3" class="st2" width="5.8" height="5.8"/>
		<rect x="191.3" y="65.5" class="st2" width="5.8" height="5.8"/>
		<rect x="191.3" y="59.7" class="st2" width="5.8" height="5.8"/>
		<rect x="185.5" y="228.9" class="st2" width="5.8" height="5.8"/>
		<rect x="185.5" y="223.1" class="st2" width="5.8" height="5.8"/>
		<rect x="185.5" y="217.2" class="st2" width="5.8" height="5.8"/>
		<rect x="185.5" y="65.5" class="st2" width="5.8" height="5.8"/>
		<rect x="185.5" y="59.7" class="st2" width="5.8" height="5.8"/>
		<rect x="185.5" y="53.8" class="st2" width="5.8" height="5.8"/>
		<rect x="179.6" y="234.7" class="st2" width="5.8" height="5.8"/>
		<rect x="179.6" y="228.9" class="st2" width="5.8" height="5.8"/>
		<rect x="179.6" y="223.1" class="st2" width="5.8" height="5.8"/>
		<rect x="179.6" y="59.7" class="st2" width="5.8" height="5.8"/>
		<rect x="179.6" y="53.8" class="st2" width="5.8" height="5.8"/>
		<rect x="179.6" y="48" class="st2" width="5.8" height="5.8"/>
		<rect x="173.8" y="240.6" class="st2" width="5.8" height="5.8"/>
		<rect x="173.8" y="234.7" class="st2" width="5.8" height="5.8"/>
		<rect x="173.8" y="228.9" class="st2" width="5.8" height="5.8"/>
		<rect x="173.8" y="53.8" class="st2" width="5.8" height="5.8"/>
		<rect x="173.8" y="48" class="st2" width="5.8" height="5.8"/>
		<rect x="173.8" y="42.2" class="st2" width="5.8" height="5.8"/>
		<rect x="168" y="246.4" class="st2" width="5.8" height="5.8"/>
		<rect x="168" y="240.6" class="st2" width="5.8" height="5.8"/>
		<rect x="168" y="234.7" class="st2" width="5.8" height="5.8"/>
		<rect x="168" y="48" class="st2" width="5.8" height="5.8"/>
		<rect x="168" y="42.2" class="st2" width="5.8" height="5.8"/>
		<rect x="168" y="36.3" class="st2" width="5.8" height="5.8"/>
		<rect x="162.1" y="252.3" class="st2" width="5.8" height="5.8"/>
		<rect x="162.1" y="246.4" class="st2" width="5.8" height="5.8"/>
		<rect x="162.1" y="240.6" class="st2" width="5.8" height="5.8"/>
		<rect x="162.1" y="42.2" class="st2" width="5.8" height="5.8"/>
		<rect x="162.1" y="36.3" class="st2" width="5.8" height="5.8"/>
		<rect x="162.1" y="30.5" class="st2" width="5.8" height="5.8"/>
		<rect x="156.3" y="258.1" class="st2" width="5.8" height="5.8"/>
		<rect x="156.3" y="252.3" class="st2" width="5.8" height="5.8"/>
		<rect x="156.3" y="246.4" class="st2" width="5.8" height="5.8"/>
		<rect x="156.3" y="36.3" class="st2" width="5.8" height="5.8"/>
		<rect x="156.3" y="30.5" class="st2" width="5.8" height="5.8"/>
		<rect x="156.3" y="24.6" class="st2" width="5.8" height="5.8"/>
		<rect x="150.4" y="263.9" class="st2" width="5.8" height="5.8"/>
		<rect x="150.4" y="258.1" class="st2" width="5.8" height="5.8"/>
		<rect x="150.4" y="252.3" class="st2" width="5.8" height="5.8"/>
		<rect x="150.4" y="30.5" class="st2" width="5.8" height="5.8"/>
		<rect x="150.4" y="24.6" class="st2" width="5.8" height="5.8"/>
		<rect x="150.4" y="18.8" class="st2" width="5.8" height="5.8"/>
		<rect x="144.6" y="269.8" class="st2" width="5.8" height="5.8"/>
		<rect x="144.6" y="263.9" class="st2" width="5.8" height="5.8"/>
		<rect x="144.6" y="258.1" class="st2" width="5.8" height="5.8"/>
		<rect x="144.6" y="24.6" class="st2" width="5.8" height="5.8"/>
		<rect x="144.6" y="18.8" class="st2" width="5.8" height="5.8"/>
		<rect x="144.6" y="13" class="st2" width="5.8" height="5.8"/>
		<rect x="138.8" y="263.9" class="st2" width="5.8" height="5.8"/>
		<rect x="138.8" y="258.1" class="st2" width="5.8" height="5.8"/>
		<rect x="138.8" y="252.3" class="st2" width="5.8" height="5.8"/>
		<rect x="138.8" y="30.5" class="st2" width="5.8" height="5.8"/>
		<rect x="138.8" y="24.6" class="st2" width="5.8" height="5.8"/>
		<rect x="138.8" y="18.8" class="st2" width="5.8" height="5.8"/>
		<rect x="132.9" y="258.1" class="st2" width="5.8" height="5.8"/>
		<rect x="132.9" y="252.3" class="st2" width="5.8" height="5.8"/>
		<rect x="132.9" y="246.4" class="st2" width="5.8" height="5.8"/>
		<rect x="132.9" y="36.3" class="st2" width="5.8" height="5.8"/>
		<rect x="132.9" y="30.5" class="st2" width="5.8" height="5.8"/>
		<rect x="132.9" y="24.6" class="st2" width="5.8" height="5.8"/>
		<rect x="127.1" y="252.3" class="st2" width="5.8" height="5.8"/>
		<rect x="127.1" y="246.4" class="st2" width="5.8" height="5.8"/>
		<rect x="127.1" y="240.6" class="st2" width="5.8" height="5.8"/>
		<rect x="127.1" y="42.2" class="st2" width="5.8" height="5.8"/>
		<rect x="127.1" y="36.3" class="st2" width="5.8" height="5.8"/>
		<rect x="127.1" y="30.5" class="st2" width="5.8" height="5.8"/>
		<rect x="121.3" y="246.4" class="st2" width="5.8" height="5.8"/>
		<rect x="121.3" y="240.6" class="st2" width="5.8" height="5.8"/>
		<rect x="121.3" y="234.7" class="st2" width="5.8" height="5.8"/>
		<rect x="121.3" y="48" class="st2" width="5.8" height="5.8"/>
		<rect x="121.3" y="42.2" class="st2" width="5.8" height="5.8"/>
		<rect x="121.3" y="36.3" class="st2" width="5.8" height="5.8"/>
		<rect x="115.4" y="240.6" class="st2" width="5.8" height="5.8"/>
		<rect x="115.4" y="234.7" class="st2" width="5.8" height="5.8"/>
		<rect x="115.4" y="228.9" class="st2" width="5.8" height="5.8"/>
		<rect x="115.4" y="53.8" class="st2" width="5.8" height="5.8"/>
		<rect x="115.4" y="48" class="st2" width="5.8" height="5.8"/>
		<rect x="115.4" y="42.2" class="st2" width="5.8" height="5.8"/>
		<rect x="109.6" y="234.7" class="st2" width="5.8" height="5.8"/>
		<rect x="109.6" y="228.9" class="st2" width="5.8" height="5.8"/>
		<rect x="109.6" y="223.1" class="st2" width="5.8" height="5.8"/>
		<rect x="109.6" y="59.7" class="st2" width="5.8" height="5.8"/>
		<rect x="109.6" y="53.8" class="st2" width="5.8" height="5.8"/>
		<rect x="109.6" y="48" class="st2" width="5.8" height="5.8"/>
		<rect x="103.8" y="228.9" class="st2" width="5.8" height="5.8"/>
		<rect x="103.8" y="223.1" class="st2" width="5.8" height="5.8"/>
		<rect x="103.8" y="217.2" class="st2" width="5.8" height="5.8"/>
		<rect x="103.8" y="65.5" class="st2" width="5.8" height="5.8"/>
		<rect x="103.8" y="59.7" class="st2" width="5.8" height="5.8"/>
		<rect x="103.8" y="53.8" class="st2" width="5.8" height="5.8"/>
		<rect x="97.9" y="223.1" class="st2" width="5.8" height="5.8"/>
		<rect x="97.9" y="217.2" class="st2" width="5.8" height="5.8"/>
		<rect x="97.9" y="211.4" class="st2" width="5.8" height="5.8"/>
		<rect x="97.9" y="71.3" class="st2" width="5.8" height="5.8"/>
		<rect x="97.9" y="65.5" class="st2" width="5.8" height="5.8"/>
		<rect x="97.9" y="59.7" class="st2" width="5.8" height="5.8"/>
		<rect x="92.1" y="217.2" class="st2" width="5.8" height="5.8"/>
		<rect x="92.1" y="211.4" class="st2" width="5.8" height="5.8"/>
		<rect x="92.1" y="205.6" class="st2" width="5.8" height="5.8"/>
		<rect x="92.1" y="77.2" class="st2" width="5.8" height="5.8"/>
		<rect x="92.1" y="71.3" class="st2" width="5.8" height="5.8"/>
		<rect x="92.1" y="65.5" class="st2" width="5.8" height="5.8"/>
		<rect x="86.3" y="211.4" class="st2" width="5.8" height="5.8"/>
		<rect x="86.3" y="205.6" class="st2" width="5.8" height="5.8"/>
		<rect x="86.3" y="199.7" class="st2" width="5.8" height="5.8"/>
		<rect x="86.3" y="83" class="st2" width="5.8" height="5.8"/>
		<rect x="86.3" y="77.2" class="st2" width="5.8" height="5.8"/>
		<rect x="86.3" y="71.3" class="st2" width="5.8" height="5.8"/>
		<rect x="80.4" y="205.6" class="st2" width="5.8" height="5.8"/>
		<rect x="80.4" y="199.7" class="st2" width="5.8" height="5.8"/>
		<rect x="80.4" y="193.9" class="st2" width="5.8" height="5.8"/>
		<rect x="80.4" y="88.8" class="st2" width="5.8" height="5.8"/>
		<rect x="80.4" y="83" class="st2" width="5.8" height="5.8"/>
		<rect x="80.4" y="77.2" class="st2" width="5.8" height="5.8"/>
		<rect x="74.6" y="199.7" class="st2" width="5.8" height="5.8"/>
		<rect x="74.6" y="193.9" class="st2" width="5.8" height="5.8"/>
		<rect x="74.6" y="188.1" class="st2" width="5.8" height="5.8"/>
		<rect x="74.6" y="94.7" class="st2" width="5.8" height="5.8"/>
		<rect x="74.6" y="88.8" class="st2" width="5.8" height="5.8"/>
		<rect x="74.6" y="83" class="st2" width="5.8" height="5.8"/>
		<rect x="68.7" y="193.9" class="st2" width="5.8" height="5.8"/>
		<rect x="68.7" y="188.1" class="st2" width="5.8" height="5.8"/>
		<rect x="68.7" y="182.2" class="st2" width="5.8" height="5.8"/>
		<rect x="68.7" y="100.5" class="st2" width="5.8" height="5.8"/>
		<rect x="68.7" y="94.7" class="st2" width="5.8" height="5.8"/>
		<rect x="68.7" y="88.8" class="st2" width="5.8" height="5.8"/>
		<rect x="62.9" y="188.1" class="st2" width="5.8" height="5.8"/>
		<rect x="62.9" y="182.2" class="st2" width="5.8" height="5.8"/>
		<rect x="62.9" y="176.4" class="st2" width="5.8" height="5.8"/>
		<rect x="62.9" y="106.3" class="st2" width="5.8" height="5.8"/>
		<rect x="62.9" y="100.5" class="st2" width="5.8" height="5.8"/>
		<rect x="62.9" y="94.7" class="st2" width="5.8" height="5.8"/>
		<rect x="57.1" y="182.2" class="st2" width="5.8" height="5.8"/>
		<rect x="57.1" y="176.4" class="st2" width="5.8" height="5.8"/>
		<rect x="57.1" y="170.6" class="st2" width="5.8" height="5.8"/>
		<rect x="57.1" y="112.2" class="st2" width="5.8" height="5.8"/>
		<rect x="57.1" y="106.3" class="st2" width="5.8" height="5.8"/>
		<rect x="57.1" y="100.5" class="st2" width="5.8" height="5.8"/>
		<rect x="51.2" y="176.4" class="st2" width="5.8" height="5.8"/>
		<rect x="51.2" y="170.6" class="st2" width="5.8" height="5.8"/>
		<rect x="51.2" y="164.7" class="st2" width="5.8" height="5.8"/>
		<rect x="51.2" y="118" class="st2" width="5.8" height="5.8"/>
		<rect x="51.2" y="112.2" class="st2" width="5.8" height="5.8"/>
		<rect x="51.2" y="106.3" class="st2" width="5.8" height="5.8"/>
		<rect x="45.4" y="170.6" class="st2" width="5.8" height="5.8"/>
		<rect x="45.4" y="164.7" class="st2" width="5.8" height="5.8"/>
		<rect x="45.4" y="158.9" class="st2" width="5.8" height="5.8"/>
		<rect x="45.4" y="123.8" class="st2" width="5.8" height="5.8"/>
		<rect x="45.4" y="118" class="st2" width="5.8" height="5.8"/>
		<rect x="45.4" y="112.2" class="st2" width="5.8" height="5.8"/>
		<rect x="39.6" y="164.7" class="st2" width="5.8" height="5.8"/>
		<rect x="39.6" y="158.9" class="st2" width="5.8" height="5.8"/>
		<rect x="39.6" y="153" class="st2" width="5.8" height="5.8"/>
		<rect x="39.6" y="129.7" class="st2" width="5.8" height="5.8"/>
		<rect x="39.6" y="123.8" class="st2" width="5.8" height="5.8"/>
		<rect x="39.6" y="118" class="st2" width="5.8" height="5.8"/>
		<rect x="33.7" y="158.9" class="st2" width="5.8" height="5.8"/>
		<rect x="33.7" y="153" class="st2" width="5.8" height="5.8"/>
		<rect x="33.7" y="147.2" class="st2" width="5.8" height="5.8"/>
		<rect x="33.7" y="135.5" class="st2" width="5.8" height="5.8"/>
		<rect x="33.7" y="129.7" class="st2" width="5.8" height="5.8"/>
		<rect x="33.7" y="123.8" class="st2" width="5.8" height="5.8"/>
		<rect x="27.9" y="153" class="st2" width="5.8" height="5.8"/>
		<rect x="27.9" y="147.2" class="st2" width="5.8" height="5.8"/>
		<rect x="27.9" y="141.4" class="st2" width="5.8" height="5.8"/>
		<rect x="27.9" y="135.5" class="st2" width="5.8" height="5.8"/>
		<rect x="27.9" y="129.7" class="st2" width="5.8" height="5.8"/>
		<rect x="22" y="147.2" class="st2" width="5.8" height="5.8"/>
		<rect x="22" y="141.4" class="st2" width="5.8" height="5.8"/>
		<rect x="22" y="135.5" class="st2" width="5.8" height="5.8"/>
		<rect x="16.2" y="141.4" class="st2" width="5.8" height="5.8"/>
		<rect x="224.6" y="141.3" class="st3" width="6" height="6"/>
		<rect x="248.6" y="141.3" class="st3" width="6" height="6"/>
		<rect x="242.6" y="141.3" class="st3" width="6" height="6"/>
		<rect x="242.6" y="135.3" class="st3" width="6" height="6"/>
		<rect x="242.6" y="147.3" class="st3" width="6" height="6"/>
		<rect x="236.6" y="153.3" class="st3" width="6" height="6"/>
		<rect x="236.6" y="147.3" class="st3" width="6" height="6"/>
		<rect x="230.6" y="153.3" class="st3" width="6" height="6"/>
		<rect x="230.6" y="147.3" class="st3" width="6" height="6"/>
		<rect x="230.6" y="159.3" class="st3" width="6" height="6"/>
		<rect x="224.6" y="159.3" class="st3" width="6" height="6"/>
		<rect x="224.6" y="153.3" class="st3" width="6" height="6"/>
		<rect x="224.6" y="165.3" class="st3" width="6" height="6"/>
		<rect x="218.6" y="153.3" class="st3" width="6" height="6"/>
		<rect x="218.6" y="159.3" class="st3" width="6" height="6"/>
		<rect x="218.6" y="147.3" class="st3" width="6" height="6"/>
		<rect x="212.5" y="147.3" class="st3" width="6" height="6"/>
		<rect x="212.5" y="153.3" class="st3" width="6" height="6"/>
		<rect x="200.5" y="141.3" class="st3" width="6" height="6"/>
		<rect x="206.5" y="147.3" class="st3" width="6" height="6"/>
		<rect x="206.5" y="135.3" class="st3" width="6" height="6"/>
		<rect x="206.5" y="141.3" class="st3" width="6" height="6"/>
		<rect x="212.5" y="141.3" class="st3" width="6" height="6"/>
		<rect x="212.5" y="129.3" class="st3" width="6" height="6"/>
		<rect x="212.5" y="135.3" class="st3" width="6" height="6"/>
		<rect x="236.6" y="141.3" class="st3" width="6" height="6"/>
		<rect x="236.6" y="135.3" class="st3" width="6" height="6"/>
		<rect x="236.6" y="129.3" class="st3" width="6" height="6"/>
		<rect x="230.6" y="135.3" class="st3" width="6" height="6"/>
		<rect x="230.6" y="129.3" class="st3" width="6" height="6"/>
		<rect x="230.6" y="123.3" class="st3" width="6" height="6"/>
		<rect x="224.6" y="117.3" class="st3" width="6" height="6"/>
		<rect x="224.6" y="123.3" class="st3" width="6" height="6"/>
		<rect x="224.6" y="129.3" class="st3" width="6" height="6"/>
		<rect x="218.6" y="135.3" class="st3" width="6" height="6"/>
		<rect x="218.6" y="123.3" class="st3" width="6" height="6"/>
		<rect x="218.6" y="129.3" class="st3" width="6" height="6"/>
		<rect x="145.8" y="141" class="st4" width="6.8" height="6.8"/>
		<rect x="172.9" y="141" class="st4" width="6.8" height="6.8"/>
		<rect x="166.1" y="141" class="st4" width="6.8" height="6.8"/>
		<rect x="166.1" y="134.2" class="st4" width="6.8" height="6.8"/>
		<rect x="166.1" y="147.8" class="st4" width="6.8" height="6.8"/>
		<rect x="159.3" y="154.5" class="st4" width="6.8" height="6.8"/>
		<rect x="159.3" y="147.8" class="st4" width="6.8" height="6.8"/>
		<rect x="152.5" y="154.5" class="st4" width="6.8" height="6.8"/>
		<rect x="152.5" y="147.8" class="st4" width="6.8" height="6.8"/>
		<rect x="152.5" y="161.3" class="st4" width="6.8" height="6.8"/>
		<rect x="145.8" y="161.3" class="st4" width="6.8" height="6.8"/>
		<rect x="145.8" y="154.5" class="st4" width="6.8" height="6.8"/>
		<rect x="145.8" y="168.1" class="st4" width="6.8" height="6.8"/>
		<rect x="139" y="154.5" class="st4" width="6.8" height="6.8"/>
		<rect x="139" y="161.3" class="st4" width="6.8" height="6.8"/>
		<rect x="139" y="147.8" class="st4" width="6.8" height="6.8"/>
		<rect x="132.2" y="147.8" class="st4" width="6.8" height="6.8"/>
		<rect x="132.2" y="154.5" class="st4" width="6.8" height="6.8"/>
		<rect x="118.6" y="141" class="st4" width="6.8" height="6.8"/>
		<rect x="125.4" y="147.8" class="st4" width="6.8" height="6.8"/>
		<rect x="125.4" y="134.2" class="st4" width="6.8" height="6.8"/>
		<rect x="125.4" y="141" class="st4" width="6.8" height="6.8"/>
		<rect x="132.2" y="141" class="st4" width="6.8" height="6.8"/>
		<rect x="132.2" y="127.4" class="st4" width="6.8" height="6.8"/>
		<rect x="132.2" y="134.2" class="st4" width="6.8" height="6.8"/>
		<rect x="159.3" y="141" class="st4" width="6.8" height="6.8"/>
		<rect x="159.3" y="134.2" class="st4" width="6.8" height="6.8"/>
		<rect x="159.3" y="127.4" class="st4" width="6.8" height="6.8"/>
		<rect x="152.5" y="134.2" class="st4" width="6.8" height="6.8"/>
		<rect x="152.5" y="127.4" class="st4" width="6.8" height="6.8"/>
		<rect x="152.5" y="120.6" class="st4" width="6.8" height="6.8"/>
		<rect x="145.8" y="113.8" class="st4" width="6.8" height="6.8"/>
		<rect x="145.8" y="120.6" class="st4" width="6.8" height="6.8"/>
		<rect x="145.8" y="127.4" class="st4" width="6.8" height="6.8"/>
		<rect x="139" y="134.2" class="st4" width="6.8" height="6.8"/>
		<rect x="139" y="120.6" class="st4" width="6.8" height="6.8"/>
		<rect x="139" y="127.4" class="st4" width="6.8" height="6.8"/>
		<rect x="144.5" y="220.1" class="st5" width="6" height="6"/>
		<rect x="168.5" y="220.1" class="st5" width="6" height="6"/>
		<rect x="162.5" y="220.1" class="st5" width="6" height="6"/>
		<rect x="162.5" y="214.1" class="st5" width="6" height="6"/>
		<rect x="162.5" y="226.1" class="st5" width="6" height="6"/>
		<rect x="156.5" y="232.1" class="st5" width="6" height="6"/>
		<rect x="156.5" y="226.1" class="st5" width="6" height="6"/>
		<rect x="150.5" y="232.1" class="st5" width="6" height="6"/>
		<rect x="150.5" y="226.1" class="st5" width="6" height="6"/>
		<rect x="150.5" y="238.1" class="st5" width="6" height="6"/>
		<rect x="144.5" y="238.1" class="st5" width="6" height="6"/>
		<rect x="144.5" y="232.1" class="st5" width="6" height="6"/>
		<rect x="144.5" y="244.1" class="st5" width="6" height="6"/>
		<rect x="138.5" y="232.1" class="st5" width="6" height="6"/>
		<rect x="138.5" y="238.1" class="st5" width="6" height="6"/>
		<rect x="138.5" y="226.1" class="st5" width="6" height="6"/>
		<rect x="132.5" y="226.1" class="st5" width="6" height="6"/>
		<rect x="132.5" y="232.1" class="st5" width="6" height="6"/>
		<rect x="120.5" y="220.1" class="st5" width="6" height="6"/>
		<rect x="126.5" y="226.1" class="st5" width="6" height="6"/>
		<rect x="126.5" y="214.1" class="st5" width="6" height="6"/>
		<rect x="126.5" y="220.1" class="st5" width="6" height="6"/>
		<rect x="132.5" y="220.1" class="st5" width="6" height="6"/>
		<rect x="132.5" y="208.1" class="st5" width="6" height="6"/>
		<rect x="132.5" y="214.1" class="st5" width="6" height="6"/>
		<rect x="156.5" y="220.1" class="st5" width="6" height="6"/>
		<rect x="156.5" y="214.1" class="st5" width="6" height="6"/>
		<rect x="156.5" y="208.1" class="st5" width="6" height="6"/>
		<rect x="150.5" y="214.1" class="st5" width="6" height="6"/>
		<rect x="150.5" y="208.1" class="st5" width="6" height="6"/>
		<rect x="150.5" y="202.1" class="st5" width="6" height="6"/>
		<rect x="144.5" y="196.1" class="st5" width="6" height="6"/>
		<rect x="144.5" y="202.1" class="st5" width="6" height="6"/>
		<rect x="144.5" y="208.1" class="st5" width="6" height="6"/>
		<rect x="138.5" y="214.1" class="st5" width="6" height="6"/>
		<rect x="138.5" y="202.1" class="st5" width="6" height="6"/>
		<rect x="138.5" y="208.1" class="st5" width="6" height="6"/>
		<rect x="144.5" y="62.5" class="st6" width="6" height="6"/>
		<rect x="168.5" y="62.5" class="st6" width="6" height="6"/>
		<rect x="162.5" y="62.5" class="st6" width="6" height="6"/>
		<rect x="162.5" y="56.5" class="st6" width="6" height="6"/>
		<rect x="162.5" y="68.5" class="st6" width="6" height="6"/>
		<rect x="156.5" y="74.5" class="st6" width="6" height="6"/>
		<rect x="156.5" y="68.5" class="st6" width="6" height="6"/>
		<rect x="150.5" y="74.5" class="st6" width="6" height="6"/>
		<rect x="150.5" y="68.5" class="st6" width="6" height="6"/>
		<rect x="150.5" y="80.5" class="st6" width="6" height="6"/>
		<rect x="144.5" y="80.5" class="st6" width="6" height="6"/>
		<rect x="144.5" y="74.5" class="st6" width="6" height="6"/>
		<rect x="144.5" y="86.5" class="st6" width="6" height="6"/>
		<rect x="138.5" y="74.5" class="st6" width="6" height="6"/>
		<rect x="138.5" y="80.5" class="st6" width="6" height="6"/>
		<rect x="138.5" y="68.5" class="st6" width="6" height="6"/>
		<rect x="132.5" y="68.5" class="st6" width="6" height="6"/>
		<rect x="132.5" y="74.5" class="st6" width="6" height="6"/>
		<rect x="120.5" y="62.5" class="st6" width="6" height="6"/>
		<rect x="126.5" y="68.5" class="st6" width="6" height="6"/>
		<rect x="126.5" y="56.5" class="st6" width="6" height="6"/>
		<rect x="126.5" y="62.5" class="st6" width="6" height="6"/>
		<rect x="132.5" y="62.5" class="st6" width="6" height="6"/>
		<rect x="132.5" y="50.5" class="st6" width="6" height="6"/>
		<rect x="132.5" y="56.5" class="st6" width="6" height="6"/>
		<rect x="156.5" y="62.5" class="st6" width="6" height="6"/>
		<rect x="156.5" y="56.5" class="st6" width="6" height="6"/>
		<rect x="156.5" y="50.5" class="st6" width="6" height="6"/>
		<rect x="150.5" y="56.5" class="st6" width="6" height="6"/>
		<rect x="150.5" y="50.5" class="st6" width="6" height="6"/>
		<rect x="150.5" y="44.5" class="st6" width="6" height="6"/>
		<rect x="144.5" y="38.5" class="st6" width="6" height="6"/>
		<rect x="144.5" y="44.5" class="st6" width="6" height="6"/>
		<rect x="144.5" y="50.5" class="st6" width="6" height="6"/>
		<rect x="138.5" y="56.5" class="st6" width="6" height="6"/>
		<rect x="138.5" y="44.5" class="st6" width="6" height="6"/>
		<rect x="138.5" y="50.5" class="st6" width="6" height="6"/>
		<rect x="65.7" y="141.4" class="st7" width="6" height="6"/>
		<rect x="89.8" y="141.4" class="st7" width="6" height="6"/>
		<rect x="83.8" y="141.4" class="st7" width="6" height="6"/>
		<rect x="83.8" y="135.4" class="st7" width="6" height="6"/>
		<rect x="83.8" y="147.4" class="st7" width="6" height="6"/>
		<rect x="77.7" y="153.4" class="st7" width="6" height="6"/>
		<rect x="77.7" y="147.4" class="st7" width="6" height="6"/>
		<rect x="71.7" y="153.4" class="st7" width="6" height="6"/>
		<rect x="71.7" y="147.4" class="st7" width="6" height="6"/>
		<rect x="71.7" y="159.4" class="st7" width="6" height="6"/>
		<rect x="65.7" y="159.4" class="st7" width="6" height="6"/>
		<rect x="65.7" y="153.4" class="st7" width="6" height="6"/>
		<rect x="65.7" y="165.4" class="st7" width="6" height="6"/>
		<rect x="59.7" y="153.4" class="st7" width="6" height="6"/>
		<rect x="59.7" y="159.4" class="st7" width="6" height="6"/>
		<rect x="59.7" y="147.4" class="st7" width="6" height="6"/>
		<rect x="53.7" y="147.4" class="st7" width="6" height="6"/>
		<rect x="53.7" y="153.4" class="st7" width="6" height="6"/>
		<rect x="41.7" y="141.4" class="st7" width="6" height="6"/>
		<rect x="47.7" y="147.4" class="st7" width="6" height="6"/>
		<rect x="47.7" y="135.4" class="st7" width="6" height="6"/>
		<rect x="47.7" y="141.4" class="st7" width="6" height="6"/>
		<rect x="53.7" y="141.4" class="st7" width="6" height="6"/>
		<rect x="53.7" y="129.4" class="st7" width="6" height="6"/>
		<rect x="53.7" y="135.4" class="st7" width="6" height="6"/>
		<rect x="77.7" y="141.4" class="st7" width="6" height="6"/>
		<rect x="77.7" y="135.4" class="st7" width="6" height="6"/>
		<rect x="77.7" y="129.4" class="st7" width="6" height="6"/>
		<rect x="71.7" y="135.4" class="st7" width="6" height="6"/>
		<rect x="71.7" y="129.4" class="st7" width="6" height="6"/>
		<rect x="71.7" y="123.3" class="st7" width="6" height="6"/>
		<rect x="65.7" y="117.3" class="st7" width="6" height="6"/>
		<rect x="65.7" y="123.3" class="st7" width="6" height="6"/>
		<rect x="65.7" y="129.4" class="st7" width="6" height="6"/>
		<rect x="59.7" y="135.4" class="st7" width="6" height="6"/>
		<rect x="59.7" y="123.3" class="st7" width="6" height="6"/>
		<rect x="59.7" y="129.4" class="st7" width="6" height="6"/>
		<path class="st8" d="M153.1,173.5l1-51.2c39.2-2,59.4-15.5,63-17.5s18.7-13.1,18.7-13.1l8.4-6.8l6.8-6.8l9.6-10L270.8,55l8.8-11.9
			l6-9.5l-23.1,6.8c-42.9,59-87.5,64.5-108,63.2l1.3-70l-9.2-9.5l-4,77.8C97.7,98.8,56.1,31,56.1,31l-29.9,7.6
			c25.8,54.2,76.7,80.4,115.3,83.5l-2.7,51.6c-37.6,2.4-57,15.4-60.6,17.3s-18.7,13.1-18.7,13.1l-8.4,6.8l-6.8,6.8l-9.6,9.9
			l-10.4,13.1l-8.8,11.9l-6,9.6l23.1-6.8c40.9-56.3,83.3-63.8,105-63.3l-2.9,56.3l16.3,16.3l1.3-70.9c1.1,0.2,2.1,0.3,3.2,0.5
			c44.6,6,102.5,76,102.5,76l29.5-13.9C222.9,192.2,188.2,174.8,153.1,173.5z"/>
	</g>
</g>
</svg>
