<svg xmlns="http://www.w3.org/2000/svg" viewBox="0 0 387.78 381.01"><defs><style>.cls-1{fill:#f5f5f5;}.cls-2{fill:#f6a527;}.cls-3{fill:#407bff;}.cls-4,.cls-8{opacity:0.5;}.cls-10,.cls-5,.cls-8,.cls-9{fill:#fff;}.cls-6{fill:#b57d33;}.cls-12,.cls-7{fill:#fafafa;}.cls-9{opacity:0.7;}.cls-10,.cls-13,.cls-15{opacity:0.3;}.cls-11{fill:#e4897b;}.cls-12{opacity:0.4;}.cls-14{fill:#3c8f7c;}.cls-15{fill:#0a0a0a;}.cls-16{fill:#263238;}.cls-17{fill:#de5753;}.cls-18,.cls-19{fill:#f47458;}.cls-19,.cls-24{opacity:0.1;}.cls-20{fill:#ce6f64;}.cls-21{fill:#355389;}.cls-22{fill:#161f33;}.cls-23{opacity:0.2;}</style></defs><g id="Layer_2" data-name="Layer 2"><g id="Shadow"><ellipse class="cls-1" cx="193.89" cy="369.68" rx="193.89" ry="11.32"/></g><g id="Speech_Bubbles" data-name="Speech Bubbles"><rect class="cls-2" x="256.22" y="99.26" width="116.84" height="45.42" rx="9.37"/><rect class="cls-3" x="265.96" y="106.92" width="79.91" height="5.08" rx="1.64"/><rect class="cls-3" x="265.96" y="119.16" width="55.64" height="5.08" rx="1.64"/><rect class="cls-3" x="265.96" y="131.41" width="41.6" height="5.08" rx="1.64"/><rect class="cls-3" x="313.45" y="131.41" width="41.6" height="5.08" rx="1.64"/><g class="cls-4"><rect class="cls-5" x="265.96" y="106.92" width="79.91" height="5.08" rx="1.64"/><rect class="cls-5" x="265.96" y="119.16" width="55.64" height="5.08" rx="1.64"/><rect class="cls-5" x="265.96" y="131.41" width="41.6" height="5.08" rx="1.64"/><rect class="cls-5" x="313.45" y="131.41" width="41.6" height="5.08" rx="1.64"/></g><rect class="cls-3" x="160.02" y="88.67" width="138.83" height="66.6" rx="13.74"/><rect class="cls-3" x="174.3" y="99.91" width="117.16" height="7.45" rx="2.41"/><rect class="cls-3" x="174.3" y="117.86" width="81.57" height="7.45" rx="2.41"/><rect class="cls-3" x="174.3" y="135.81" width="60.99" height="7.45" rx="2.41"/><rect class="cls-3" x="243.93" y="135.81" width="51.62" height="7.45" rx="2.41"/><g class="cls-4"><rect class="cls-5" x="174.3" y="99.91" width="117.16" height="7.45" rx="2.41"/><rect class="cls-5" x="174.3" y="117.86" width="81.57" height="7.45" rx="2.41"/><rect class="cls-5" x="174.3" y="135.81" width="60.99" height="7.45" rx="2.41"/><rect class="cls-5" x="243.93" y="135.81" width="51.62" height="7.45" rx="2.41"/></g><rect class="cls-6" x="155.82" y="167.34" width="66.47" height="93.18" rx="6.42"/><rect class="cls-7" x="163.52" y="177.06" width="51.08" height="4.13" rx="1.18"/><rect class="cls-7" x="163.52" y="187.01" width="35.57" height="4.13" rx="1.18"/><rect class="cls-7" x="163.52" y="196.95" width="51.08" height="4.13" rx="1.18"/><rect class="cls-7" x="163.52" y="206.9" width="20.47" height="4.13" rx="1.18"/><rect class="cls-7" x="188.85" y="206.9" width="20.47" height="4.13" rx="1.18"/><rect class="cls-7" x="163.52" y="216.84" width="51.08" height="4.13" rx="1.18"/><rect class="cls-7" x="163.52" y="226.79" width="51.08" height="4.13" rx="1.18"/><rect class="cls-7" x="163.52" y="236.73" width="42.44" height="4.13" rx="1.18"/><rect class="cls-7" x="163.52" y="246.68" width="21.06" height="4.13" rx="1.18"/><path class="cls-6" d="M230.39,166.78H156L188.85,193l50.44,19V175.68A8.93,8.93,0,0,0,230.39,166.78Z"/><rect class="cls-7" x="171.23" y="180.25" width="57.39" height="5.72" rx="1.48"/><rect class="cls-2" x="272.93" y="158.77" width="66.84" height="105.37" rx="7.26" transform="translate(517.8 -94.89) rotate(90)"/><rect class="cls-3" x="289.52" y="142.18" width="66.84" height="105.37" rx="7.26" transform="translate(517.8 -128.07) rotate(90)"/><rect class="cls-8" x="289.52" y="142.18" width="66.84" height="105.37" rx="7.26" transform="translate(517.8 -128.07) rotate(90)"/><rect class="cls-3" x="328.99" y="168.93" width="38.67" height="36.15" rx="3.23" transform="translate(535.33 -161.32) rotate(90)"/><rect class="cls-9" x="328.99" y="168.93" width="38.67" height="36.15" rx="3.23" transform="translate(535.33 -161.32) rotate(90)"/><rect class="cls-3" x="295.92" y="192.48" width="29.64" height="27.71" rx="2.48" transform="translate(517.08 -104.4) rotate(90)"/><rect class="cls-10" x="295.92" y="192.48" width="29.64" height="27.71" rx="2.48" transform="translate(517.08 -104.4) rotate(90)"/><rect class="cls-3" x="167.25" y="-73.9" width="28.09" height="258.89" rx="7.38" transform="translate(236.85 -125.75) rotate(90)"/><rect class="cls-8" x="167.25" y="-73.9" width="28.09" height="258.89" rx="7.38" transform="translate(236.85 -125.75) rotate(90)"/><rect class="cls-3" x="224.59" y="34.32" width="9.67" height="70.25" transform="translate(298.88 -159.98) rotate(90)"/><rect class="cls-8" x="224.59" y="34.32" width="9.67" height="70.25" transform="translate(298.88 -159.98) rotate(90)"/><rect class="cls-2" x="192.43" y="-115.4" width="28.09" height="258.89" rx="7.38" transform="translate(220.52 -192.43) rotate(90)"/></g><g id="Character"><path class="cls-11" d="M73.88,154.14c-.88,2-1.85,4.15-2.7,6.27s-1.73,4.28-2.5,6.44a91.35,91.35,0,0,0-3.79,12.93l-.29,1.6-.1.6c0,.17,0,.39-.06.59a24.53,24.53,0,0,0,.06,2.92c.19,2.11.53,4.37,1,6.63.84,4.53,1.91,9.2,3,13.79l-5.13,2a92.65,92.65,0,0,1-6.09-13.59,57.48,57.48,0,0,1-2.12-7.47,27,27,0,0,1-.56-4.26c0-.4,0-.78,0-1.22s0-.9.07-1.18l.2-2a65.14,65.14,0,0,1,1.37-7.66c.56-2.49,1.28-4.92,2.05-7.32s1.62-4.76,2.57-7.08c.47-1.16,1-2.31,1.47-3.46s1-2.25,1.63-3.48Z"/><path class="cls-11" d="M68.23,204.57l3.9,3.81-8.5,4s-2.07-3.6-.64-6.86Z"/><polygon class="cls-11" points="75.28 214.04 68.09 216.99 63.63 212.33 72.13 208.38 75.28 214.04"/><path class="cls-12" d="M220.93,210a72,72,0,1,1,79.57-63.57A72,72,0,0,1,220.93,210Z"/><path class="cls-12" d="M273.31,81.67,163.82,169.16c-.47-1-.92-2-1.34-3a71.09,71.09,0,0,1-5.21-20.47h0l94.57-75.57A71.15,71.15,0,0,1,273.31,81.67Z"/><path class="cls-12" d="M298.58,120,195.63,202.25A72,72,0,0,1,170.86,181L283.28,91.14A72.17,72.17,0,0,1,298.58,120Z"/><path class="cls-3" d="M147.91,110.91l-.95-.32a87.29,87.29,0,0,1,6.18-14L154,97A86.54,86.54,0,0,0,147.91,110.91Zm12.14-23.34-.81-.59a86.7,86.7,0,0,1,31.37-26.21l.45.9A85.65,85.65,0,0,0,160.05,87.57ZM269.64,63a85.23,85.23,0,0,0-10.1-4.63l.36-.93a85.62,85.62,0,0,1,10.22,4.68Z"/><path class="cls-13" d="M147.91,110.91l-.95-.32a87.29,87.29,0,0,1,6.18-14L154,97A86.54,86.54,0,0,0,147.91,110.91Zm12.14-23.34-.81-.59a86.7,86.7,0,0,1,31.37-26.21l.45.9A85.65,85.65,0,0,0,160.05,87.57ZM269.64,63a85.23,85.23,0,0,0-10.1-4.63l.36-.93a85.62,85.62,0,0,1,10.22,4.68Z"/><path class="cls-14" d="M303.39,101.62a83,83,0,0,0-152.65,64.72c-6.68,2.35-13.28,4.86-19.84,7.45q-14.19,5.61-28.12,11.76c-9.28,4.11-18.52,8.3-27.66,12.68-4.6,2.15-9.13,4.42-13.7,6.62a19.92,19.92,0,0,0-6.34,4.34,19.62,19.62,0,0,0-2.57,3.38,17.43,17.43,0,0,0-2,4.63,12.74,12.74,0,0,0,7.33,14.85,17.17,17.17,0,0,0,4.86,1.25,18.9,18.9,0,0,0,4.25,0,19.7,19.7,0,0,0,7.3-2.39c4.53-2.29,9.09-4.5,13.59-6.85,9-4.59,18-9.38,26.89-14.25s17.71-9.94,26.44-15.17c6-3.63,12-7.34,18-11.22a83,83,0,0,0,144.21-81.82Zm-45.46,95.52a65.53,65.53,0,1,1,29.75-87.77A65.52,65.52,0,0,1,257.93,197.14Z"/><path class="cls-15" d="M303.39,101.76a83,83,0,0,0-152.65,64.73c-6.68,2.34-13.28,4.86-19.84,7.44q-14.19,5.63-28.12,11.76c-9.28,4.12-18.52,8.3-27.66,12.68-4.6,2.15-9.13,4.42-13.7,6.62a19.79,19.79,0,0,0-6.34,4.35,18.87,18.87,0,0,0-2.57,3.38,17.36,17.36,0,0,0-2,4.62,12.74,12.74,0,0,0,7.33,14.85,17.56,17.56,0,0,0,4.86,1.26,18.88,18.88,0,0,0,4.25,0,19.7,19.7,0,0,0,7.3-2.39c4.53-2.29,9.09-4.5,13.59-6.84,9-4.6,18-9.39,26.89-14.25s17.71-9.94,26.44-15.17c6-3.64,12-7.35,18-11.23a83,83,0,0,0,144.21-81.82Zm-46.13,96.49A65.54,65.54,0,1,1,287,110.48,65.54,65.54,0,0,1,257.26,198.25Z"/><path class="cls-16" d="M101.54,118.43c0,.59.32,1.07.7,1.07s.7-.48.71-1.07-.32-1.07-.7-1.07S101.54,117.84,101.54,118.43Z"/><path class="cls-17" d="M101.8,119.5a21.33,21.33,0,0,0,2.83,5.07,3.41,3.41,0,0,1-2.83.53Z"/><path class="cls-16" d="M99.45,115.14a.37.37,0,0,1-.29-.14.36.36,0,0,1,.08-.49,3.43,3.43,0,0,1,3.13-.53.35.35,0,0,1,.2.45.36.36,0,0,1-.45.2,2.7,2.7,0,0,0-2.47.45A.36.36,0,0,1,99.45,115.14Z"/><path class="cls-11" d="M81.32,122.9c1.05,5.37,2.1,15.22-1.66,18.8,0,0,1.47,5.46,11.46,5.46,11,0,5.25-5.46,5.25-5.46-6-1.43-5.84-5.87-4.8-10Z"/><path class="cls-18" d="M75.17,144.51c1.19-1.52-.81-5.2-.81-5.2s17.69-3.65,24.91,1.95c1.5,1.17-.16,2.87-.16,2.87Z"/><path class="cls-19" d="M75.17,144.51c1.19-1.52-.81-5.2-.81-5.2s17.69-3.65,24.91,1.95c1.5,1.17-.16,2.87-.16,2.87Z"/><path class="cls-3" d="M45.92,348.55c-.93,0-2.42-1.55-2.86-2.13a.17.17,0,0,1,0-.19.18.18,0,0,1,.16-.09c.11,0,2.56.22,3.23,1.09a.8.8,0,0,1,.16.66.72.72,0,0,1-.52.65Zm-2.32-2c.74.84,1.9,1.79,2.4,1.67,0,0,.2-.05.26-.37a.48.48,0,0,0-.1-.39A4.75,4.75,0,0,0,43.6,346.53Z"/><path class="cls-3" d="M43.71,346.52a2.77,2.77,0,0,1-.54,0,.16.16,0,0,1-.14-.12.18.18,0,0,1,0-.17c.07-.06,1.54-1.59,2.65-1.59h0a.93.93,0,0,1,.71.3.57.57,0,0,1,.14.7C46.24,346.21,44.71,346.52,43.71,346.52Zm-.12-.34c.94,0,2.44-.31,2.68-.75,0,0,.07-.13-.09-.29a.59.59,0,0,0-.46-.19h0A4.17,4.17,0,0,0,43.59,346.18Z"/><path class="cls-3" d="M111.91,371.25a13,13,0,0,1-2.25-.21.16.16,0,0,1-.14-.14.18.18,0,0,1,.08-.18c.11-.06,2.67-1.53,3.9-1.19a.82.82,0,0,1,.55.4.66.66,0,0,1,0,.76C113.76,371.12,112.85,371.25,111.91,371.25Zm-1.69-.47c1.36.2,3.22.18,3.57-.29,0-.06.08-.17,0-.39a.51.51,0,0,0-.34-.24C112.66,369.65,111.12,370.32,110.22,370.78Z"/><path class="cls-3" d="M109.69,371a.17.17,0,0,1-.1,0,.16.16,0,0,1-.07-.16,4.88,4.88,0,0,1,1.14-2.83,1.25,1.25,0,0,1,1-.29c.48,0,.62.29.65.48.13.83-1.62,2.42-2.51,2.82Zm1.79-3a.91.91,0,0,0-.6.22,4,4,0,0,0-1,2.27c.9-.55,2.1-1.79,2-2.29,0,0,0-.17-.34-.2Z"/><polygon class="cls-11" points="101.61 370.87 108.96 370.87 109.69 353.86 102.34 353.86 101.61 370.87"/><polygon class="cls-11" points="36.16 341.67 42.3 345.69 55.86 334.24 49.72 330.21 36.16 341.67"/><path class="cls-16" d="M43.31,345.31l-6.38-5.23a.63.63,0,0,0-.8,0l-5.26,4.13a1.08,1.08,0,0,0,0,1.69c2.26,1.79,3.45,2.54,6.26,4.85,1.73,1.41,6,5.73,8.41,7.68s4.63-.15,3.82-1.16c-3.59-4.55-5-8.44-5.41-10.85A1.78,1.78,0,0,0,43.31,345.31Z"/><path class="cls-16" d="M108.91,370h-8a.65.65,0,0,0-.63.5l-1.45,6.53a1.07,1.07,0,0,0,1.06,1.31c2.89-.05,7.07-.22,10.71-.22,4.25,0,7.93.23,12.91.23,3,0,3.86-3.05,2.6-3.32-5.75-1.26-10.44-1.4-15.41-4.46A3.44,3.44,0,0,0,108.91,370Z"/><path class="cls-18" d="M65.18,143.9c-6.37,3-10,23.1-10,23.1l15.57,6.21a115.83,115.83,0,0,0,5.51-17.15C78.4,146.78,71.7,140.78,65.18,143.9Z"/><path class="cls-18" d="M73.73,155.14c-3.45,3.59-5,10.63-5.72,15.21l3.34,1.37a109.47,109.47,0,0,0,4.84-15.34C75.9,154.43,75.16,153.65,73.73,155.14Z"/><path class="cls-18" d="M107.67,143.74s7.81,8.84.43,63.5H68.81c-.27-6,3.52-35.45-2.3-63.88a102.56,102.56,0,0,1,13.15-1.66,145.44,145.44,0,0,1,16.71,0A75.23,75.23,0,0,1,107.67,143.74Z"/><path class="cls-18" d="M111.25,165l-6.62-11.41a58.31,58.31,0,0,0-1.55,16.27c.18,3.92,3.77,18.44,7,20.56A230.84,230.84,0,0,0,111.25,165Z"/><path class="cls-11" d="M112.17,151.55c1,4.86,2,9.83,3.07,14.72s2.18,9.78,3.47,14.51c.33,1.17.64,2.36,1,3.49l.27.86.13.43-.05-.05c-.07-.09-.15-.1-.09,0a3.51,3.51,0,0,0,1.52.95,17.84,17.84,0,0,0,2.91.81,77.79,77.79,0,0,0,14.3.93l.95,5.44c-1.34.42-2.59.74-3.91,1s-2.62.58-3.95.78a43.52,43.52,0,0,1-8.33.56,22.61,22.61,0,0,1-4.6-.6,13.39,13.39,0,0,1-5.28-2.45,9.49,9.49,0,0,1-2.46-3,8.5,8.5,0,0,1-.43-.93l-.19-.47-.37-1c-.51-1.27-.93-2.52-1.39-3.78-1.69-5-3.1-10-4.34-15.08s-2.3-10.07-3.2-15.24Z"/><path class="cls-18" d="M97.85,149.1c-2.07,6.71,6.32,26.72,6.32,26.72l16.72-4.21s-.65-10.39-4.45-18.64C110.69,140.53,100.33,141.05,97.85,149.1Z"/><path class="cls-11" d="M138.61,188.2l8.32-.21-4,8.65s-3.39.45-6.17-4.12L133.83,189l3.37-.67A7.52,7.52,0,0,1,138.61,188.2Z"/><polygon class="cls-11" points="152.18 189.6 147.42 196.77 142.93 196.65 146.93 187.99 152.18 189.6"/><polygon class="cls-20" points="109.69 353.86 109.31 362.63 101.96 362.63 102.34 353.86 109.69 353.86"/><polygon class="cls-20" points="49.71 330.21 55.86 334.24 48.87 340.14 42.72 336.12 49.71 330.21"/><path class="cls-11" d="M81.78,117.16c.44,7.27.33,11.55,4,15.29,5.53,5.63,14.51,2.3,16.25-5,1.57-6.54.59-17.34-6.53-20.24A10,10,0,0,0,81.78,117.16Z"/><path class="cls-16" d="M73.22,115.88c1.81,6.64,6.07,14.28,11.58,14.77,6.84.6,9.93-6.47,10.83-13.78,4.1-2.8,2-5.89,6.06-6.28,5.28-.51,3.6-10.16-3.36-11.72,0,0,2.33,4.35-2.56,2.16a28.13,28.13,0,0,0-14.94-2.59s6.24,3.11.14,4.5-7.92,5.16-5.11,7.43A4.22,4.22,0,0,0,73.22,115.88Z"/><path class="cls-11" d="M91.46,118.37a8.22,8.22,0,0,0,2.07,4.87c1.6,1.77,3.27.67,3.55-1.48.26-1.94-.27-5.18-2.23-6.16S91.33,116.19,91.46,118.37Z"/><path class="cls-21" d="M94.16,207.24s7.16,51.85,1.52,72.62c-8.93,32.91-43.12,60.67-43.12,60.67L41,332.94s29.11-23.45,32.67-51c3.2-24.74-4.83-54.64-4.83-74.71Z"/><path class="cls-3" d="M57.23,338c.05,0-4.48,3-4.48,3l-12.67-8.3,4-3.31Z"/><path class="cls-13" d="M57.23,338c.05,0-4.48,3-4.48,3l-12.67-8.3,4-3.31Z"/><path class="cls-21" d="M107.81,208s11.06,46.9,11.84,69.31c.88,25.12-7.89,84.38-7.89,84.38H99.31s-1.53-59.72-2.08-82.6C96.62,254.18,82,208,82,208Z"/><path class="cls-3" d="M114.44,356c.06,0-.7,5.16-.7,5.16H98.6l-.41-4.61Z"/><path class="cls-13" d="M114.44,356c.06,0-.7,5.16-.7,5.16H98.6l-.41-4.61Z"/></g><g id="Character-2" data-name="Character"><path class="cls-11" d="M299.84,155.73c.85.8,1.52,1.48,2.22,2.25s1.36,1.5,2,2.27c1.31,1.53,2.53,3.13,3.7,4.76a75.72,75.72,0,0,1,6.28,10.26l.37.72a8,8,0,0,1,.45,1.1,9.12,9.12,0,0,1,.44,2.26,11,11,0,0,1-.55,4,20.22,20.22,0,0,1-3.21,5.93,42.63,42.63,0,0,1-8.8,8.45l-2.5-2.86c1.18-1.36,2.4-2.83,3.49-4.3a36.76,36.76,0,0,0,3-4.5,15.63,15.63,0,0,0,1.82-4.42,4.35,4.35,0,0,0,.06-1.7,2.05,2.05,0,0,0-.17-.56,2.53,2.53,0,0,0-.13-.22l-.33-.53a101.48,101.48,0,0,0-6.26-9.12c-1.12-1.47-2.31-2.87-3.5-4.27-.59-.7-1.2-1.38-1.81-2s-1.27-1.36-1.8-1.9Z"/><path class="cls-11" d="M301.25,194l-7.47-1.22,3.91,6.55s4.8-.17,6.18-3Z"/><polygon class="cls-11" points="288.26 195.84 291.82 201.14 297.69 199.35 293.78 192.81 288.26 195.84"/><path class="cls-3" d="M300.9,364.73a2.15,2.15,0,0,1-1.43-.39,1,1,0,0,1-.29-.95.61.61,0,0,1,.35-.5c.87-.39,3.15,1.08,3.41,1.25a.18.18,0,0,1,.07.18.17.17,0,0,1-.13.14A9.47,9.47,0,0,1,300.9,364.73Zm-1-1.55a.48.48,0,0,0-.22,0c-.06,0-.13.07-.15.22a.66.66,0,0,0,.18.63c.38.35,1.36.39,2.67.13A6.71,6.71,0,0,0,299.9,363.18Z"/><path class="cls-3" d="M302.84,364.46a.15.15,0,0,1-.09,0c-.71-.41-2.08-2-1.91-2.87a.62.62,0,0,1,.6-.49.91.91,0,0,1,.75.23c.82.73.83,2.88.83,3a.19.19,0,0,1-.09.15A.15.15,0,0,1,302.84,364.46Zm-1.28-3h-.08c-.22,0-.27.13-.29.21-.1.52.75,1.73,1.46,2.3a4.09,4.09,0,0,0-.69-2.36A.61.61,0,0,0,301.56,361.42Z"/><path class="cls-3" d="M266.81,364.73a2.88,2.88,0,0,1-1.82-.46,1,1,0,0,1-.32-.87.59.59,0,0,1,.3-.47c.93-.51,3.91,1,4.25,1.2a.18.18,0,0,1,.09.18.19.19,0,0,1-.14.15A12.47,12.47,0,0,1,266.81,364.73Zm-1.33-1.55a.83.83,0,0,0-.34.06.22.22,0,0,0-.11.19.64.64,0,0,0,.2.57c.45.41,1.69.48,3.35.21A9.49,9.49,0,0,0,265.48,363.18Z"/><path class="cls-3" d="M269.13,364.46h-.07c-.89-.41-2.66-2-2.52-2.87,0-.2.18-.45.67-.5a1.27,1.27,0,0,1,1,.3c.94.79,1.11,2.81,1.12,2.89a.17.17,0,0,1-.07.16A.2.2,0,0,1,269.13,364.46Zm-1.78-3h-.11c-.32,0-.34.16-.35.2-.08.51,1.12,1.79,2,2.34a4.1,4.1,0,0,0-1-2.31A.89.89,0,0,0,267.35,361.42Z"/><path class="cls-11" d="M281,132.74c-.29,4.52-1.08,13.71,2.39,16.25,0,0-.62,4.63-8.81,5.7-9,1.18-4.89-3.91-4.89-3.91,4.76-1.82,4.16-5.45,2.86-8.76Z"/><path class="cls-16" d="M262.33,124.75a.36.36,0,0,1-.27-.12,2.83,2.83,0,0,0-2.35-1,.35.35,0,0,1-.4-.3.37.37,0,0,1,.3-.41,3.55,3.55,0,0,1,3,1.26.37.37,0,0,1,0,.51A.41.41,0,0,1,262.33,124.75Z"/><path class="cls-17" d="M260.77,129.18a16.3,16.3,0,0,1-1.63,4.11,2.6,2.6,0,0,0,2.18.12Z"/><path class="cls-16" d="M261.17,128.08c.08.6-.17,1.13-.56,1.18s-.78-.39-.86-1,.18-1.13.57-1.18S261.1,127.48,261.17,128.08Z"/><path class="cls-16" d="M260.5,127.1l-1.49-.23S259.89,127.9,260.5,127.1Z"/><polygon class="cls-11" points="277.38 364.29 269.88 364.29 269.38 346.93 276.88 346.93 277.38 364.29"/><polygon class="cls-11" points="311.42 364.29 303.93 364.29 301.52 346.93 309.01 346.93 311.42 364.29"/><path class="cls-16" d="M303.47,363.42h8.41a.59.59,0,0,1,.6.51l1,6.66a1.2,1.2,0,0,1-1.2,1.33c-2.94-.05-4.35-.22-8.05-.22-2.28,0-5.61.24-8.75.24s-3.32-3.11-2-3.4c5.88-1.26,6.8-3,8.78-4.66A2,2,0,0,1,303.47,363.42Z"/><path class="cls-16" d="M269.62,363.42H278a.59.59,0,0,1,.6.51l1,6.66a1.2,1.2,0,0,1-1.2,1.33c-2.94-.05-4.35-.22-8-.22-2.28,0-7,.24-10.14.24s-3.31-3.11-2-3.4c5.87-1.26,8.18-3,10.16-4.66A2,2,0,0,1,269.62,363.42Z"/><polygon class="cls-20" points="269.38 346.94 269.64 355.88 277.14 355.88 276.88 346.94 269.38 346.94"/><polygon class="cls-20" points="309.02 346.94 301.52 346.94 302.76 355.88 310.26 355.88 309.02 346.94"/><path class="cls-11" d="M281.06,123.39c.51,7.42.88,10.55-2.34,14.81-4.85,6.42-14.08,5.42-16.79-1.7-2.45-6.4-2.87-17.46,3.95-21.33A10.15,10.15,0,0,1,281.06,123.39Z"/><path class="cls-16" d="M285.38,130.28c4.16,2.32,7.25-3.41,7.25-3.41s-7.46.81-6.8-3.63c.89-5.88-3.33-13-13.91-12.13-.59,0-1.15.13-1.7.22a5.44,5.44,0,0,0-6.58,1.51c-3,.25-7.05,3.84-4.31,8.56a4.4,4.4,0,0,1,.89-1.46c.22,2.76,2.65,7.16,5.67,7.45.65,3.8-1.87,8.19-1,12.14,1.29,5.71,10.91,7,10.91,7a4.16,4.16,0,0,1,.57-4.4c6.54,3,10.85.07,10.85.07-4.46-1.67-3.11-4.63-3.11-4.63a6.5,6.5,0,0,0,8.49-3.08A7.7,7.7,0,0,1,285.38,130.28Z"/><path class="cls-11" d="M268.5,128.53a5.44,5.44,0,0,1-1.5,3.87c-1.32,1.37-2.94.42-3.38-1.34-.39-1.58-.17-4.19,1.55-4.9A2.44,2.44,0,0,1,268.5,128.53Z"/><path class="cls-16" d="M274.73,197.67s1.9,49.35,6.42,78.34c3.64,23.41,19.81,78.14,19.81,78.14h10.21s-8.42-52.85-10.27-76c-4.68-58.6,7.47-71.18-4-83.38Z"/><path class="cls-22" d="M283.27,213.27s-4.62-.8-7.32,8c1,16.67,2.71,38.79,5.2,54.73.55,3.55,1.39,7.83,2.42,12.52C281.62,260.36,283.27,213.27,283.27,213.27Z"/><path class="cls-16" d="M266.76,198.71s-8.42,54.6-7.93,77.46c.51,23.77,9.22,78,9.22,78h10.13s-1.6-52.82-.71-76.17c1-25.45,11.39-82.16,11.39-82.16Z"/><polygon class="cls-3" points="312.66 354.62 299.07 354.62 298.01 350.06 312.56 350.17 312.66 354.62"/><polygon class="cls-23" points="312.66 354.62 299.07 354.62 298.01 350.06 312.56 350.17 312.66 354.62"/><path class="cls-3" d="M296.39,149c3.9.37,9.85,11.48,9.85,11.48l-9.87,7.58s-8.17-7.17-7.2-11.2C290.18,152.66,292.64,148.64,296.39,149Z"/><path class="cls-24" d="M296.39,149c3.9.37,9.85,11.48,9.85,11.48l-9.87,7.58s-8.17-7.17-7.2-11.2C290.18,152.66,292.64,148.64,296.39,149Z"/><path class="cls-3" d="M293.44,153.77a10.13,10.13,0,0,0-3.06-.34,16.91,16.91,0,0,0-1.21,3.42c-1,4,7.2,11.2,7.2,11.2l.73-.56Z"/><path class="cls-13" d="M293.44,153.77a10.13,10.13,0,0,0-3.06-.34,16.91,16.91,0,0,0-1.21,3.42c-1,4,7.2,11.2,7.2,11.2l.73-.56Z"/><path class="cls-11" d="M263.41,164.44c-2.85,7.22-5.85,14.54-8.24,21.78-.16.45-.3.9-.43,1.35l-.34,1.11a1.8,1.8,0,0,0,0,1,7.52,7.52,0,0,0,2.59,3.1,41.81,41.81,0,0,0,9.69,5.19l-.9,3.69a34.64,34.64,0,0,1-12.08-3.95,12.84,12.84,0,0,1-5.39-5.45,8.41,8.41,0,0,1-.69-4.77c0-.2.06-.39.1-.59l.09-.41.18-.76c.12-.51.24-1,.37-1.51,1-4,2.28-7.79,3.62-11.57s2.77-7.48,4.36-11.19Z"/><path class="cls-3" d="M257.34,154.33S254,156,266.76,198.71l30.18-4c-2.12-12.22-3.12-19.79-.55-45.76a89.42,89.42,0,0,0-13,0,97,97,0,0,0-13.7,1.79C263.84,152.09,257.34,154.33,257.34,154.33Z"/><path class="cls-24" d="M257.34,154.33S254,156,266.76,198.71l30.18-4c-2.12-12.22-3.12-19.79-.55-45.76a89.42,89.42,0,0,0-13,0,97,97,0,0,0-13.7,1.79C263.84,152.09,257.34,154.33,257.34,154.33Z"/><path class="cls-3" d="M297.16,192.93l1.71,2.52c.13.2-.09.45-.44.49l-31.64,4.14c-.28,0-.52-.07-.56-.23l-.62-2.67c-.05-.19.17-.37.47-.41l30.55-4A.56.56,0,0,1,297.16,192.93Z"/><path class="cls-23" d="M297.16,192.93l1.71,2.52c.13.2-.09.45-.44.49l-31.64,4.14c-.28,0-.52-.07-.56-.23l-.62-2.67c-.05-.19.17-.37.47-.41l30.55-4A.56.56,0,0,1,297.16,192.93Z"/><path class="cls-16" d="M293.5,196.88l.82-.1c.16,0,.27-.12.25-.23l-.84-3.45c0-.11-.18-.17-.35-.15l-.81.11c-.17,0-.28.12-.26.22l.85,3.46C293.18,196.84,293.34,196.91,293.5,196.88Z"/><path class="cls-16" d="M273.66,199.48l.82-.11c.16,0,.28-.12.25-.22l-.84-3.46a.29.29,0,0,0-.34-.14l-.82.1c-.17,0-.28.12-.25.23l.84,3.45C273.34,199.44,273.5,199.5,273.66,199.48Z"/><path class="cls-3" d="M258.75,168.8c.83,3.86,2,8.75,3.71,14.94l.37-15.69Z"/><path class="cls-13" d="M258.75,168.8c.83,3.86,2,8.75,3.71,14.94l.37-15.69Z"/><path class="cls-3" d="M257.34,154.33c-3.75,1.5-7,14.34-7,14.34l12.89,6.27s6.24-15.69,3.45-18.75S261.66,152.59,257.34,154.33Z"/><path class="cls-24" d="M257.34,154.33c-3.75,1.5-7,14.34-7,14.34l12.89,6.27s6.24-15.69,3.45-18.75S261.66,152.59,257.34,154.33Z"/><polygon class="cls-3" points="279.91 354.62 266.32 354.62 265.26 350.06 280.39 350.17 279.91 354.62"/><polygon class="cls-23" points="279.91 354.62 266.32 354.62 265.26 350.06 280.39 350.17 279.91 354.62"/><path class="cls-11" d="M266.89,196.72l-1.09-.45a1.64,1.64,0,0,0-2.24,1.76l.79,5.21a1.78,1.78,0,0,0,2.36,1.42,3.79,3.79,0,0,0,1.1-.61,3,3,0,0,0,1.08-2.48l-.11-2.16A3.06,3.06,0,0,0,266.89,196.72Z"/></g></g></svg>