<?xml version="1.0" encoding="utf-8"?>
<!-- Generator: Adobe Illustrator 24.2.3, SVG Export Plug-In . SVG Version: 6.00 Build 0)  -->
<svg  version="1.1" id="Layer_1" xmlns="http://www.w3.org/2000/svg" xmlns:xlink="http://www.w3.org/1999/xlink" x="0px" y="0px"
	 viewBox="0 0 2089 2000" style="enable-background:new 0 0 2089 2000;" xml:space="preserve">
<style type="text/css">
	.st0{fill:#3C8F7C;}
	.st1{fill:#50BFA5;}
	.st2{fill:#9BC1F9;}
	.st3{fill:#13375B;}
	.st4{fill:#E0F3FC;}
	.st5{opacity:0.6;fill:#FFFFFF;}
	.st6{opacity:0.2;fill:#3CB4C5;}
	.st7{opacity:0.5;fill:#CAE1F9;}
	.st8{fill:#CAE1F9;}
	.st9{opacity:0.2;fill:#9BC1F9;}
	.st10{fill:#86B1F2;}
	.st11{fill:#466EB6;}
	.st12{fill:#FAE0B2;}
	.st13{fill:#DAEEF7;}
	.st14{fill:#F47458;}
	.st15{fill:#B75742;}
	.st16{fill:#FF8B85;}
	.st17{fill:#FFFFFF;}
	.st18{font-family: "Yeon Sung", cursive;
}
	.st19{font-size:245.8218px;}
	.st20{fill:#F7CC7F;}
	.st21{fill:#F7A491;}
	.st22{fill:#355389;}
	.st23{fill:#96D9C9;}
	.st24{fill:#0E2E35;}
	.st25{fill:#F48C7F;}
	.st26{opacity:0.6;fill:#C5DDF9;}
	.st27{fill:#184655;}
	.st28{opacity:0.5;fill:#50BFA5;}
	.st29{fill:#F8A492;}
</style>
<g>
	<g>
		<g>
			<g>
				<path class="st0" d="M1479.3,1993.9c0,0,207.1-109.3,241-162.8c33.8-53.5-20-54-20-54s90.2-91.9,75-128.1
					c-15.2-36.2-62.6-0.1-62.6-0.1s54.3-131.6,24.9-143.2c-54.7-21.6-122.6,120.4-122.6,120.4s13-60.9-23.7-57.3
					c-55.4,5.5-46.1,141.6-46.1,141.6s-9-51.9-41.6-33.4C1445,1710.2,1479.3,1993.9,1479.3,1993.9z"/>
			</g>
			<path class="st1" d="M1490.4,1656.5c25.4-15,53.6,24.1,53.6,24.1s-8.1-106.2,47.3-111.7c36.7-3.7,23.7,57.3,23.7,57.3
				s67.9-142,122.6-120.4l-258.6,486C1475.2,1958.8,1440,1686.2,1490.4,1656.5z"/>
		</g>
		<g>
			<g>
				<path class="st0" d="M1484.8,1994.9c0,0,174.7,12.4,218.7-7.9c44-20.3,10.6-41.4,10.6-41.4s95.6-22.5,101.6-51
					c6-28.5-38.4-24.1-38.4-24.1s89.6-61.2,76.2-79.8c-24.9-34.6-128,27.8-128,27.8s34.2-33,9.7-44.9
					c-36.9-17.9-89.3,70.5-89.3,70.5s2.4-21.3-25.8-22.3C1569.4,1819.9,1484.8,1994.9,1484.8,1994.9z"/>
			</g>
			<path class="st1" d="M1618.2,1806.4c28.3,1,27.8,37.7,27.8,37.7s52.6-104.4,89.5-86.5c24.5,11.9-1.5,55.9-1.5,55.9
				s94.7-57.4,119.6-22.8L1484.2,1994C1496,1972,1570.8,1804.7,1618.2,1806.4z"/>
		</g>
	</g>
	<g>
		<g>
			<g>
				<path class="st0" d="M790.3,667.2c0,0-210.8-98.7-247-150.2c-36.2-51.5,17-54.4,17-54.4s-94.1-86.9-80.8-123.4
					c13.2-36.6,62-3,62-3s-60.5-127.8-32-140.7c53.1-23.9,127.6,113.6,127.6,113.6s-16-59.8,20.6-57.8
					c55.2,2.9,52.9,138.1,52.9,138.1s6.2-51.8,39.5-35C809.7,384.6,790.3,667.2,790.3,667.2z"/>
			</g>
			<path class="st1" d="M762,333.5c-26-13.7-51.8,26.3-51.8,26.3s2.6-105.6-52.5-108.5c-36.6-1.9-20.6,57.8-20.6,57.8
				s-74.5-137.6-127.6-113.6L790.6,665C792.5,632.2,813.5,360.6,762,333.5z"/>
		</g>
		<g>
			<g>
				<path class="st0" d="M784.9,668.4c0,0-172.4,20.3-217,2.2c-44.6-18.1-12.6-40.5-12.6-40.5s-95.8-17.9-103.2-45.8
					c-7.4-27.9,36.8-25.7,36.8-25.7s-91.9-56.5-79.6-75.5c22.9-35.4,128.2,21.6,128.2,21.6s-35.6-31.1-11.9-44
					c35.7-19.5,92.1,65.7,92.1,65.7s-3.5-21,24.4-23.3C692.1,499,784.9,668.4,784.9,668.4z"/>
			</g>
			<path class="st1" d="M643.1,487.9c-27.9,2.3-25.6,38.6-25.6,38.6s-57.4-101-93.1-81.5c-23.6,12.9,4.3,55.3,4.3,55.3
				s-96.7-52.5-119.6-17.1l376.2,184.4C772.6,646.3,690,484,643.1,487.9z"/>
		</g>
	</g>
	<path class="st2" d="M1314,331.1l-31.3,66.8c0.3,3.8,3.6,5.5,11.9,9.9c14.9,7.8,29.7,15.5,44.3,23.8c2.3,1.3,4.2,5.2,4.2,7.8
		c-0.3,15.8-1.6,31.5-1.7,47.3c0,4.9-0.9,7.4-5.8,9.6c-19.6,8.7-39,17.9-58.3,26.8c2,18.7,19,62.1,29.5,74.9
		c19.9-5.3,40.3-10.4,60.4-16.2c6.3-1.8,9.2-1,13.6,4.1c10.1,11.8,21.3,22.8,32.8,33.4c4.6,4.3,7,7.6,4.4,14
		c-6.6,16.8-12.1,34-18.4,50.9c-1.7,4.5-1.1,7.6,3.5,9.6c22,9.5,44,18.9,65.9,28.4c5.4,2.3,6.9-2,8.7-4.9
		c9.2-15.1,18.5-30.1,27.2-45.4c3.3-5.8,6.8-7.4,13.8-6.7c18.4,1.7,36.9,2.2,56.8,3.2c9.4,18.2,19.8,38.3,30.5,59
		c27.7-5.2,53.3-14.8,78.1-28.6c-6.2-21.6-12.5-43.1-18-62.1c15.7-14.7,30.6-28,44.7-42.1c4.1-4.1,6.9-4.5,11.9-2.8
		c17.5,5.9,35.3,11.3,52.9,17.2c3.8,1.3,6.6,1.7,9.2-2.1c12.8-19.3,23.8-39.3,30.1-61.5c1.4-4.9-0.2-7.2-4.4-9.4
		c-16.7-9-33.1-18.3-49.9-27.3c-4-2.2-5.6-4.1-5.3-9.1c0.9-17.3,1.1-34.7,0.8-52c-0.1-4.4,1.6-5.9,5.1-7.6
		c19.4-9.1,38.8-18.3,58.7-27.7c-6-25.9-14.8-50.4-29-73.7c-23.2,6.1-46.2,12.1-68.2,17.8c-15.8-16-31-31.5-47.4-48.1
		c5.3-14.9,11.5-32.1,17.4-49.4c4.8-14.2,6.8-12-7.8-20c-1.4-0.8-2.5-2-3.7-3c-13.2-5.6-26.4-11.1-39.6-16.7c-3.2-0.7-6.6-1-9.5-2.3
		c-7.5-3.3-12.2-2.1-16.4,5.5c-8.7,15.9-18.5,31.2-28.3,46.6c-1.3,2-4.8,3.8-7.3,3.8c-16.3,0-32.7-1.3-49-0.5c-8,0.4-11-2-14-8.2
		c-8.7-17.6-18.2-35-28.3-54.1c-26.3,9.3-51.9,18.4-77.8,27.6c1.3,4.8,2,7.6,2.8,10.4c4.9,17,9.7,34.1,15,51.1
		c1.5,4.8,0.1,7.3-3.7,10.6c-13,11.4-25.2,23.6-38.2,35.1c-2,1.8-6.5,2.7-9.2,1.9c-14.6-4.3-28.9-9.3-43.5-13.8
		C1322.6,329.2,1318.3,327.8,1314,331.1z M1436.2,420.7c27.9-59.7,101.5-86.6,164.4-60.1l0,0c62.9,26.5,91.2,96.4,63.3,156.1l0,0
		c-27.9,59.7-101.5,86.6-164.4,60.1l0,0C1436.5,550.3,1408.2,480.4,1436.2,420.7L1436.2,420.7z"/>
	<g>
		<path class="st3" d="M1507.5,449.4L1507.5,449.4c-0.1,0-0.1,0-0.2-0.1c-1.9-0.7-3.9-1.2-5.8-1.8c-0.7-0.2-1.3-0.4-2-0.5
			c-0.7-0.2-1.4-0.3-2.1-0.5c-0.7-0.2-1.5-0.3-2.2-0.5c-0.7-0.1-1.4-0.3-2.1-0.4c-0.8-0.1-1.6-0.3-2.4-0.4c-0.7-0.1-1.3-0.2-2-0.3
			c-0.9-0.1-1.7-0.2-2.6-0.3c-0.6-0.1-1.2-0.1-1.9-0.2c-1-0.1-2-0.2-3-0.2c-0.5,0-1-0.1-1.6-0.1c-1.5-0.1-3.1-0.1-4.6-0.1H768.7
			c-1.6,0-3.3,0-4.9,0.1c-3.2,0.2-6.5,0.5-9.6,0.9c-1.6,0.2-3.1,0.5-4.7,0.8c-40.3,7.8-71.3,39.8-75.6,79.4c-0.3,3-0.5,6.1-0.5,9.2
			v1116.2v254.7c0,39.1,26.2,72.5,62.8,85.1v0c0.2,0.1,0.3,0.1,0.5,0.2c1.8,0.6,3.7,1.2,5.5,1.7c0.7,0.2,1.3,0.4,2,0.5
			c0.7,0.2,1.4,0.3,2.1,0.5c0.7,0.2,1.5,0.3,2.2,0.5c0.7,0.1,1.4,0.3,2.1,0.4c0.8,0.1,1.6,0.3,2.4,0.4c0.7,0.1,1.3,0.2,2,0.3
			c0.9,0.1,1.7,0.2,2.6,0.3c0.6,0.1,1.2,0.1,1.9,0.2c1,0.1,2,0.2,3,0.2c0.5,0,1,0.1,1.6,0.1c1.5,0.1,3.1,0.1,4.6,0.1h706.4
			c3.3,0,6.5-0.2,9.7-0.5c44.8-4.3,80.5-38.2,85-80.7c0.3-3,0.5-6.1,0.5-9.2V789.1V534.4C1570.3,495.3,1544.1,462,1507.5,449.4z"/>
		<rect x="709.7" y="559.6" class="st4" width="804.5" height="1305.2"/>
		<path class="st5" d="M1228,518.6H997.2c-2.7,0-4.9-2.2-4.9-4.9v-6.5c0-2.7,2.2-4.9,4.9-4.9H1228c2.7,0,4.9,2.2,4.9,4.9v6.5
			C1233,516.4,1230.8,518.6,1228,518.6z"/>
		<rect x="709.7" y="1810" class="st6" width="804.5" height="54.8"/>
		<rect x="709.7" y="559.6" class="st6" width="804.5" height="69.3"/>
	</g>
	<rect x="1162.8" y="691.1" class="st7" width="294.4" height="447.7"/>
	<rect x="1162.8" y="1246.3" class="st7" width="294.4" height="514.4"/>
	<rect x="768" y="691.1" class="st7" width="294.4" height="447.7"/>
	<rect x="768" y="1246.3" class="st7" width="294.4" height="514.4"/>
	<path class="st8" d="M1002,275.6l20.1,36.1c1.9,1.2,3.8,0.4,8.7-1.6c8.7-3.5,17.5-7,26.3-10.3c1.4-0.5,3.9,0,5.1,1
		c7.2,5.6,14,11.6,21.3,17c2.2,1.7,3.1,2.9,2.4,5.7c-2.8,11.2-5.2,22.5-7.8,33.6c9.3,5.6,35.3,13.5,44.9,13.6
		c4.4-10.1,9.1-20.4,13.4-30.8c1.3-3.2,2.7-4.2,6.6-4.3c9-0.1,17.9-1.1,26.8-2.1c3.6-0.4,5.9-0.3,8,3c5.5,8.6,11.5,16.8,17.2,25.3
		c1.5,2.3,3.1,3.1,5.7,1.8c12-5.9,24-11.8,35.9-17.7c2.9-1.5,1.5-3.5,0.7-5.3c-3.8-9.1-7.5-18.1-11.6-27.1c-1.5-3.4-1.1-5.4,1.6-8.1
		c7.1-7.1,13.8-14.7,21.1-22.6c11.7,2.4,24.6,5,37.9,7.6c7.2-13.3,11.6-27.4,13.8-42.5c-12.1-4.8-24.3-9.7-35-14
		c-1.4-11.7-2.4-22.5-4-33.2c-0.5-3.1,0.3-4.4,2.8-5.9c8.8-5.3,17.5-10.8,26.2-16.2c1.9-1.2,3.1-2.2,2.2-4.6
		c-4.5-12-10-23.5-18.1-33.8c-1.8-2.3-3.4-2.4-5.9-1.4c-9.9,3.8-19.9,7.5-29.9,11.4c-2.4,0.9-3.8,0.9-6.1-0.9
		c-7.7-6.4-15.7-12.4-23.8-18.3c-2.1-1.5-2.2-2.7-1.7-4.7c2.5-11.3,5-22.5,7.5-34.1c-14.1-6.5-28.5-11.2-44.1-13.3
		c-5.2,11.8-10.4,23.4-15.3,34.6c-12.9,1.1-25.3,2.1-38.6,3.2c-5.1-7.4-10.9-15.9-16.9-24.3c-4.9-6.9-3.2-7-11.9-3.7
		c-0.8,0.3-1.8,0.3-2.7,0.5c-7.2,3.6-14.3,7.2-21.5,10.8c-1.4,1.1-2.7,2.4-4.3,3.2c-4.1,2-5.2,4.4-3.1,8.7
		c4.3,9.1,8.1,18.6,11.8,27.9c0.5,1.2,0.1,3.3-0.8,4.4c-5.6,6.8-11.9,13.2-17.2,20.3c-2.6,3.5-4.7,3.9-8.7,3
		c-11.2-2.5-22.5-4.5-34.9-6.9c-4.8,14.2-9.4,28.1-14.1,42.1c2.7,1.1,4.2,1.8,5.8,2.4c9.6,3.8,19.2,7.7,28.8,11.4
		c2.7,1,3.4,2.5,3.6,5.2c0.8,9.4,2.2,18.7,3.1,28.1c0.1,1.5-1,3.6-2.3,4.5c-7,4.6-14.3,8.9-21.4,13.4
		C1004.1,271.3,1002,272.6,1002,275.6z M1085.8,255.5c-18-32.3-5-72.4,29-89.4l0,0c34-17.1,76.2-4.8,94.2,27.5l0,0
		c18,32.3,5,72.4-29,89.4l0,0C1145.9,300.1,1103.8,287.8,1085.8,255.5L1085.8,255.5z"/>
	<path class="st9" d="M1306.5,106.3l10.9,19.5c1,0.6,2.1,0.2,4.7-0.9c4.7-1.9,9.4-3.8,14.2-5.5c0.8-0.3,2.1,0,2.7,0.5
		c3.9,3,7.6,6.2,11.5,9.2c1.2,0.9,1.7,1.6,1.3,3.1c-1.5,6.1-2.8,12.2-4.2,18.2c5.1,3,19.1,7.3,24.3,7.3c2.4-5.5,4.9-11,7.2-16.7
		c0.7-1.8,1.5-2.3,3.6-2.3c4.8-0.1,9.7-0.6,14.5-1.2c1.9-0.2,3.2-0.2,4.3,1.6c3,4.6,6.2,9.1,9.3,13.7c0.8,1.2,1.7,1.7,3.1,1
		c6.5-3.2,12.9-6.4,19.4-9.6c1.6-0.8,0.8-1.9,0.4-2.9c-2-4.9-4.1-9.8-6.3-14.6c-0.8-1.8-0.6-2.9,0.9-4.4c3.9-3.8,7.4-7.9,11.4-12.2
		c6.3,1.3,13.3,2.7,20.5,4.1c3.9-7.2,6.2-14.8,7.4-23c-6.6-2.6-13.1-5.2-18.9-7.5c-0.7-6.3-1.3-12.2-2.2-18
		c-0.3-1.7,0.2-2.4,1.5-3.2c4.8-2.9,9.4-5.8,14.2-8.7c1-0.6,1.7-1.2,1.2-2.5c-2.4-6.5-5.4-12.7-9.8-18.3c-1-1.2-1.8-1.3-3.2-0.8
		c-5.4,2.1-10.8,4.1-16.1,6.2c-1.3,0.5-2.1,0.5-3.3-0.5c-4.2-3.4-8.5-6.7-12.9-9.9c-1.1-0.8-1.2-1.5-0.9-2.6
		c1.4-6.1,2.7-12.2,4-18.4c-7.6-3.5-15.4-6.1-23.9-7.2c-2.8,6.4-5.6,12.7-8.3,18.7c-7,0.6-13.7,1.1-20.9,1.7
		c-2.8-4-5.9-8.6-9.1-13.2c-2.6-3.7-1.7-3.8-6.4-2c-0.4,0.2-1,0.2-1.4,0.3c-3.9,1.9-7.7,3.9-11.6,5.8c-0.8,0.6-1.5,1.3-2.3,1.7
		c-2.2,1.1-2.8,2.4-1.7,4.7c2.3,4.9,4.4,10,6.4,15.1c0.3,0.7,0.1,1.8-0.4,2.4c-3.1,3.7-6.4,7.1-9.3,11c-1.4,1.9-2.6,2.1-4.7,1.6
		c-6-1.3-12.2-2.4-18.8-3.7c-2.6,7.7-5.1,15.2-7.6,22.7c1.5,0.6,2.3,1,3.1,1.3c5.2,2.1,10.4,4.2,15.6,6.2c1.5,0.6,1.8,1.3,2,2.8
		c0.4,5.1,1.2,10.1,1.7,15.2c0.1,0.8-0.5,2-1.2,2.4c-3.8,2.5-7.7,4.8-11.6,7.2C1307.6,104,1306.5,104.7,1306.5,106.3z M1351.7,95.4
		c-9.7-17.5-2.7-39.1,15.7-48.3l0,0c18.4-9.2,41.2-2.6,50.9,14.9l0,0c9.7,17.5,2.7,39.1-15.7,48.3l0,0
		C1384.3,119.6,1361.5,112.9,1351.7,95.4L1351.7,95.4z"/>
	<g>
		<path class="st10" d="M863,1560.1h25.8c-4.2-2.7-9.5-4.4-15.2-4.4H227.8c-33.8,0-61.2,23.1-61.2,51.5v32.7
			c0,28.4,27.4,51.5,61.2,51.5l638.6-0.2L863,1560.1z"/>
		<path class="st11" d="M496.4,1555.9c-32.3,0-58.5,22-58.5,49.2v37c0,27.2,26.2,49.2,58.5,49.2h402v-8.3h-1.7l-102.2-8.1
			l-20.7-68.2c0,0,39.9-37.7,42.5-38.7c2.6-1,80.4-3.9,80.4-3.9l1.7,0v-8.2H496.4z"/>
		<path class="st12" d="M872.4,1623.4c0-39.9,24.5-59.2,24.5-59.2H504.6c-29.7,0-53.7,20.3-53.7,45.2v28.5c0,25,24.1,45.2,53.7,45.2
			h392.2C896.8,1683.1,872.4,1673.6,872.4,1623.4z"/>
		<path class="st13" d="M450.9,1609.4v28.5c0,3.7,0.6,7.4,1.6,10.8c13.2-27.2,38.6-53.5,86.8-61.9c112.7-19.7,357.5-22.6,357.5-22.6
			H504.6C475,1564.1,450.9,1584.4,450.9,1609.4z"/>
		<path class="st1" d="M852.4,1831.4h29.2c-4.8-3.4-10.7-5.5-17.2-5.5H133.4c-38.2,0-69.2,28.9-69.2,64.5v40.9
			c0,35.6,31,64.5,69.2,64.5l722.8-0.2L852.4,1831.4z"/>
		<path class="st0" d="M437.4,1826c-36.6,0-66.2,27.6-66.2,61.6v46.3c0,34,29.6,61.6,66.2,61.6h455v-10.4h-1.9l-115.7-10.2
			l-23.4-85.4c0,0,45.1-47.2,48.1-48.4c2.9-1.2,91-4.9,91-4.9l1.9,0V1826H437.4z"/>
		<path class="st12" d="M862.9,1910.5c0-49.9,27.7-74.1,27.7-74.1H446.8c-33.6,0-60.8,25.4-60.8,56.6v35.6
			c0,31.3,27.2,56.6,60.8,56.6h443.9C890.7,1985.3,862.9,1973.4,862.9,1910.5z"/>
		<path class="st13" d="M385.9,1893v35.6c0,4.7,0.6,9.2,1.8,13.6c15-34.1,43.7-66.9,98.3-77.5c127.5-24.7,404.7-28.3,404.7-28.3
			H446.8C413.2,1836.4,385.9,1861.7,385.9,1893z"/>
		<path class="st14" d="M40.1,1695.5H10.9c4.8-2.7,10.7-4.3,17.2-4.3h731.2c38.3,0,69.3,22.9,69.3,51.2v32.5
			c0,28.3-31,51.2-69.3,51.2l-723-0.2L40.1,1695.5z"/>
		<path class="st15" d="M455.2,1691.2c36.6,0,66.2,21.9,66.2,48.9v36.7c0,27-29.7,48.9-66.2,48.9H0v-8.2h1.9l115.7-8.1l23.4-67.8
			c0,0-45.1-37.4-48.1-38.4c-2.9-1-91-3.9-91-3.9l-1.9,0v-8.2H455.2z"/>
		<path class="st12" d="M29.5,1758.3c0-39.6-27.7-58.8-27.7-58.8h444.1c33.6,0,60.8,20.1,60.8,44.9v28.3c0,24.8-27.2,44.9-60.8,44.9
			H1.8C1.8,1817.6,29.5,1808.1,29.5,1758.3z"/>
		<path class="st13" d="M506.7,1744.4v28.3c0,3.7-0.6,7.3-1.8,10.8c-15-27.1-43.7-53.1-98.3-61.5C279,1702.3,1.8,1699.4,1.8,1699.4
			h444.1C479.5,1699.4,506.7,1719.6,506.7,1744.4z"/>
	</g>
	<path class="st16" d="M1068.9,583.1H439.4c-27.9,0-50.4,21.4-50.4,47.9V947c0,26.5,22.6,47.9,50.4,47.9h458
		c25.7,34.1,72.3,95,76.4,95c3.9,0-3.6-57.6-8.8-95h103.9c27.9,0,50.4-21.4,50.4-47.9V631C1119.4,604.5,1096.8,583.1,1068.9,583.1z"
		/>
	<path class="st14" d="M1198.5,1048.8h835.2c28.9,0,52.2,22.2,52.2,49.6v327.3c0,27.4-23.4,49.6-52.2,49.6h-657.6
		c-26.6,35.3-74.9,98.4-79.1,98.4c-4,0,3.7-59.7,9.1-98.4h-107.6c-28.9,0-52.2-22.2-52.2-49.6v-327.3
		C1146.3,1071,1169.7,1048.8,1198.5,1048.8z"/>
	<text transform="matrix(0.656 0 0 1 1256.3096 1335.6572)" class="st17 st18 st19">BONJOUR</text>
	<g>
		<path class="st20" d="M356.9,1250.4c6.9-15.8,13.9-31.5,31.8-39.5c14.5-6.5,29.6-4,42.5,5.2c36.4,26,4.7,54.7,46.2,104
			c12.9,15.3,28.5,27.7,36.2,45.7c10.8,25.1-2.1,37.2-22.7,49.3c-98.7,57.6-150.5-60.7-148.6-87.8
			C343.6,1307.1,352.5,1260.5,356.9,1250.4z"/>
		<path class="st21" d="M254.5,1557.1c4.2-0.6,14.3-7.5,17.8-8.1c2.8-0.5,8.7-1.3,11.3-1.7c3.1-11.1,19-71.4,20.8-89.1
			c1.9-19.2,16.2-102.1,16.2-102.1l37,6.4c0,0-15.4,63.8-19.6,94.7c-3.6,26.6-34.3,86.3-38.2,92.6c0,0.2,0,0.3,0,0.5
			c-0.6,9.4-5.4,6.3-5.4,6.3l-7.7,1.9c0,0-27.4,2.5-29.1,3.1C255.7,1562.1,250.3,1557.7,254.5,1557.1z"/>
		<path class="st15" d="M352.8,1307.5c-26.1,8.4-41,75.9-41,75.9s41,10.9,51.5,5.2c0,0,11.9-50.2,16.2-48.4L352.8,1307.5z"/>
		<path class="st21" d="M150.6,1673.6c-8,20-12.1,39.3-12.5,41.6c-0.2,1.1,1.5,6.6,1.3,7.7c-16.1,20.8-39.1,25.3-58.9,26.7
			c10.1-9.3,24.9-18.2,25.6-21.2c1.1-4.7,7.2-25.7,10.2-54.7C128.7,1679.2,137,1674.9,150.6,1673.6z"/>
		<path class="st3" d="M378.1,1449.6l35.3,94.5c0,0-56.8,10.1-78,13.8c-21.2,3.7-139.8,8.6-142.8,10.6
			c-2.2,1.5-26.7,76.7-37.7,118.2c-12.4,2.6-33.7-0.5-45-4.2c6.1-59.3,28.2-153.3,35.2-163.6
			C156.8,1502.2,378.1,1449.6,378.1,1449.6z"/>
		<path class="st21" d="M240.1,1715c-3.9,21.1-4.2,40.8-4.1,43.1c0,1.1,2.8,6.2,2.8,7.4c-11.7,23.3-33.4,31.9-52.6,36.7
			c8.1-11,20.8-22.3,21-25.3c0.2-4.8,2-26.5-0.8-55.6C219.6,1724.4,227,1718.7,240.1,1715z"/>
		<path class="st22" d="M419.3,1454.5l13.7,22.2c20.9,33.8,4.9,77.3-33.6,91.5c-0.2,0.1-0.4,0.2-0.6,0.2
			c-20.1,7.4-135.6,33.3-138.1,35.8c-1.9,1.9-11.1,80.1-13.7,122.8c-11.7,4.8-33.2,5.5-45,3.9c-5.7-59.4-2.6-155.6,2.3-167
			C212.3,1545.5,419.3,1454.5,419.3,1454.5z"/>
		<path class="st3" d="M234.3,1758.8c3.1-3.2,14.4,14.5,17.2,18.3c3.2,4.3,2.3,7.5,1.9,8.1c-1,1.8-60.5,35-75,37.4
			c-1.4,0.2-3.7-0.6-4.3-1.1c-5.7-4.8,20.4-40,32.2-44.6C213.7,1773.9,220.4,1773.3,234.3,1758.8z"/>
		<path class="st3" d="M136.2,1715.9c3.7-2.6,11.2,16.8,13.3,21c2.3,4.7,0.8,7.7,0.3,8.3c-1.3,1.5-66.4,23.6-81.1,23.4
			c-1.4,0-3.6-1.3-4.1-1.9c-4.6-5.7,28-35.6,40.4-38.1C113,1727.1,119.8,1727.7,136.2,1715.9z"/>
		<path class="st14" d="M377.6,1307.3L377.6,1307.3L377.6,1307.3c-0.7,0-1.6-0.2-2.6-0.5c-4.9-0.8-15.5-2-23.7,1.3
			c-10,4-25.6,41.6-24.7,80.2c0.4,5.9,0.7,11.2,1.1,14.9c2.5,29.1,11.3,83.8,11.8,84.1c12,7.3,84.2-21.1,89.2-27.3
			c5-6.2,7.9-82,10.3-85.8l4.7-65.9C435.3,1305.9,390.4,1307.2,377.6,1307.3z"/>
		<path class="st21" d="M406.9,1283c0,0-4.7,22.9-3.7,31.9c0.9,9-3.5,38.1-23.6,38.2c-20.1,0.1-3.8-36.9-1.9-45.8
			c1.9-8.8,2.3-36.2,2.3-36.2L406.9,1283z"/>
		<path class="st14" d="M379.5,1284.8c0.3-7.5,0.4-13.7,0.4-13.7l26.9,11.9c0,0-1,4.7-1.9,10.6
			C393.2,1295.9,384.6,1291.8,379.5,1284.8z"/>
		<path class="st21" d="M416.7,1220c0,0,10.4,5.5,14.2,17.3c3.8,11.9-0.5,42.5-27.3,49.8c-26.8,7.4-38.4-16.8-32.9-35.8
			C376.1,1232.4,388.2,1208.4,416.7,1220z"/>
		<path class="st21" d="M367.3,1244c0.5,5.1,3.5,9,6.6,8.7c3.1-0.3,5.2-4.7,4.7-9.7c-0.5-5.1-3.5-9-6.6-8.7
			C368.8,1234.6,366.7,1238.9,367.3,1244z"/>
		<path class="st20" d="M413.6,1218.4c0,0,4.9,34.1,16.5,40.3c11.6,6.2,6.8,21.3,6.8,21.3s10.5-35.2,1.4-46.4
			C429,1222.3,413.6,1218.4,413.6,1218.4z"/>
		<path class="st21" d="M423.2,1263.6c-3.2,4.4-3.1,9.7,0,11.7c3.2,2,8.3,0.1,11.4-4.4c3.2-4.4,3.1-9.7,0-11.7
			C431.4,1257.2,426.3,1259.2,423.2,1263.6z"/>
		<path class="st17" d="M384.1,1265.5l18.9,4.5c0,0-2.3,6.8-10.6,5.1C382.1,1272.9,384.1,1265.5,384.1,1265.5z"/>
		<path class="st21" d="M561.3,1550.2c-0.3-0.8-1.1-0.8-1.9-0.9c-7.5-0.2-15-0.5-22.4-1.6c-1.2-0.2-2.5-0.4-3.6-0.9
			c-2.1-0.8-4.1-0.8-6.2-0.2c-1.1,0.3-2.3,0.4-3.4,0.3c-3.8,0-14.5-3.5-20-4.4c-1.3-0.2-2.3-1.1-2.6-2.3
			c-5.4-20.4-17.1-66.1-18.6-81.1c-1.9-19.2-15.9-105.9-15.9-105.9l-37.4,9.9c0,0,15.4,64,19.6,95c3.3,23.9,28.5,74.8,36.4,89.4
			c3.9,10.9,12.5,11.2,14.5,11.4c1.2,0.1,2.2,0.7,3,1.5c1.4,1.5,2.9,2.8,4.7,3.9c1.3,0.8,2.3,1.8,3.2,3c1.6,2.2,3,4.5,4.4,6.8
			c0.9,1.5,1.9,2,3.3,1.7c1.5-0.4,2.2-1.4,2.2-3.1c0-2.5-0.9-4.8-2.2-7c-1.3-2-1.2-3.2,0.3-5.1c0.8-1.1,1.7-2.1,2.8-3
			c1.1-0.9,2.3-1.5,3.8-1.3c2.7,0.6,5.4,1.2,8.2,1.4l2.3,0.4c0.1,0,1.2,0.2,1.2,0.2c0.2,0,4.2,0.5,5.5,0.5c1.1,0,2.9,0.1,4.4,0.1
			c1.4,0.1,4.2-0.6,4.3-0.6c1.3,0,2.5-0.5,3.5-1.3c0.4-0.3,0.8-0.7,0.6-1.3c-0.2-0.5-0.6-0.8-1.2-0.9c-0.9-0.2-5.5-0.7-5.5-0.9
			c1.4,0,5.7-0.1,7.1-0.1c1.9,0,3.5-0.7,4.7-2C561,1551.6,561.6,1551.1,561.3,1550.2z"/>
		<path class="st14" d="M444.2,1308.2c18.5-3.2,33.7,75.2,33.7,75.2s-41,10.9-51.5,5.2c0,0-11.9-50.2-16.2-48.4L444.2,1308.2z"/>
	</g>
	<g>
		<path class="st1" d="M1849.8,814.1c1.8,0.1,6.6,1.6,13.7,14.3c9.1,16.3,22.3,65.4,22.3,65.4l-39.5,14l-5.1-10.2l-8.4-78.9
			C1832.8,818.6,1849.3,814,1849.8,814.1z"/>
		<path class="st23" d="M1797.5,807c11.3,0,39.3,3.1,52.2,7.1c0,0,9.5,77.8-8.6,136.9c-4.1,13.2,3.4,54.9,3.4,54.9l-117.1-1.5
			c0,0,13.9-100.6,8.6-116.9c-5.2-16.3-5.3-72.9-5.3-72.9s0.8-0.1,26.3-4.3C1768.9,808.3,1785.5,807,1797.5,807z"/>
		<path class="st21" d="M1783.9,1150.2c0,0,2.6,28.4,7.4,36.3c4.8,7.9-0.2,21.2-0.5,23.1c-0.3,1.8-10,4.5-25.6,2.9
			c-15.5-1.6-15.3-5-14-10.5c1.3-5.5,9.5-12.6,10-17.8c0.5-5.2-4.8-24.1-4.8-24.1L1783.9,1150.2z"/>
		<path class="st3" d="M1831.3,982.4c0,0,80.8-4.3,98.9,6.1c18,10.4-12.8,61.3-12.8,61.3s-56.2-2.5-166.4,3.6
			c-26.1,1.4-28.3-64.6-23.5-70.1C1732.4,977.9,1831.3,982.4,1831.3,982.4z"/>
		<path class="st23" d="M1763.2,1214.6c-16-1.6-14-9.1-12.7-14.8c0.8-3.5,5.4-7.7,8.1-11.7c1.4,1.1,3.8,3,10.7,4.9
			c7.2,2,17.1-2,23.4-4.5c2.2,7.9,2.3,18.1,2.1,19.6C1794.6,1210.2,1779.2,1216.3,1763.2,1214.6z"/>
		<path class="st22" d="M1772.1,1037.3c3.2,23.2,19.2,138.7,19.2,138.7l-37.1,4.4c0,0-45.6-150.8-43.3-173.8
			c2.3-23.1,19.4-25,19.4-25S1763.5,975.9,1772.1,1037.3z"/>
		<path class="st21" d="M1729.5,823.2c10.9-3.9,16.3,89.8,17.8,128.3c19.4,1.8,53.2,0,61.6-0.6c4-0.3,13.1-3.5,17-3.9
			c4-0.5,7.7-0.8,9.7-0.4c0.7,0.1,20.9,8,22.7,9.7c2.1,2.1,7.9,7.5,7,9.8c-1,2.3-11.1-6.5-11.1-6.5l-5-2.6c6.2,5.7,18,13.3,16.3,16
			c-1.7,2.7-12.3-5-19.9-10.2c6.5,5.6,14.6,15.6,12.7,17.1c-1.7,1.4-10.9-10.2-20.7-13.5c-3.6-1.2-7.3,2.2-10.1,2.6
			c-2.1,0.3-5.4,0.9-7.4,0.4l-10.6-2.9c-3.6,0.3-3.7,2.3-7.4,3.1c-4.2,0.9-11.2,1.8-16.6,3c-31.2,7.2-41.6,10.6-51.1,10.6
			C1705.3,983.2,1703.6,832.4,1729.5,823.2z"/>
		<path class="st1" d="M1708.7,911.2c-2-39.5-1.8-88.2,21.6-96.5c9.2-3.3,25.4,16.4,22.5,97.3C1740.3,912.9,1722,913.7,1708.7,911.2
			z"/>
		<path class="st21" d="M1896.2,1177.8c0,0-5.4,9-1.1,16.5c4.2,7.5,26.3,18.6,28.6,22.7c2.3,4.1,1.4,7,1.4,7l-65.7-15.3l5-18.8
			l6.1-13L1896.2,1177.8z"/>
		<path class="st23" d="M1898.5,1198.3c0,0-18.5,3-25.8-2.5c-7.3-5.5-6.8-6.6-9.5-5.6c-1.7,0.6-4.4,8.1-6,13.4
			c-0.9,2.8,0.9,5.7,3.9,6.4l68.4,16c5.2,0.9,8.6-2.1,5.1-6.1c-2.4-2.7-5.4-4.8-7.1-6.2C1922.4,1209.4,1898.5,1198.3,1898.5,1198.3z
			"/>
		<path class="st22" d="M1889.8,1000.6c5.2-10.4,17.1-24,38-15.8c19.9,7.8,25.3,27,19,46.7c-6.3,19.7-47.7,135.2-49.2,151.1
			l-33.1,0.2c0,0,6-91.5,7.5-113.6C1873.5,1047.8,1880.8,1018.7,1889.8,1000.6z"/>
		<path class="st20" d="M1943.5,894.2h-110.5c-2.9,0-5.6,1.7-6.7,4.3l-34,79.1h-60.9c-1.7,0-3.1,1.3-3.1,2.9l0,0
			c0,1.6,1.4,2.9,3.1,2.9h173.5c4.8,0,9.1-2.7,11-6.8l34.3-72.7C1952.2,899.3,1948.7,894.2,1943.5,894.2z"/>
		<path class="st17" d="M1884,940.3c-0.7,3.6-4,5.9-7.3,5.3c-3.3-0.6-5.3-4-4.6-7.6c0.7-3.6,4-5.9,7.3-5.3
			C1882.7,933.3,1884.7,936.7,1884,940.3z"/>
		<g>
			<path class="st24" d="M1823.8,711.9c-3.3-1.1-6.6-2.3-9.8-3.7c-3.6-1.6-8.2-3.6-11.2-4c-6.2-0.9-16.8-0.3-22.6,5.7
				c-7.3,7.5-20.2,1.4-17.6,40.7c3,44.5,29,39.6,29.7,38.9c0.6-0.8,23.3-28.5,23.3-28.5s7.9,16.4,7.9,15.8
				C1823.4,776.3,1863.8,724.7,1823.8,711.9z"/>
			<path class="st21" d="M1804,792.8l2.3,15.9c0,0,5,22.9-1.4,27.3c-6.5,4.4-27.6-28-27.6-28l2.2-40.3L1804,792.8z"/>
			<path class="st14" d="M1778.7,780.8c5.4,13.8,18.1,22.2,27.2,25.5l-1.9-13.5l-24.6-25.1L1778.7,780.8z"/>
			<path class="st21" d="M1802.7,723.9c13.7-2.1,26.1,8.4,25.7,21.5c-0.1,5.7-0.6,12.8-1.9,20.4c-3,18.4-16.2,34.5-24.9,33.1
				c-8.7-1.4-30.7-17.3-26.8-43.4C1777.2,739.3,1788.2,726.1,1802.7,723.9z"/>
			<path class="st21" d="M1780.8,758.6c-0.7,4-4.1,6.8-7.6,6.3c-3.5-0.6-5.7-4.3-4.9-8.4c0.7-4,4.1-6.8,7.6-6.3
				C1779.4,750.8,1781.6,754.5,1780.8,758.6z"/>
			<path class="st24" d="M1775.9,750.2c0,0,10.5,2.5,14.5-4c3.9-6.4,17.9-20.3,35.7-14.6c17.8,5.8-15.7-14-17.1-14
				c-1.4,0-18.5-0.1-18.5-0.1s-13.2,10.3-13.6,11.4c-0.5,1.1-4.3,13.5-4.3,13.5L1775.9,750.2z"/>
		</g>
		<path class="st17" d="M1795.2,777.1l19.2,3.5c0,0-1.8,6.9-10.3,5.6C1793.7,784.6,1795.2,777.1,1795.2,777.1z"/>
	</g>
	<g>
		<path class="st21" d="M866.4,1330.2c6.1-4.7,53.1,14.9,52.5,21.7c-0.6,6.8,32.8,72.9,32.8,72.9l57.7-43.7l0,0
			c0.5-1.6,6-18.6,6.2-21.6c0.3-3.2,10-8.8,14.6-7.9c4.5,0.8-3.9,6.2-4.4,7.2c-1.5,2.7,4.3,3.7,4.3,3.7s16.5-5,16.8-10.1
			c0.4-5.1,11.6,8.9,10.3,10.9c-1.3,1.9-28.2,22.5-32.1,27c0,0-74.6,81-79.9,83.1c-4.7,1.9-21.3-26.1-37-44.6
			C892.5,1410.2,847.4,1344.9,866.4,1330.2z"/>
		<path class="st25" d="M715.9,1925.8c0,0-10.3,9.5-10.5,13c-0.2,3.5-0.9,40.8,3.3,44.3c4.2,3.5,16.5,6,12.5,9.9
			c-3,3-26,2.3-41.2,1.5c-4.4-0.2-10-33.9-11.8-38.9c-2.6-7.2-8.8-23.4-6.5-28.4c1.1-2.4,6.6-7.5,14.2-12.1
			c8-4.9,15.7-15.9,15.7-15.9L715.9,1925.8z"/>
		<path class="st21" d="M822.1,1948c0,0-9.2,24.6-9.2,24.7c-0.7,3.9-3.4,13.5-3.4,17.1c0,13.3,63.2-11.3,49.1-17.2
			c-1.3-0.5-5.3-4.8-5.7-9.3c-0.6-7,5.3-15.7,5.3-15.7L822.1,1948z"/>
		<g>
			<path class="st1" d="M921.3,1489.6c0,0,4.6,44.1,4.6,44.8c0,71.4,14.9,210.8,12.1,224.2c-6.9,32.7-81.3,199.7-81.3,199.7
				l-40.2-4.6l52.4-199.9l-19.3-80.5l-27.3-159.1L921.3,1489.6z"/>
			<path class="st23" d="M786.4,1528.6l-7.6,41.8l-20.6,172.1l-78.6,168.2c0,0,11.1,24.5,27.4,27.9L832,1766l77.7-221l-2.7-49.1
				L786.4,1528.6z"/>
		</g>
		<path class="st15" d="M937.3,1384.5l-55.8,5.4c0,0-2.6-43.4-2.6-64.1c0-25.1,2.3-57.5,5.4-56.8c9,2,21,6.7,28.2,16
			C937.6,1317.5,937.3,1384.5,937.3,1384.5z"/>
		<path class="st14" d="M910,1321.4c1.2,7.7,22.6,215.9,22.6,215.9c-101.5,46.6-157.6,8.3-157.6,8.3s3.3-146.2-0.7-166.1
			c-2.6-13.2-5.9-100.7,3.1-103.1c11.5-3.1,24.8-6.5,39.2-7.9c12.3-1.2,60.1-1.9,68.6,0.8C885.2,1269.2,905,1289.2,910,1321.4z"/>
		<path class="st14" d="M676.4,1914.9c0,0,23.6,63.2,32.9,66.2c2.5,0.8,14.2,2.9,16.5,7.8c0.7,1.5,0,6.5,0,6.5h-49.3
			c0,0-6.2-27.8-8.7-40.1c0,0-13-29.9-11.6-32.6S676.4,1914.9,676.4,1914.9z"/>
		<path class="st14" d="M805.2,1995.4l7.2-21.7c0,0,15.2,6.1,22.8,5.1c7.6-1,24.4-5.7,24.4-5.7c30.4,9.5,53.3,14.7,48.7,22.3l0,0
			H805.2z"/>
		<g>
			<path class="st21" d="M945.2,1473.4c0.2-0.1,1.1-0.7,1.5-1.1c-1.8-20.4-1.5-40.2,5.3-46.9c-0.2-0.3-1.6-3.3-3.2-6.4
				c-7.8,5.7-11.5,21-10.1,45.7c0.1,1.7,0.6,3,1,5.1C942,1472.3,944.1,1473.8,945.2,1473.4z"/>
		</g>
		<path class="st21" d="M830.2,1228.2l-6.5,41c0,0,23.9,48.8,38.2,44.5c12-3.5,4.6-46.7,4.6-46.7s-6.5-23.2-4.6-34.8
			C863.8,1220.6,830.2,1228.2,830.2,1228.2z"/>
		<path class="st14" d="M861.8,1232.2c2-11.6-31.7-4-31.7-4l-0.5,3.4c1,2.3,2.2,4.2,3.6,5.7c7.5,7.7,19.2,12.3,29.4,12.6
			C861.6,1243.7,861,1236.9,861.8,1232.2z"/>
		<g>
			<path class="st21" d="M824.6,1170.2c-0.9-0.3-7.6,46.7,5,59.6c12.6,12.9,37.3,17.2,46.1,7c9.8-11.3,9.3-61.8-10.4-75.1
				C845.8,1148.4,824.6,1170.2,824.6,1170.2z"/>
			<path class="st24" d="M857.9,1136.6c-15.2,2.9-25,11.8-28.7,15.5c-6.9,0.8-16.3,4.4-26,19.6c-11.9,18.7-3.1,39.5,10.8,49.7
				c13.9,10.2,13.7,21.9,13.7,21.9l2.2-6.1c1.6-4.6,2.3-9.5,1.7-14.3c-0.3-2.9-1-6-2.2-8.6c-3.3-6.8,7.2-11.3,10.1-17
				c2.3-4.4,2.4-14.3,5.9-21.5l4.3-5.5c0,0,9.8-7.3,19.5-5.2C878.8,1167.2,877.4,1132.8,857.9,1136.6z"/>
			<path class="st21" d="M838.9,1205.7c0.1,5.7-2.6,10.4-6.1,10.5c-3.5,0.1-6.4-4.5-6.5-10.3c-0.1-5.7,2.6-10.4,6.1-10.5
				C835.9,1195.4,838.8,1200,838.9,1205.7z"/>
		</g>
		<path class="st17" d="M859.4,1219l19.1-0.9c0,0-0.1,6.9-8.4,7.5C859.8,1226.3,859.4,1219,859.4,1219z"/>
		<g>
			<path class="st24" d="M1015.4,1326.1c-4.5-4.4-8.7-8.8-12.5-13.4l-83.2,77.2c-5.1,4.7-3.4,14.3,3.9,21.4c7.3,7.1,17.3,9,22.5,4.2
				l83.2-77.2C1024.5,1334.5,1019.9,1330.4,1015.4,1326.1z"/>
			
				<ellipse transform="matrix(0.9982 -5.938001e-02 5.938001e-02 0.9982 -68.2698 71.4551)" class="st26" cx="1168.2" cy="1184.4" rx="210.6" ry="199.9"/>
			<path class="st17" d="M1016.8,1322.5c34.5,34.9,81.8,57.6,133.6,62.1l227.7-219.8c0-0.4-0.1-0.8-0.1-1.2
				c-5.7-50.2-30.2-94-66.2-125.8L1016.8,1322.5z"/>
			<path class="st17" d="M1170,984.3l-210.6,203.2c0.1,6.1,0.5,12.3,1.2,18.6c3.2,28.4,12.5,54.8,26.4,78.1l284.4-274.5
				C1241.1,993.5,1206.4,984.4,1170,984.3z"/>
			<path class="st27" d="M1339,1026c-91.6-89-242.3-90.3-336.6-2.8c-94.3,87.5-96.6,230.6-5,319.7c91.6,89,242.3,90.3,336.6,2.8
				C1428.3,1258.1,1430.6,1115,1339,1026z M1017,1324.6c-81-78.8-79-205.4,4.4-282.7c83.5-77.4,216.8-76.3,297.8,2.5
				c81,78.8,79,205.4-4.4,282.7C1231.4,1404.4,1098,1403.3,1017,1324.6z"/>
			<path class="st28" d="M1328.6,1035.6c-86-83.6-227.6-84.8-316.2-2.6s-90.7,216.6-4.7,300.3c86,83.6,227.6,84.8,316.2,2.6
				C1412.5,1253.7,1414.6,1119.2,1328.6,1035.6z M1017,1324.6c-81-78.8-79-205.4,4.4-282.7c83.5-77.4,216.8-76.3,297.8,2.5
				c81,78.8,79,205.4-4.4,282.7C1231.4,1404.4,1098,1403.3,1017,1324.6z"/>
			<path class="st27" d="M661.2,1664.8l-12.9-12.7c-12.9-12.7-12.5-33,0.9-45.3l240.3-221.2c13.4-12.3,34.8-11.9,47.7,0.8l12.9,12.7
				c12.9,12.7,12.5,33-0.9,45.3l-240.3,221.2C695.5,1677.9,674.1,1677.5,661.2,1664.8z"/>
		</g>
		<path class="st29" d="M674.4,1539.5c-0.1-0.4-0.1-0.9,0-1.3c1.5-14.4,14.1-135.5,16.2-140.7c1.9-4.6,58.5-81.5,58.5-81.5l27.8,36
			l-54.4,68.9c-1.2,4.4-20.8,86.1-20.8,86.1s-4,14.9-5.8,23.8c0.8,2.1,1.6,4.2,2.3,5.8c1.8,3.6,3.9,6.5,5.9,8.9
			c2.4,3.1,6.4,9.9,6.9,11.7c0.6,2.1,1.6,6.5,2.2,9.1c0.6,2.6,1.4,5.7,1.5,7.1c0.1,0.9,1,2.6,1.8,3.8c1.1,1.8-0.8,4-2.9,3.3
			c-2-0.6-3.5-3.1-4.5-4.6c-2.7-4.3-4.1-12.1-4.8-11.7c-0.7,0.4-3,13.6-3.4,15.1c-0.4,1.5-3.2,16.9-4.8,19.7
			c-1.6,2.8-3.7,2.3-4.2,0.6c-0.5-1.5,1.8-23,1.8-23s0.3-2.7-1-1.9c-1.3,0.9-3.3,20.4-4.2,23.2c-0.9,2.9-2.9,4.4-4.6,2.1
			c-2.1-2.8,1.5-23.5,1.5-23.5s0.4-2.6-0.8-2.4c-1.2,0.2-2.6,16.9-3.5,18.3c-0.9,1.4-3.2,2-4.3-0.4c-1.3-2.8,2.1-21.3,2.1-21.3
			s-0.2-1.5-0.9-1c-0.7,0.5-3,14.6-4.6,15.9c-1.3,1.1-2.3,0-2.3,0c-2.8-1.8,1.5-15.2,1.4-21.9c0-6.7,3.2-14.2,2.2-22.1
			C674.7,1541.5,674.6,1540.3,674.4,1539.5z"/>
		<path class="st14" d="M704.9,1364.7l48.3,30.8c0,0,27.2-38.5,41.8-52.2c18.3-17.2-6.7-69.7-18.5-66.7
			C750.2,1283.2,704.9,1364.7,704.9,1364.7z"/>
	</g>
	<text transform="matrix(0.656 0 0 1 588.7544 875.5298)" class="st17 st18 st19">Azul </text>
</g>
</svg>
