<?xml version="1.0" encoding="utf-8"?>
<!-- Generator: Adobe Illustrator 24.2.3, SVG Export Plug-In . SVG Version: 6.00 Build 0)  -->
<svg version="1.1" id="Layer_1" xmlns="http://www.w3.org/2000/svg" xmlns:xlink="http://www.w3.org/1999/xlink" x="0px" y="0px"
	 viewBox="0 0 590.4 784.3" style="enable-background:new 0 0 590.4 784.3;" xml:space="preserve">
<style type="text/css">
	.st0{fill:#FFB27D;}
	.st1{fill:#F47458;}
	.st2{fill:#3C8F7C;}
	.st3{fill:#263238;}
	.st4{fill:#FCA56B;}
	.st5{fill:#163560;}
	.st6{fill:#1F4D84;}
	.st7{fill:#739AF0;}
	.st8{opacity:0.5;}
	.st9{fill:#B3CFF9;}
</style>
<g id="Layer_2_1_">
	<g id="_лой_1">
		<path class="st0" d="M312.6,197.5c-13.4-3.8-10.6-10-13.3-13.6s2.4-16.4,3.7-18.4s8.7,6.5,10.5,9.4s4.5,8.9,4.5,8.9L312.6,197.5z"
			/>
		<path class="st1" d="M452.9,217.9c0,0-34.8,20.8-81.9,20.4c-30.1-0.3-59-39.4-59-39.4l6.4-16.5c0,0,32.2,11.1,53.2,15.2
			c26.8,5.3,95.7-52.1,95.7-52.1L452.9,217.9z"/>
		<path class="st2" d="M558.4,747.3c-7,15.2-26.2,23.2-37.7,25.2S508.9,784,508.9,784l39.3,0.3c0,0,30.8,0,31.6-0.1
			c6.2-0.5,8.2-32.7,8.2-32.7S565.7,731.3,558.4,747.3z"/>
		<path class="st3" d="M579.5,595.6c-1.6-9.5-3.7-18.9-6.4-28.1c-17.7-58.6-3.8-211.6-3.8-211.6l-112.1,49.3l-0.1,0.1
			c0,0,0,0.2,0.1,0.5c1,6.1,12.1,71,48.6,182c13.2,40.1,22.5,72.5,29,97.6c12.4,48,14.6,69.7,14.6,69.7c6.5,1.8,13.2,2.7,19.9,2.8
			c9.3,0,21.3-4,21.3-4S590.6,659.3,579.5,595.6z"/>
		<path class="st3" d="M573.1,567.4c-17.7-58.6-3.8-211.6-3.8-211.6l-112.2,49.3c0,0.2,0,0.4,0,0.5c1,6.1,12.1,71,48.6,182
			c13.2,40.1,22.5,72.5,29,97.6C534.6,685.2,575.5,575.7,573.1,567.4z"/>
		<path class="st2" d="M470.8,747.3c-7,15.2-26.2,23.3-37.7,25.3S421.4,784,421.4,784l39.3,0.3c0,0,30.8,0,31.6-0.1
			c6.2-0.5,8.2-32.7,8.2-32.7S478.1,731.3,470.8,747.3z"/>
		<path class="st3" d="M556.2,363.3c0,0-40.6,148.1-33.6,209s-17.5,182.7-17.5,182.7s-12.4,3.8-24.5,2.8c-4.8-0.4-16.5-4.2-16.5-4.2
			s5.8-51.7-11.3-173.3C435.5,458.5,437,359.4,437,359.4L556.2,363.3z"/>
		<path class="st0" d="M510.3,88.9c0.1-1.3,1-10.2,1-10.3l-11,4.9l-29.5,13c-0.5,5.3-0.8,10.6-0.8,15.9c0.1,8.7,1,18.7,4.7,23.9
			l19.9,5.6l21.9-14.4C516.5,127.5,508.3,111.8,510.3,88.9z"/>
		<path class="st1" d="M436.3,359.6c0.5-17.3,1.3-40.8,2.4-65.2c2.3-52.1,5.3-107.7,6.3-112.9c3.2-16.4,7.7-32.5,13.4-48.2
			c0,0,51.6-16.7,61.3-13.8c46.5,13.7,59.8,231.4,53.5,260.4c-6.3,29-109.4,33.4-136.7,7.1C435.9,386.4,435.9,375.8,436.3,359.6z"/>
		<path class="st4" d="M500.3,83.4l-29.5,13c-0.5,5.3-0.8,10.6-0.8,15.9c11.1-4.1,32.1-12.9,38.1-23.1
			C510.8,84.7,506.8,83.2,500.3,83.4z"/>
		<path class="st0" d="M462.2,29.1c5.3-9.2,14.6-18.8,44.6-8.1c30,10.7,17.9,28.9,9.2,58.6c-8.8,29.8-56.4,14.9-56.4,14.9
			C447.5,89.9,456.9,38.3,462.2,29.1z"/>
		<path class="st5" d="M545.7,25.7c6.1,10.8-18,67.6-40.2,67.7c-10.3,0-18.3-17.8-17.3-28.3s-6.8-7.2-14-5.7
			c-7.2,1.5-10.2-33.1-10.2-33.1C438.8-11.7,528.2-5.4,545.7,25.7z"/>
		<path class="st1" d="M458.4,133.3l61.3-13.8c0,0-5.1-12.4-9.1-13.8s-38.9,14.3-39.5,14.5C463.2,123.5,458.4,133.3,458.4,133.3z"/>
		<path class="st6" d="M251.2,278.3l6.6-7c2.1-2.2,6.9-1.1,10.7,2.5l195.1,183.7c3.8,3.6,5.3,8.3,3.2,10.5l-6.6,7
			c-2.1,2.2-6.9,1.1-10.7-2.5L254.4,288.8C250.6,285.2,249.1,280.5,251.2,278.3z"/>
		<path class="st7" d="M378,376.9l85.6,80.6c3.8,3.6,5.3,8.3,3.2,10.5l-6.6,7c-2.1,2.2-6.9,1.1-10.7-2.5l-85.6-80.6L378,376.9z"/>
		<path class="st6" d="M299.2,219.5c16-52.4,2.7-109.4-34.9-149.4C206.5,8.6,109.7,5.6,48.2,63.5c-0.8,0.8-1.6,1.5-2.4,2.3
			c-18.2,17.9-31.6,40-39.1,64.4C-17.9,211,27.6,296.5,108.3,321.1S274.6,300.3,299.2,219.5L299.2,219.5z M255.5,78.3
			c0.1,0.1,0.1,0.1,0.2,0.2c53.2,56.7,50.4,145.7-6.3,198.9c0,0,0,0,0,0c-56.7,53.3-145.8,50.6-199.1-6.1S-0.2,125.6,56.4,72.3
			S202.2,21.7,255.5,78.3L255.5,78.3z"/>
		<g class="st8">
			<path class="st9" d="M49.6,270.5C-3.3,213.9-0.2,125.1,56.4,72.3c0,0,0,0,0,0c56.6-53.3,145.8-50.6,199.1,6s50.6,145.8-6,199.1
				s-145.8,50.6-199.1-6C50.1,271.1,49.9,270.8,49.6,270.5z"/>
		</g>
		<path class="st1" d="M438.7,294.4c17.9-42.5,56.9-91.5,96.2-113.7c0,0,8.9,102.2-98.6,178.8C436.8,342.3,437.7,318.8,438.7,294.4z
			"/>
		<path class="st0" d="M339.2,328.2l1.7-0.4l2.1,12.8l-6.9,3.2c-8.6,3-17.8,3.9-21,2.6c-8.4-3.4-12.2-5.3-13.6-7.1
			c-2.3-3.1-2.2-5.3-2.3-7.3c0-1.2,0.3-4,1.5-4.2c8.4-1.8,12.8,0,17.2-0.4c0.1,0,0.2,0,0.3-0.1c0.3-0.2,0.4-0.6,0.3-0.9
			c-0.5-1.1-1.2-2.5-1.5-3.1c-3.8-6.9-0.5-7.1-0.5-7.1c1.1,1,6.2,6.7,13.7,8.5C333.1,325.4,336.5,328.8,339.2,328.2z"/>
		<path class="st1" d="M471,157.6c-12,19.8-33.2,102.1-40.6,106c-16.4,8.6-90.7,62.6-90.7,62.6c-5.6,7.5,5.4,16.9,5.4,16.9
			s108-29.1,128-51.5c125-139.9,28.4-158.3,28.4-158.3S483,137.8,471,157.6z"/>
		<path class="st0" d="M305.9,183.4c-0.6-1.9-0.3-7.8-2-12.1c-1.1-2.7-1.7-4.9-1.5-6.1c0.3-2.8,2.4-3.6,3.1-3
			c1.6,1.6,5.6,10.9,6.2,14.1s3.8,9.2,3.8,9.2S307.4,188.3,305.9,183.4z"/>
	</g>
</g>
</svg>
