<?xml version="1.0" encoding="utf-8"?>
<!-- Generator: Adobe Illustrator 24.2.3, SVG Export Plug-In . SVG Version: 6.00 Build 0)  -->
<svg version="1.1" id="Layer_1" xmlns="http://www.w3.org/2000/svg" xmlns:xlink="http://www.w3.org/1999/xlink" x="0px" y="0px"
	 viewBox="0 0 175.1 134.2" style="enable-background:new 0 0 175.1 134.2;" xml:space="preserve">
<style type="text/css">
	.st0{fill:#FFBE9D;}
	.st1{fill:#EB996E;}
	.st2{fill:#263238;}
	.st3{fill:#3C8F7C;}
	.st4{opacity:0.6;}
	.st5{fill:#FFFFFF;}
	.st6{opacity:0.2;}
</style>
<g id="Layer_2_1_">
	<g id="Character">
		<path class="st0" d="M76.6,122.2c-1.4,1.4-2.9,2.6-4.5,3.6c-2.1,1.5-8.5,6.2-8.5,7.2c-0.1,1.5,1.5,1.8,3.6,0.3s8.7-5.5,9.4-4.4
			c0,0,5.5,2.9,9.5,3.3c2.5,0.2,4.9-1,6.3-3l4.7-5.3l-10-10.8c-2.1,1.6-6.8,2.6-6.8,2.6c-0.8,0.2-1.8,0.3-2.8,0.5
			c-1.2,0.2-2.4,0.2-3.7,0c-1.5-0.2-3-0.6-4.4-1.3c-1.2-0.7-2.7,0.4-2.1,1.6s3.8,3.1,8.4,3.5C77.6,120.1,77.6,121.1,76.6,122.2"/>
		<path class="st1" d="M85,130.6c1.2-0.8,1.5-2,1.6-2s0.1,0.3-0.1,0.8c-0.2,0.6-0.6,1.2-1.2,1.6c-0.5,0.4-1.2,0.7-1.9,0.7
			c-0.5,0-0.8-0.1-0.8-0.2C83.4,131.4,84.2,131,85,130.6z"/>
		<path class="st1" d="M80.8,129c1.1-0.8,1.4-1.9,1.5-1.9s0.2,0.3,0,0.8c-0.5,1.3-1.6,2.1-2.9,2.3c-0.5,0-0.8-0.1-0.8-0.1
			C79.4,129.7,80.1,129.4,80.8,129z"/>
		<path class="st2" d="M112.5,20.2c7.8,40.8-14.5,58-20.2,63.6c-12.1,11.9-29.3,17.2-46,17.6c-7.6,0.2-15.7-0.7-21.8-5.4
			s-9.1-14.3-4.6-20.6c2.7-3.8,7.4-5.8,9.8-9.8c3.9-6.5,0.5-16.6,6.3-21.5c3.3-2.8,8.2-2.4,12.4-3.4c8-2,18.9-14.1,19.3-23"/>
		<path class="st3" d="M0,92c0,6.2,4.4,11.3,9.9,11.3l35.5-0.1l0,0l93.1-0.3l-0.1-0.4h26.8c5.5,0,9.9-5,9.9-11.2l0,0
			c0-5-3-9.4-7.3-10.8l-58-19.3c-2.6-1.1-5.4-1.7-8.2-1.7l-21.5-0.1c-3.2,0.6-6.3,1.5-9.2,2.8L7.3,81.1C3,82.5,0,86.9,0,92z"/>
		<path class="st2" d="M20.5,87.8l1.6-0.3c1.4-0.3,3.4-0.5,6-0.8c13.3-1.5,26.7-1.3,40,0.5c2.6,0.4,4.6,0.7,6,1l1.6,0.3
			c0.2,0,0.4,0.1,0.6,0.2c-0.2,0-0.4,0-0.6,0l-1.6-0.2c-1.4-0.2-3.5-0.5-6-0.8c-6.6-0.8-13.3-1.2-19.9-1.3c-6.7-0.1-13.4,0.2-20,0.8
			c-2.5,0.3-4.6,0.5-6,0.7L20.6,88c-0.2,0-0.4,0-0.6,0C20.2,87.9,20.4,87.8,20.5,87.8z"/>
		<g class="st4">
			<path class="st5" d="M35.2,72.7l0.6,0.6c0.5,0.5,1.3,1.2,2.3,2.1c1.2,1.1,2.5,2.1,3.9,3c1.8,1.2,3.8,2.2,5.9,2.7
				c2.6,0.6,5.2,0.5,7.8-0.2c2.9-0.9,5.7-2.2,8.3-3.7c2.9-1.7,6-3.2,9.2-4.3c3.5-1.2,7.4-1,10.7,0.6c3.4,1.5,6.3,3.9,9.3,5.5
				c0.8,0.4,1.5,0.8,2.3,1.1s1.6,0.6,2.4,0.8c1.6,0.4,3.2,0.7,4.8,0.8c5.7,0.4,11.3-1.1,16-4.3c1.7-1.3,3.4-2.7,4.9-4.3
				c1.2-1.2,2.5-2.2,3.9-3.1c0.9-0.6,1.9-1,2.9-1.2c0.4-0.1,0.7-0.1,1.1-0.1c-1.4,0.2-2.7,0.7-3.9,1.5c-1.4,0.9-2.7,1.9-3.8,3.1
				c-1.5,1.6-3.2,3-4.9,4.4c-4.8,3.3-10.5,4.9-16.3,4.5c-1.7-0.1-3.3-0.4-4.9-0.8c-0.8-0.2-1.6-0.5-2.4-0.8
				c-0.8-0.3-1.6-0.7-2.4-1.1c-3.1-1.7-6-4-9.3-5.5c-3.3-1.5-7-1.7-10.4-0.5c-3.1,1.1-6.2,2.5-9,4.3c-2.6,1.6-5.4,2.8-8.4,3.7
				c-2.6,0.8-5.4,0.8-8,0.2c-2.1-0.6-4.1-1.6-5.9-2.8c-1.4-0.9-2.7-2-3.9-3.1c-1-0.9-1.8-1.7-2.3-2.2L35.2,72.7
				c-0.2-0.1-0.3-0.2-0.3-0.2C35,72.6,35.1,72.6,35.2,72.7z"/>
		</g>
		<g class="st6">
			<polygon points="99.5,103 98.3,103 93.6,95.4 133.9,87.8 			"/>
		</g>
		<g class="st4">
			<path class="st5" d="M12.4,82.2c0.4,2.1,1.3,4.1,2.5,5.8c1.8,2.6,4.4,4.6,7.5,5.6c1.8,0.6,3.6,0.9,5.5,0.8c2-0.1,4-0.5,5.9-1.1
				c2-0.6,3.9-1.2,5.9-1.6c1.9-0.4,3.8-0.5,5.7-0.3c3.2,0.4,6.3,1.7,8.8,3.7c1.7,1.3,3.2,3,4.3,4.9l0.5,0.9c0.1,0.3,0.2,0.5,0.3,0.7
				c0.1,0.2,0.2,0.4,0.2,0.6c-0.1-0.2-0.2-0.4-0.3-0.5l-0.3-0.7l-0.5-0.9c-1.1-1.8-2.6-3.4-4.3-4.7c-2.5-1.9-5.5-3.2-8.7-3.6
				c-1.9-0.2-3.7-0.1-5.6,0.3c-1.9,0.4-3.9,1-5.9,1.6c-1.9,0.6-4,1-6,1.1c-1.9,0.1-3.8-0.2-5.7-0.9c-5.2-1.8-9.1-6.4-10-11.8
				c-0.1-0.6-0.2-1.2-0.2-1.8c0-0.2,0-0.4,0-0.6C12.1,79.9,12.1,80.7,12.4,82.2z"/>
		</g>
		<path class="st3" d="M142.8,81.6l-58.9,29.1c0,0,11.9,21.1,11.6,21.8s72.4-31.4,72.4-31.4L142.8,81.6z"/>
		<path class="st2" d="M133,86.6l-3.9,2c-3.3,1.7-7.9,4-13.1,6.5c-5.1,2.5-9.7,4.8-13.1,6.4l-4,1.9c-0.5,0.2-1,0.5-1.5,0.6
			c0.4-0.3,0.9-0.6,1.4-0.8l3.9-2c3.3-1.7,7.9-4,13.1-6.5c5.1-2.5,9.8-4.8,13.1-6.4l4-1.9c0.5-0.3,1-0.5,1.5-0.6
			C134,86.1,133.5,86.4,133,86.6z"/>
		<g class="st4">
			<path class="st5" d="M119.3,97.6c1,1.8,2.5,3.2,4.3,4.1c1.2,0.7,2.6,1.1,3.9,1.3c1.6,0.2,3.2,0.2,4.8,0c3.6-0.7,7.2-1.8,10.4-3.5
				c3.3-1.7,6.8-3.1,10.4-4.1c1.6-0.4,3.2-0.6,4.9-0.5c1.4,0,2.9,0.3,4.2,0.8c2,0.6,3.8,1.8,5.1,3.4c0.5,0.6,0.9,1.2,1.2,1.9
				c-0.4-0.6-0.8-1.2-1.3-1.8c-1.4-1.5-3.1-2.6-5.1-3.2c-1.3-0.4-2.7-0.7-4.1-0.7c-1.6,0-3.2,0.2-4.8,0.6c-3.6,1-7,2.4-10.3,4.1
				c-3.4,1.7-6.9,2.9-10.7,3.5c-1.6,0.2-3.3,0.2-4.9-0.1c-1.4-0.3-2.7-0.8-4-1.4c-1.9-1-3.4-2.5-4.3-4.3c-0.4-0.7-0.6-1.4-0.7-2.2
				C118.7,96.2,119,96.9,119.3,97.6z"/>
		</g>
		<g class="st4">
			<path class="st5" d="M88.7,117.3c1-0.2,2.1-0.3,3.1-0.3c1.5-0.1,3.1,0,4.6,0.1c1.9,0.2,3.7,0.6,5.6,1.1c1.8,0.5,3.6,1.2,5.3,2
				c1.4,0.7,2.7,1.5,4,2.3c0.9,0.6,1.7,1.2,2.5,1.9c0.3,0.2,0.6,0.5,0.8,0.8c-0.1,0.1-1.3-1-3.5-2.4c-1.3-0.8-2.6-1.6-4-2.2
				c-1.7-0.8-3.4-1.5-5.2-2c-1.8-0.5-3.6-0.9-5.5-1.1c-1.5-0.2-3-0.3-4.6-0.2c-2.6,0-4.2,0.3-4.2,0.2
				C87.9,117.4,88.3,117.4,88.7,117.3z"/>
		</g>
		<g class="st6">
			<path d="M20.7,77.4c1.1,3.8,4.1,6.7,7.9,7.8c3.8,1,7.7,0.7,11.3-0.7c3.6-1.4,7-3.3,10.1-5.6c1.8-1.3,3.8-2.6,6-2.7
				c3.3-0.2,6.2,2.2,9.5,2.3c2.5-0.1,4.9-1.1,6.6-3c1.7-1.8,3.1-3.9,4.2-6.1c1.8-3.1,3.6-6.7,2.4-10.1"/>
		</g>
		<path class="st0" d="M88.7,68.7L88.7,68.7c5.9,0.3,11-4.2,11.4-10.2l2.7-41l-17.3-14l-16.1,7.8c0,0-0.9,20.6-0.5,29.5
			s9.1,10,9.1,10s0.2,3.5,0.4,7.5C78.6,64,83.1,68.5,88.7,68.7z"/>
		<path class="st2" d="M72,26.4c0.6,0,1.1,0.5,1.1,1.1c0,0.6-0.5,1.1-1.1,1.1c-0.6,0-1.1-0.5-1.1-1.1C70.8,26.9,71.3,26.3,72,26.4z"
			/>
		<path class="st2" d="M70.2,24.4c0.5-0.4,1.1-0.6,1.7-0.7c0.6,0,1.3,0.2,1.8,0.5c0.4,0.3,0.6,0.5,0.5,0.6s-1-0.5-2.2-0.4
			s-2,0.8-2.2,0.6C69.7,25,69.8,24.7,70.2,24.4z"/>
		<path class="st2" d="M85.3,26.4c0.6,0,1.1,0.5,1.1,1.1c0,0.6-0.5,1.1-1.1,1.1c-0.6,0-1.1-0.5-1.1-1.1
			C84.1,26.9,84.6,26.4,85.3,26.4z"/>
		<path class="st2" d="M83.4,24.7c0.5-0.4,1.1-0.6,1.7-0.7c0.6,0,1.3,0.1,1.8,0.5c0.4,0.3,0.6,0.5,0.5,0.6s-1.1-0.5-2.2-0.4
			s-2,0.8-2.2,0.6C83,25.3,83.1,25,83.4,24.7z"/>
		<path class="st2" d="M76.5,35.7c-0.2,0-0.4,0-0.5-0.1c-0.2-0.1-0.4-0.2-0.5-0.5c-0.1-0.4-0.1-0.9,0.1-1.3c0.3-0.8,0.5-1.7,0.8-2.6
			c0.6-2.2,1.5-4.4,2.4-6.4c-0.5,2.2-1.1,4.5-1.9,6.6c-0.3,0.9-0.6,1.7-0.9,2.5c-0.2,0.3-0.2,0.7-0.2,1c0.1,0.2,0.3,0.3,0.7,0.3
			c0.7,0,1.3,0.1,2,0.3C77.9,35.7,77.2,35.8,76.5,35.7z"/>
		<path class="st5" d="M80.6,40c-1.5,0.6-3.1,0.1-4-1.2c2.5,0.1,7.1-2.8,5.8-1.9C82.5,36.9,83.1,39,80.6,40z"/>
		<path class="st1" d="M78.1,53.1c8.7,0.5,11.4-6,11.4-6c-3.4,2.4-7.4,3.7-11.6,3.8L78.1,53.1z"/>
		<path class="st2" d="M112.5,20.2C108.1,1.5,97.2,1.4,94.1,1.8c-4.7,0.6-12.2-5.9-21,3.1s-4.2,19-4.2,19l1.5-1.4l12.8-3.2
			c-0.9-3.5,0.6-7.9,1.5-9.9l0.1-0.1c2.3,13.4,16,19.8,16,19.8l-0.5,28.2c14.1-2.8,12-23.3,12-31l0,0L112.5,20.2z"/>
		<path class="st0" d="M99,38.9c1.7,0.5,3.5,0,4.8-1.2c2.1-1.9,2.2-5.2,0.3-7.2c-1-1-2.6-1.6-3.8-0.9"/>
		<path class="st1" d="M101.5,35.8c0.7-0.3,1.2-0.8,1.5-1.5c0.2-0.7,0-1.4-0.6-1.9c-0.4-0.4-0.8-0.5-0.8-0.6s0.4-0.1,1,0.3
			c0.3,0.2,0.6,0.5,0.8,0.9c0.2,0.5,0.2,1,0,1.5c-0.3,0.8-1,1.5-1.9,1.7c-0.6,0.1-1,0.1-1,0C100.6,36.1,100.9,36,101.5,35.8z"/>
		<path class="st3" d="M101.3,37.9c-0.4,0.1-0.7,0.4-0.8,0.8c-0.1,0.5,0.2,1.1,0.8,1.2c0.5,0.1,1.1-0.2,1.2-0.8s-0.2-1.1-0.8-1.2"/>
		<path class="st0" d="M98,103.1c-0.4-10-22.2-14.5-22.2-14.5v14.7L98,103.1z"/>
		<path class="st2" d="M77.2,55.8c-17.1,0.9-33.8,6.2-49.3,13.5c-2,0.8-3.8,1.9-5.4,3.4c-1.5,1.5-4.1,3.6-3.7,5.7
			c0.5,2.8,4.7,4.6,7.3,5.5c6.4,2.1,13.4,0.5,18.3-4.1c2-1.9,3.7-4.4,6.2-5.6c2.9-1.3,6.3-0.6,9.6-0.6c9.4-0.1,17.2-7.4,17.9-16.8"
			/>
	</g>
</g>
</svg>
