<?xml version="1.0" encoding="utf-8"?>
<!-- Generator: Adobe Illustrator 24.2.3, SVG Export Plug-In . SVG Version: 6.00 Build 0)  -->
<svg version="1.1" id="Layer_1" xmlns="http://www.w3.org/2000/svg" xmlns:xlink="http://www.w3.org/1999/xlink" x="0px" y="0px"
	 viewBox="0 0 128.8 300" style="enable-background:new 0 0 128.8 300;" xml:space="preserve">
<style type="text/css">
	.st0{fill:#A1B1B5;}
	.st1{fill:#FF8B66;}
	.st2{fill:#EF6E4B;}
	.st3{fill:#CFD8DC;}
	.st4{fill:#0E3944;}
	.st5{fill:#ADBEC4;}
	.st6{fill:#8B383E;

	}
	.st7{fill:#F24052;}
	.st8{fill:#CE364C;}
	.st9{fill:#B72E48;}
	.st10{fill:#1A4850;}
	.st11{fill:#DB614D;}
	.st12{fill:#FFB878;}
	.st13{fill:none;stroke:#DB614D;stroke-width:0.75;stroke-miterlimit:10;}
	.st14{fill:#FFFFFF;
	font-family: 'Patua One', cursive !important;
	font-size:11.2px !important;
	}
	.st15{font-family:'ComicSansMS-BoldItalic';}
	.st16{font-size:11px;}
</style>
<g>
	<path class="st0" d="M107.6,140.6c3.1,0.4-0.5,11.9-5.3,11.2c-4.7-0.7-2.3-9.3-2.3-9.3S104.3,140.2,107.6,140.6z"/>
	<g>
		<path class="st1" d="M116.3,152.5c-0.7-0.8-3.9-2.4-3.9-2.4c-2.7-0.8-4.2-1.3-5.3-2.4c-1.1-1.1-5.5-0.9-5.5-0.9s0.6-3.8,3.4-6.4
			c0,0,2.2,0.6,2.8,0.4c1.3-0.4,2.3-2.3,4.9-2.7c2.6-0.3,5.8-2,5.8-2s1.2,0.7,0.3,1.7c-1,0.9-3.1,1.4-3.4,1.9
			c-0.1,0.1-0.1,0.2-0.1,0.3c0,0,0,0,0,0c-0.1,0.4-0.1,0.9,0.1,1.2c0,0,0,0.1,0.1,0.1c1,1.1,4.5,1.8,6.1,2c2.2,0.2,5.1,0.7,4.5,1.9
			c-0.7,1.2-1.7-0.1-6.6,0.2l-0.1,0.5c-0.4,0,2.8,1.3,5.8,1.9c2.1,0.4,1.1,1.6,0.4,1.8c-0.7,0.2-2.7-0.5-4.2-0.8
			c-1-0.2-2-0.4-2.6-0.5l-0.4,0.5c3.3,2.4,4.9,2,4.8,3.1c-0.1,1.1-3.1,0.3-4.2-0.4c-0.5-0.3-1.5-0.7-2.5-1.1
			c2.2,2.3,3.5,2.3,3.2,3.2C119.3,154.5,117,153.3,116.3,152.5z"/>
		<path class="st2" d="M111.9,143.1c2.1-0.4,3.3-2.7,3.5-3c-0.1,0.4-0.1,0.9,0.1,1.2C114.1,143.5,111.9,143.1,111.9,143.1z"/>
	</g>
	<path class="st3" d="M71.7,83.9c7.2,8.9,13.5,48.8,13.5,48.8s2.5-0.4,2.4,1c-0.1,1.4,20,7,20,7s-7.5,3.4-5.3,11.2
		c0,0-23.4-3.4-30.1-6.2c-6.7-2.8-8.2-45-8.2-45L71.7,83.9z"/>
	<g>
		<path class="st4" d="M79.1,298.4c0,1-0.1,1.6-0.1,1.6H49.5c0-0.5,0-1.1,0-1.6c0.3-7.2,2.8-13.5,2.8-13.5l7.4-3
			c0.6,3.6,2.3,5.8,4.3,7.3c0.5,0.4,1.1,0.7,1.7,1c0.3,0.1,0.5,0.3,0.8,0.4c0.6,0.3,1.2,0.5,1.9,0.7c2.6,0.7,5.2,0.9,7.1,1.2
			C78.6,292.9,79.1,296.3,79.1,298.4z"/>
		<path class="st5" d="M79.1,298.4c0,1-0.1,1.6-0.1,1.6H49.5c0-0.5,0-1.1,0-1.6H79.1z"/>
		<path class="st5" d="M65.7,290.2l-4.1,1.2l-0.9-1.4l3.3-0.8C64.5,289.6,65.1,289.9,65.7,290.2z"/>
		<path class="st5" d="M68.4,291.3l-2.8,1.7l-1.7-0.6l2.6-1.7C67.1,290.9,67.7,291.1,68.4,291.3z"/>
	</g>
	<g>
		<path class="st4" d="M32.4,298.4c-0.1,0.9-0.3,1.6-0.3,1.6H12.5c-0.2-0.5-0.4-1.1-0.6-1.6c-1.9-8.8,13.9-19.6,13.9-19.6l1.3,5.2
			c0,0-0.5,8.3,3,10C32.3,295,32.5,297,32.4,298.4z"/>
		<path class="st5" d="M11.9,298.4h20.5c-0.1,0.9-0.3,1.6-0.3,1.6H12.5C12.2,299.5,12,298.9,11.9,298.4z"/>
		<path class="st5" d="M29.3,293.3c0,0-8.3-1.8-12,0.5v-1.3C17.2,292.5,24.2,289.4,29.3,293.3z"/>
		<path class="st5" d="M27.6,291.3c0,0-5.3-2.3-10.4,0l0.6-1.3C17.8,290,23.9,287.9,27.6,291.3z"/>
	</g>
	<path class="st6" d="M22.1,155.7c0,17.5-6,80.8-6.6,85.3c-1.2,8.7-0.5,23.6-2.2,32.8c-1.8,9.9-1.3,18.7-1.3,18.7s10.2-7.7,15.9-2
		l2.4-7.8l-1.8-6.2l3.3-9.1c-2.4-4,14.7-88.6,14.7-88.6l1.7-0.3l-0.7,98v5.6c0,0,1.9,7.1,2,11.6l17.3-4.6l-2.4-6.4l1.6-8.3
		l-0.6-11.1c0,0,5.6-95.4,6.8-105.9L22.1,155.7z"/>
	<path class="st3" d="M21.3,160.1c0,0,4.8,3.9,28.1,3.5c18-0.3,22.8-4.4,22.8-4.4s4.2-69.7-0.4-75.3c-3.4-4.1-10-5.9-18.6-6.3
		c-3.2-0.2-6.8-0.1-10.5,0c-2.8,0.1-5.4,0.5-7.9,1.2c-9.6,2.5-16.4,8.5-17.4,13.1C16,97.8,21.3,160.1,21.3,160.1z"/>
	<path class="st7" d="M77.9,126.2c2,4.8,0.9,16.8-1,20c-2.1,3.6-11.7,2-11.7,2s0.2-30.2-1.3-45.5s-8.6-24.9-8.6-24.9
		s17.2,0.6,19.7,9.6c1.7,5.8,1.2,10.6,0.6,13.1c-0.3,1.4-0.6,2.1-0.6,2.1c0,0,0.1,0,0.1,0c0.6,0.1,2.4,0.9,3.8,7.3
		c1.6,7.6-2,14.7-2,14.7C77.4,125,77.7,125.5,77.9,126.2z"/>
	<path class="st8" d="M62,92.1c0,0,2.9-9.2-0.6-13.6c-3.5-4.4-7.4-5.1-7.4-5.1s4.7,4.3,5.4,7C60,83.2,62,92.1,62,92.1z"/>
	<path class="st9" d="M54,73.3c-5-1.4-17.2-3.6-23.4-1.2c0,0-0.5,5,1.7,6.7c2.2,1.7,23.2-8.3,29.3,11.4C61.6,90.2,63.4,76,54,73.3z"
		/>
	<path class="st7" d="M44,118.3c-0.2,25.4-3.4,32.6-3.4,32.6s-19.9,2.4-23.5-1.3s0-15.6,0-15.6s-0.8-1.8-1.6-4.6c0,0,0,0,0,0
		c-0.4-1.2-0.7-2.5-1-4c-0.3-1.4-0.6-3-0.8-4.6c-0.5-4.1,0.6-7.2,1.5-9c0.6-1.3,1.2-2,1.2-2s-3.8-14.7-2.1-21.2
		c0.4-1.5,1-2.7,1.9-3.8c5-6.1,16.8-6.1,16.8-6.1c3.3,0.8,8.3,9,10.2,24.6v0C43.7,107.8,44,112.7,44,118.3z"/>
	<path class="st2" d="M52.7,71.6L49.6,83c0,0-3.5,1.5-10.8-3.1c0,0,3.9-8.6,0.4-14.8c0,0,0.9,0,2.3,0.2C41.5,65.3,42.9,72,52.7,71.6
		z"/>
	<g>
		<path class="st1" d="M38.8,59.3c-0.1,13.4,13.6,15.3,17.1,10.4c1.1-1.6,2.2-4.5,2.8-7.6c0.1-0.7,0.3-1.4,0.4-2.2
			c0.7-4.9,0.1-10-2.8-11.3C46.1,43.9,38.9,45.8,38.8,59.3z"/>
		<path class="st10" d="M48.8,57c-0.1,0.7,0.2,1.4,0.7,1.4c0.4,0,0.9-0.5,0.9-1.3c0.1-0.7-0.2-1.4-0.7-1.4
			C49.2,55.7,48.8,56.3,48.8,57z"/>
		<path class="st10" d="M55.9,58.2c-0.1,0.7,0.2,1.4,0.7,1.4c0.4,0,0.9-0.5,0.9-1.3c0.1-0.7-0.2-1.4-0.7-1.4
			C56.4,56.9,56,57.5,55.9,58.2z"/>
		<ellipse transform="matrix(0.3094 -0.9509 0.9509 0.3094 -24.3451 85.692)" class="st11" cx="46.8" cy="59.6" rx="1.1" ry="1.5"/>
		<path class="st11" d="M57.2,61.2c0.1,0.6,0.8,1,1.6,0.8c0.1-0.7,0.3-1.4,0.4-2.2c-0.2-0.1-0.5-0.1-0.7,0
			C57.6,59.9,57.1,60.6,57.2,61.2z"/>
		<g>
			<path class="st12" d="M48.3,53.2c0.1,0,0.2,0,0.3-0.1c1-0.6,2.5-0.3,2.5-0.3c0.2,0.1,0.5-0.1,0.6-0.3c0.1-0.2-0.1-0.5-0.3-0.5
				c-0.1,0-1.9-0.5-3.2,0.4c-0.2,0.1-0.3,0.4-0.1,0.6C48,53.1,48.1,53.2,48.3,53.2z"/>
		</g>
		<g>
			<path class="st12" d="M58.8,55.3c0.3,0,0.5-0.2,0.5-0.4c0-1-1.3-1.4-2.1-1.5c-0.2,0-0.5,0.1-0.5,0.4c0,0.2,0.2,0.5,0.4,0.5
				c0.4,0,1.3,0.3,1.3,0.6C58.3,55.1,58.5,55.3,58.8,55.3C58.7,55.3,58.7,55.3,58.8,55.3z"/>
		</g>
		<path class="st13" d="M54.8,56c0,0-0.1,3.4,1.9,6.2c0,0,0.1,1.4-2.7,0.9"/>
		<path class="st10" d="M55.6,65c0,0-0.5-0.2-2.9-0.7c-2.5-0.5-3.8-0.6-3.8-0.6s0.1,2.9,3.8,3.2C55.8,67.2,55.6,65,55.6,65z"/>
		<path class="st12" d="M58.6,51.1c0,0,3.3-0.5,4.5-2.6c0,0-1.3,0.2-2.3,0c0,0,1.6-1,1-3.5c0,0-3.3,0.4-4.5,0l1.8-1.2
			c0,0-2.6,0.1-6-0.6c-3.5-0.7-10.7-1-15,2c-4.3,3-7.1,17,2.2,23.1l-0.6-3.1c0,0-1.6-2.8-1-4.7c0.6-1.9,1.7-0.4,1.7-0.4
			s3.3-4.9,3.3-8.2c0-3.3,0-3.3,0-3.3S54.1,46.4,58.6,51.1z"/>
		<path class="st1" d="M40.3,59.3c0,0-2.1-2.7-4.4-1.4c-2.3,1.4,0.8,6.4,3.2,6.4C41.4,64.4,40.3,59.3,40.3,59.3z"/>
	</g>
	<path class="st8" d="M40.4,90.2c0,0,3.2-9.6,2.2-12.6c-1-3-11-6.4-12-5.5c-0.9,0.9-2,3.6-1,6.9C29.6,79,35.9,79.9,40.4,90.2z"/>
	<path class="st8" d="M43.2,103.4L43.2,103.4c-3,3.7-20.7,3.8-20.7,3.8s-11.7,16.1-3.3,21.1c8.3,4.9,23.1,1.5,23.6,1.3
		c-3.3,2.5-23.7,4.2-27.3-0.2c0,0,0,0,0,0c-0.2-0.2-0.3-0.4-0.4-0.7c-0.3-0.9-0.6-2-0.7-3.3c-0.4-4.3,0.2-10.1,0.7-13.6
		c0.6-1.3,1.2-2,1.2-2s-3.8-14.7-2.1-21.2c0.4-1.5,1-2.7,1.9-3.8c10.5,0.2,11.4,18.5,11.4,18.5C30.5,104.4,42.7,103.4,43.2,103.4
		C43.2,103.4,43.2,103.4,43.2,103.4z"/>
	<path class="st0" d="M18.7,184.8c0.1,2.3-11.5,6.8-11.9,3.5C6.2,185,18.3,179,18.7,184.8z"/>
	<g>
		<path class="st1" d="M8.8,186.8c-0.2,1.1-1.3,8.4-0.8,9.7c0,0,0,0.1,0.1,0.1c0.6,1.3,2.3,2.5,2.8,3.3c0.6,0.9,1.6,1,2.5,1.7
			c0.8,0.7,3,0.8,3,0.8s3.4,2.3,3.5,1.1c0.1-1.6-1.9-3-1.9-3l-1.5-3.6c0,0,0.9-4.8,1.9-4.8c1,0,0.6,2,1.1,3.6c0.3,1,1.6,0.9,1.6,0.9
			l0.1-2.9c0,0-0.2-4.1-0.8-4.9c-0.6-0.8-3.4-3.5-3.4-3.5l-1.2-5.9L7.4,180C7.4,180,9,185.8,8.8,186.8z"/>
		<path class="st2" d="M8.1,196.7c0.6,1.3,2.3,2.5,2.8,3.3c0.6,0.9,1.6,1,2.5,1.7c0.8,0.7,3,0.8,3,0.8c-0.8-0.6-2.3-4-2.6-4.2
			c-0.4-0.2-0.6,0.3-1.2,0.3c-0.7,0-0.9-1.2-1.6-1s-1.3,0.3-1.8-0.5C8.9,196.8,8.5,196.7,8.1,196.7z"/>
	</g>
	<path class="st3" d="M17.9,85.8c6.6,3.3,9,16.9,8.3,22.4L16.8,135c0,0-0.2,3.1-1.4,3.6l3.3,46.2c-0.9-1.8-10.6-0.3-11.9,3.5
		c0,0-6.6-44.6-5.6-56.8C1.3,129.1,17.9,85.8,17.9,85.8z"/>
	<path class="st8" d="M65,102.6c0,0,6-0.2,10.7-2.1c-0.3,1.4-0.6,2.1-0.6,2.1S68.6,103.4,65,102.6z"/>
	<path class="st8" d="M77.9,126.2c-4.4,0.4-10.6-0.5-10.6-0.5s6.9,0.1,9.6-1.1C77.4,125,77.7,125.5,77.9,126.2z"/>
</g>
<g>
	<ellipse class="st6" cx="93.9" cy="28.4" rx="35.1" ry="25.4"/>
	<path class="st6" d="M74.8,43l16.6,2.3c0,0-6.9,13.8-25.9,19.6C65.6,64.8,76.5,54.8,74.8,43z"/>
	<text transform="matrix(1 0 0 1 64.2695 33.0962)" class="st14 st15 st16">Thanmirth !</text>
</g>
</svg>
