<?xml version="1.0" encoding="utf-8"?>
<!-- Generator: Adobe Illustrator 24.2.3, SVG Export Plug-In . SVG Version: 6.00 Build 0)  -->
<svg version="1.1" id="Layer_1" xmlns="http://www.w3.org/2000/svg" xmlns:xlink="http://www.w3.org/1999/xlink" x="0px" y="0px"
	 viewBox="0 0 352.2 437.6" style="enable-background:new 0 0 352.2 437.6;" xml:space="preserve">
<style type="text/css">
	.st0{fill:#F0F0F0;}
	.st1{fill:#E0E0E0;}
	.st2{fill:#27DEBF;}
	.st3{opacity:0.1;enable-background:new    ;}
	.st4{opacity:0.2;enable-background:new    ;}
	.st5{opacity:0.3;fill:#FFFFFF;enable-background:new    ;}
	.st6{opacity:0.5;fill:#FFFFFF;enable-background:new    ;}
	.st7{opacity:5.000000e-02;enable-background:new    ;}
	.st8{fill:#263238;}
	.st9{fill:#FFA8A7;}
	.st10{fill:#F28F8F;}
	.st11{fill:#37474F;}
	.st12{opacity:0.15;enable-background:new    ;}
	.st13{fill:#455A64;}
	.st14{fill:#B16668;}
</style>
<g id="Layer_2_1_">
	<g id="Shadow">
		<ellipse id="Shadow-2" class="st0" cx="151.3" cy="384.1" rx="92.7" ry="53.5"/>
	</g>
	<g id="Balloons">
		<g id="Balloons-2">
			<path class="st1" d="M83.2,245.5c3.4,7,2.9,15.9,3.6,23.5c0.8,7.9,2.3,15.8,4.4,23.5c4.2,16.4,9.7,32.9,11.2,49.9
				c0.8,9-0.3,17.7-1.3,26.6c0,0.2,0.4,0.6,0.4,0.3c4.8-16.1,1.4-33.5-2.3-49.4c-3.8-16.4-9.6-32.6-11.3-49.4
				c-0.5-4.7-0.8-9.4-1.3-14.1c-0.4-3.8-0.9-7.7-3-11C83.5,245,83.1,245.2,83.2,245.5L83.2,245.5z"/>
			<path class="st1" d="M80.4,248.8c1.5,0.7,3.6,2.9,2,4.6c-0.6,0.5-1.3,0.7-2,0.8c-0.5,0-0.5,0.1,0,0.3l0.1,1.2
				c-1.9,0.5-3.1,2.3-2.7,4.2c-0.5,0.6-1,1.1-1.7,1.4c-0.2,0.1,0,0.6,0.2,0.5c1.7-0.9,4.1-3.1,2.2-5.1c-0.6-0.6-2.2-1.1-2.6,0
				c-0.6,1.7,2.6,2,3.5,1.8c2-0.5,2.4-2.8,1.7-4.5c-0.6-1.5-2.6-3-4.1-1.6c-1,0.9-0.2,2,0.9,2.4c1.9,0.8,5.2,0.2,5.8-2.1
				s-1.4-4-3.4-4.5C80.1,248.3,80.2,248.8,80.4,248.8L80.4,248.8z"/>
			<path class="st1" d="M54.4,215.5c1.9,5.3,3.2,10.7,5,16c1.6,4.7,3.9,9.1,5.6,13.7c3.9,10.3,5.7,21.1,7.9,31.9
				c1,5.4,2.3,10.7,4,15.9c1.7,4.6,3.7,9.1,5.9,13.5c4.5,9.3,9.2,18.7,12.7,28.4c1.9,5.5,3.3,11.1,4.7,16.7
				c1.7,6.3,2.8,12.7,3.2,19.3c0,0.3,0.5,0.6,0.5,0.2c0.3-5.7-0.7-11.3-2-16.8c-1.2-5.1-2.5-10.3-4-15.3
				c-3.1-9.9-7.6-19.4-12.1-28.7c-2.3-4.7-4.7-9.4-6.6-14.2c-1.9-4.8-3.3-9.8-4.4-14.9c-2.3-10.7-3.8-21.6-7.3-31.9
				c-1.9-5.7-4.6-11-6.7-16.6s-3.5-11.7-6-17.2C54.6,215.1,54.2,215.1,54.4,215.5L54.4,215.5z"/>
			<path class="st1" d="M61.7,297.9c2,3.3,3.1,7,5.1,10.3c1.5,2.3,3.1,4.5,5,6.4c5.3,5.9,11.3,11.4,15.8,18c4.6,6.9,7,15,9,23
				c1,4,1.8,7.9,2.9,11.9c0.4,1.7,0.9,3.4,1.7,5c0.8,1.6,1.9,3.1,2.6,4.7c0.2,0.5,1.3,0.3,1-0.3c-0.7-1.7-1.8-3.1-2.6-4.7
				c-0.8-1.8-1.4-3.7-1.8-5.6c-1-3.9-1.9-7.9-2.8-11.8c-1.8-7.1-3.9-14.2-7.7-20.6s-9-11.4-14-16.7c-3.2-3.4-6.7-6.8-8.9-11
				c-1.6-3-2.8-6.1-4.7-8.9C62,297.3,61.5,297.5,61.7,297.9L61.7,297.9z"/>
			<path class="st1" d="M61.5,301.1c0.3,0.5,0.6,1.1,0.7,1.6c0.2,0.6,0,3.7-1.3,3.9l-2-1c3,0.7,4,2.2,3.1,4.5l-1.1,1.1
				c0.5,1.3-0.2,2.8-1.6,3.3c0,0,0,0-0.1,0c-0.3,0.2,0,0.7,0.4,0.6c5.6-1.7-0.6-7.9-2.3-5.3c-1,1.6,1.6,2.6,2.7,2.5
				c1.9-0.2,3.2-1.9,3-3.8c0,0,0-0.1,0-0.1c-0.2-1.9-1.8-3.4-3.7-3.5c-1.4,0-3.4,1.1-2.1,2.5s3.7,0.4,4.7-0.7
				c1.6-1.8,1.1-4.1-0.3-5.8C61.6,300.6,61.4,300.9,61.5,301.1L61.5,301.1z"/>
			<path class="st2" d="M57,216.5L57,216.5c-0.5-1.8-5.7-5.5-6.4-5.3s-2.6,6-2,7.9l0,0c0.3,0.7,1,1.2,1.7,1.4
				c2.1,0.4,4.3-0.3,5.9-1.8C56.9,218.1,57.2,217.3,57,216.5L57,216.5z"/>
			<path class="st3" d="M57,216.5L57,216.5c-0.5-1.8-5.7-5.5-6.4-5.3s-2.6,6-2,7.9l0,0c0.3,0.7,1,1.2,1.7,1.4
				c2.1,0.4,4.3-0.3,5.9-1.8C56.9,218.1,57.2,217.3,57,216.5L57,216.5z"/>
			<path class="st2" d="M73.9,158c-1.3-4.3-4.2-7.9-8-10.1l0,0h-0.1c-4.6-2.7-10.1-3.3-15.2-1.7c-6.4,1.9-10.6,8.3-12.1,15
				c-0.4,1.7-2.1,2.8-3.8,2.4c-0.6-0.1-1.1-0.4-1.5-0.8c-4.9-4.8-12-7.8-18.4-5.9c-5.1,1.5-9.3,5-11.7,9.8v0.1l0,0
				c-2,4-2.4,8.6-1.1,12.8c4.1,13.6,21.3,23.2,35,28.8l14.5,5.9l8.8-12.9C68.9,189.1,78,171.6,73.9,158z"/>
			<path class="st4" d="M73.9,158c-1.3-4.3-4.2-7.9-8-10.1l0,0h-0.1c-4.6-2.7-10.1-3.3-15.2-1.7c-6.4,1.9-10.6,8.3-12.1,15
				c-0.4,1.7-2.1,2.8-3.8,2.4c-0.6-0.1-1.1-0.4-1.5-0.8c-4.9-4.8-12-7.8-18.4-5.9c-5.1,1.5-9.3,5-11.7,9.8v0.1l0,0
				c-2,4-2.4,8.6-1.1,12.8c4.1,13.6,21.3,23.2,35,28.8l14.5,5.9l8.8-12.9C68.9,189.1,78,171.6,73.9,158z"/>
			<path class="st3" d="M74.5,170.5c-1.4,3.3-13,26-29.8,27.1C24.6,198.8,2,181.5,3.3,166.7c-2,4-2.4,8.6-1.1,12.8
				c4.1,13.6,21.3,23.2,35,28.8l14.5,5.9l8.8-12.9C66.5,192.7,72.8,181.3,74.5,170.5z"/>
			<path class="st2" d="M65,297.4L65,297.4c-1-1.6-6.9-3.9-7.5-3.5s-1,6.4,0.1,8.1l0,0c0.5,0.6,1.2,0.9,2,0.9
				c2.2-0.2,4.1-1.4,5.3-3.2C65.3,298.9,65.3,298.1,65,297.4L65,297.4z"/>
			<path class="st5" d="M65,297.4L65,297.4c-1-1.6-6.9-3.9-7.5-3.5s-1,6.4,0.1,8.1l0,0c0.5,0.6,1.2,0.9,2,0.9
				c2.2-0.2,4.1-1.4,5.3-3.2C65.3,298.9,65.3,298.1,65,297.4L65,297.4z"/>
			<path class="st2" d="M66.3,236.5c-2.3-3.8-6-6.5-10.3-7.7l0,0h-0.1c-5.1-1.4-10.6-0.6-15.1,2.2c-5.7,3.5-8.1,10.8-7.8,17.6
				c0.1,1.7-1.3,3.2-3,3.3c-0.6,0-1.1-0.1-1.6-0.4c-6-3.4-13.6-4.5-19.3-1c-4.5,2.8-7.7,7.3-8.8,12.5v0.1l0,0
				c-0.9,4.4-0.1,8.9,2.2,12.7c7.5,12.1,26.6,17,41.3,18.9l15.5,2l5.2-14.7C69.5,267.9,73.8,248.6,66.3,236.5z"/>
			<path class="st6" d="M66.3,236.5c-2.3-3.8-6-6.5-10.3-7.7l0,0h-0.1c-5.1-1.4-10.6-0.6-15.1,2.2c-5.7,3.5-8.1,10.8-7.8,17.6
				c0.1,1.7-1.3,3.2-3,3.3c-0.6,0-1.1-0.1-1.6-0.4c-6-3.4-13.6-4.5-19.3-1c-4.5,2.8-7.7,7.3-8.8,12.5v0.1l0,0
				c-0.9,4.4-0.1,8.9,2.2,12.7c7.5,12.1,26.6,17,41.3,18.9l15.5,2l5.2-14.7C69.5,267.9,73.8,248.6,66.3,236.5z"/>
			<path class="st7" d="M70.1,248.4c-0.5,3.6-5.9,28.5-21.9,33.8c-19.1,6.3-45.3-4.6-47.9-19.2c-0.9,4.4-0.1,8.9,2.2,12.7
				c7.5,12.1,26.6,17,41.3,18.9l15.5,2l5.2-14.7C68,271.9,71.2,259.2,70.1,248.4z"/>
			<path class="st2" d="M87.6,246L87.6,246c-0.6-1.7-5.9-5.2-6.6-5s-2.3,6.1-1.6,7.9l0,0c0.3,0.7,1,1.2,1.8,1.3
				c2.2,0.3,4.4-0.5,5.9-2.1C87.6,247.6,87.8,246.8,87.6,246L87.6,246z"/>
			<path class="st3" d="M87.6,246L87.6,246c-0.6-1.7-5.9-5.2-6.6-5s-2.3,6.1-1.6,7.9l0,0c0.3,0.7,1,1.2,1.8,1.3
				c2.2,0.3,4.4-0.5,5.9-2.1C87.6,247.6,87.8,246.8,87.6,246L87.6,246z"/>
			<path class="st2" d="M101.4,186.7c-1.5-4.2-4.5-7.6-8.4-9.7l0,0h-0.1c-4.7-2.4-10.2-2.8-15.2-0.9c-6.3,2.2-10.2,8.9-11.3,15.6
				c-0.3,1.7-1.9,2.9-3.6,2.6c-0.6-0.1-1.1-0.3-1.5-0.7c-5.2-4.5-12.3-7.2-18.6-4.9c-5,1.7-9.1,5.5-11.2,10.3v0.1l0,0
				c-1.8,4.1-1.9,8.7-0.4,12.8c4.8,13.4,22.5,22.1,36.5,27l14.7,5.1l8.1-13.3C98.1,218.1,106.2,200.1,101.4,186.7z"/>
			<path class="st3" d="M102.7,199.2c-1.2,3.4-11.6,26.7-28.4,28.6c-20,2.3-43.4-13.9-42.8-28.7c-1.8,4.1-1.9,8.7-0.4,12.8
				c4.8,13.4,22.5,22.1,36.5,27l14.7,5.1l8.1-13.3C95.8,221.7,101.6,210,102.7,199.2z"/>
		</g>
		<g id="Balloons-3">
			<path class="st1" d="M240.7,253.7c-2.2,3.2-3.3,7-4.2,10.8c-1.1,4.2-2.1,8.4-2.8,12.6c-1.7,9.3-2.6,18.7-3.9,28
				c-1.2,9.3-3.3,18.4-6.3,27.3c-3,8.4-6.5,16.5-8.5,25.2c-2.2,10.1-2.2,20.5-0.1,30.6c0,0.3,0.5,0.5,0.5,0.1
				c-0.4-9.2-1.6-18.2,0-27.4c1.5-8.2,4.6-15.9,7.5-23.6c3-7.9,5.3-16.1,6.9-24.5c1.5-8.6,2.4-17.2,3.6-25.8
				c0.7-4.8,1.4-9.7,2.5-14.4c1.4-6.3,2.6-12.8,5.6-18.4C241.3,253.8,240.9,253.4,240.7,253.7L240.7,253.7z"/>
			<path class="st1" d="M243.8,256.9c-2.2,0.4-4.2,2.5-3.2,4.8c0.8,1.8,3.6,2.3,5.3,1.9c1.2-0.3,2.3-1.5,1.2-2.5
				c-1.5-1.3-3.5-0.2-4.1,1.4c-0.7,1.7-0.3,4,1.7,4.6c0.9,0.3,3.7,0.1,3.6-1.3c-0.1-1.3-1.8-1.1-2.6-0.5c-2.1,1.9,0.6,4.3,2.2,5.2
				c0.3,0.1,0.3-0.3,0.1-0.4c-2-1.4-0.1-0.7-2-3.8c-1.8-0.5-2.5-1.3-2.2-2.6c-0.1-0.3,0.1-0.7,0.4-0.9l-0.8-0.1
				c-1.8-0.6-2.4-1.6-1.8-3.2c0.6-1,1.5-1.7,2.6-2.1C244.3,257.3,244.1,256.8,243.8,256.9L243.8,256.9z"/>
			<path class="st1" d="M277.6,210.2c-2,5.9-5.3,11.1-6.9,17.2c-1.6,6.4-2.6,13-4.1,19.5c-2.6,11.6-6.3,23-11,34
				c-4.8,10.8-11.8,20.4-16.1,31.4c-4.5,11.4-7.6,23.4-13.7,34.1c-3.2,5.6-6.7,11.1-8.6,17.4c-2.2,7-3,14.4-2.3,21.8
				c0,0.3,0.5,0.5,0.5,0.1c-0.2-6.7,0.5-13.4,2.2-19.8c1.6-6.2,4.7-11.6,7.9-17.1c5.9-10.2,9.4-21.2,13.4-32.2
				c2-5.8,4.5-11.5,7.6-16.9c2.9-4.9,5.8-9.5,8.2-14.6c5.1-11,9.1-22.5,11.9-34.3c1.7-7,2.9-14.1,4.5-21.2
				c1.5-6.7,5.1-12.5,6.8-19.1C278.1,210.3,277.7,209.9,277.6,210.2L277.6,210.2z"/>
			<path class="st1" d="M263,305.4c-3.7,6.8-10.4,11-15.5,16.8c-5.3,6-8.9,13.2-12.6,20.3c-1.9,3.7-3.9,7.5-6.1,11.1
				s-4.7,6.9-6.9,10.5c-4.7,7.9-6.8,16.5-7.8,25.5c-0.1,0.6,1,0.8,1.1,0.2c1-8.9,3-17.5,7.7-25.3c3.9-6.4,8.2-12.4,11.7-19
				c3.4-6.5,6.6-13,10.9-19c3.4-4.8,7.9-8.5,12-12.6c2.5-2.3,4.5-5,6-8C263.6,305.6,263.1,305.1,263,305.4L263,305.4z"/>
			<path class="st1" d="M261.5,309.7c-1.6,1.6-1.7,4.2-0.2,5.9c0.9,1,3.5,2.2,4.6,0.8s-1-2.6-2.3-2.6c-2.1,0.1-3.8,2-3.6,4.1
				c0,0.1,0,0.2,0,0.3c0.3,1.8,1.9,3.1,3.7,3c1.2,0,2.9-1.1,2-2.5s-3.5-0.1-4.1,1.1c-0.7,1.5-0.1,3.3,1.5,4c0.2,0.1,0.4,0.1,0.5,0.2
				c0.5,0.1,0.4-0.4,0.1-0.6c-1.4-0.7-3-4.5-2.8-6.1l0.4-1.2c0.4-1.1,0.8-1.3,1.4-0.5l-0.3-0.2c-0.9-0.4-1.5-1.4-1.4-2.4
				c0-1,0.3-2.1,0.9-2.9C261.9,309.9,261.6,309.5,261.5,309.7L261.5,309.7z"/>
			<path class="st2" d="M273.6,210.6L273.6,210.6c0.5-1.8,5.5-5.7,6.2-5.5s2.7,5.9,2.2,7.8l0,0c-0.3,0.7-0.9,1.3-1.7,1.4
				c-2.1,0.5-4.4-0.1-6-1.6C273.7,212.2,273.4,211.4,273.6,210.6L273.6,210.6z"/>
			<path class="st3" d="M273.6,210.6L273.6,210.6c0.5-1.8,5.5-5.7,6.2-5.5s2.7,5.9,2.2,7.8l0,0c-0.3,0.7-0.9,1.3-1.7,1.4
				c-2.1,0.5-4.4-0.1-6-1.6C273.7,212.2,273.4,211.4,273.6,210.6L273.6,210.6z"/>
			<path class="st2" d="M255.1,152.6c1.2-4.3,3.9-8,7.7-10.3l0,0l0.1-0.1c4.5-2.8,10-3.6,15.1-2.1c6.5,1.7,10.8,8,12.5,14.7
				c0.4,1.7,2.1,2.7,3.8,2.3c0.6-0.1,1.1-0.4,1.5-0.8c4.8-4.9,11.7-8.1,18.2-6.4c5.1,1.4,9.4,4.8,11.9,9.5l0,0.1l0,0
				c2.1,3.9,2.6,8.5,1.4,12.8C323.6,186,306.6,196,293,202l-14.3,6.3l-9.1-12.6C260.9,183.6,251.4,166.4,255.1,152.6z"/>
			<path class="st4" d="M255.1,152.6c1.2-4.3,3.9-8,7.7-10.3l0,0l0.1-0.1c4.5-2.8,10-3.6,15.1-2.1c6.5,1.7,10.8,8,12.5,14.7
				c0.4,1.7,2.1,2.7,3.8,2.3c0.6-0.1,1.1-0.4,1.5-0.8c4.8-4.9,11.7-8.1,18.2-6.4c5.1,1.4,9.4,4.8,11.9,9.5l0,0.1l0,0
				c2.1,3.9,2.6,8.5,1.4,12.8C323.6,186,306.6,196,293,202l-14.3,6.3l-9.1-12.6C260.9,183.6,251.4,166.4,255.1,152.6z"/>
			<path class="st3" d="M254.8,165.1c1.5,3.3,13.7,25.7,30.6,26.3c20.1,0.7,42.2-17.2,40.5-31.9c2.1,3.9,2.6,8.5,1.4,12.8
				C323.6,186,306.6,196,293,202l-14.3,6.3l-9.1-12.6C263.4,187.1,256.8,175.8,254.8,165.1z"/>
			<path class="st2" d="M258.5,306.2L258.5,306.2c1-1.5,7-3.8,7.6-3.4s0.8,6.4-0.2,8.1l0,0c-0.5,0.6-1.2,0.9-2,0.8
				c-2.2-0.2-4.1-1.5-5.2-3.3C258.2,307.7,258.1,306.9,258.5,306.2L258.5,306.2z"/>
			<path class="st3" d="M258.5,306.2L258.5,306.2c1-1.5,7-3.8,7.6-3.4s0.8,6.4-0.2,8.1l0,0c-0.5,0.6-1.2,0.9-2,0.8
				c-2.2-0.2-4.1-1.5-5.2-3.3C258.2,307.7,258.1,306.9,258.5,306.2L258.5,306.2z"/>
			<path class="st2" d="M258.3,245.3c2.4-3.7,6.1-6.4,10.4-7.5l0,0h0.1c5.1-1.3,10.6-0.4,15,2.5c5.6,3.6,7.9,10.9,7.5,17.8
				c-0.1,1.7,1.2,3.2,2.9,3.4c0.6,0,1.2-0.1,1.7-0.4c6-3.2,13.6-4.2,19.3-0.6c4.5,2.8,7.6,7.4,8.5,12.6v0.1l0,0
				c0.8,4.4-0.1,8.9-2.5,12.6c-7.7,12-26.9,16.4-41.6,18.1l-15.5,1.7l-4.9-14.8C254.5,276.6,250.6,257.3,258.3,245.3z"/>
			<path class="st3" d="M254.3,257.2c0.4,3.6,5.3,28.6,21.2,34.2c19,6.7,45.4-3.7,48.2-18.2c0.8,4.4-0.1,8.9-2.5,12.6
				c-7.7,12-26.9,16.4-41.6,18.1l-15.5,1.7l-4.9-14.8C255.9,280.7,252.9,268,254.3,257.2z"/>
			<path class="st2" d="M234.6,255.5L234.6,255.5c0.5-1.8,5.6-5.6,6.4-5.3s2.6,6,2,7.8l0,0c-0.3,0.7-0.9,1.3-1.7,1.4
				c-2.1,0.4-4.3-0.3-5.9-1.8C234.7,257.1,234.4,256.3,234.6,255.5L234.6,255.5z"/>
			<path class="st5" d="M234.6,255.5L234.6,255.5c0.5-1.8,5.6-5.6,6.4-5.3s2.6,6,2,7.8l0,0c-0.3,0.7-0.9,1.3-1.7,1.4
				c-2.1,0.4-4.3-0.3-5.9-1.8C234.7,257.1,234.4,256.3,234.6,255.5L234.6,255.5z"/>
			<path class="st2" d="M217.6,197c1.3-4.2,4.1-7.9,7.9-10.1l0,0l0.1-0.1c4.6-2.7,10.1-3.3,15.1-1.8c6.4,1.9,10.6,8.3,12.1,15
				c0.4,1.7,2,2.8,3.7,2.4c0.6-0.1,1.1-0.4,1.5-0.8c4.9-4.8,12-7.8,18.4-5.9c5.1,1.5,9.3,5,11.7,9.8v0.1l0,0c2,4,2.4,8.6,1.1,12.8
				c-4.1,13.6-21.3,23.2-35,28.9l-14.4,5.9l-8.8-12.8C222.6,228.1,213.5,210.7,217.6,197z"/>
			<path class="st6" d="M217.6,197c1.3-4.2,4.1-7.9,7.9-10.1l0,0l0.1-0.1c4.6-2.7,10.1-3.3,15.1-1.8c6.4,1.9,10.6,8.3,12.1,15
				c0.4,1.7,2,2.8,3.7,2.4c0.6-0.1,1.1-0.4,1.5-0.8c4.9-4.8,12-7.8,18.4-5.9c5.1,1.5,9.3,5,11.7,9.8v0.1l0,0c2,4,2.4,8.6,1.1,12.8
				c-4.1,13.6-21.3,23.2-35,28.9l-14.4,5.9l-8.8-12.8C222.6,228.1,213.5,210.7,217.6,197z"/>
			<path class="st7" d="M217,209.5c1.4,3.3,13,26,29.9,27c20.1,1.2,42.6-16.2,41.3-30.9c2,4,2.4,8.6,1.1,12.8
				c-4.1,13.6-21.3,23.2-35,28.9l-14.4,5.9l-8.8-12.9C225,231.7,218.7,220.3,217,209.5z"/>
		</g>
	</g>
	<g id="Character">
		<g id="Character-2">
			<path class="st8" d="M138.3,17.4c-1.6-1.6-3.6-2.8-5.9-3.3c-7.4-1.7-15,1.2-19.6,7.2c-3.9,5.4-4.7,12.4-4.1,19.1
				s2.3,13.1,2.8,19.7c0.5,5.9-5.7,10.7-9.8,14c-0.8,0.6-1.6,1.5-1.2,2.4c0.3,0.5,0.9,0.9,1.5,1c7,2,14.5-0.3,19.3-5.8l0.1,4.9
				c2.7-0.5,5.1-2.1,6.4-4.6c1.3-2.4,2-5,2.2-7.8c0.9-9-1.8-17.5-2.1-26.4c-0.3-10,3.2-17.4,9.5-16.3c2.6,0.5,3.8-0.4,2.1-2.7
				C139.2,18.4,138.8,17.9,138.3,17.4z"/>
			<path class="st2" d="M136.3,19.2c-0.3-0.4-2.4-10.8,2.3-16.5s7-1.4,6.5,3.6C144.5,11.8,141.2,16.6,136.3,19.2z"/>
			<path class="st2" d="M137.8,19c-0.5,0.3-11.1,0.8-16-4.6s-0.4-7.1,4.5-6C131.6,9.8,135.9,13.8,137.8,19z"/>
			<path class="st9" d="M230,112.7c-3.8-3.8-12.7-14.4-14.6-17c-2.4-3.2-8.8-10.9-12.7-13.8s-12.1-4.3-18.6-3.8
				c-0.5,8,6.7,20.5,6.7,20.5l16.4,16.5c9.6,8.6,21.4,13.5,34.8,15.6C240.8,127,233.8,116.4,230,112.7z"/>
			<path class="st10" d="M207.3,115.1c1.9,0.4,8.3-0.1,12.6,0.8s12.1,4.1,16.3,9.8L207.3,115.1z"/>
			<path class="st11" d="M184.1,78.1c2.2-0.1,12-1.5,18,2.9c5.4,4,9.5,9.7,13.9,15.1c2.2,2.7,5.5,7.1,5.5,7.1s-4.4,7.4-15.4,12.7
				l-19-18.2L184.1,78.1z"/>
			<path class="st11" d="M178.2,362.1c-0.4,0.1-0.7,0.4-0.8,0.8c-0.5,1.7-0.5,3.7-0.8,5.4c-0.6,2.8-1.1,6.7-0.7,8.9s3.4,4.3,9,5.9
				c3.4,1,9.4,3.9,12.1,6.4c3.4,3.1,10.6,5.6,15.4,5.8c5.7,0.2,11.7-1.4,13-5.5c0.6-1.7,1-4.7-7.1-7.9c-2.8-1-5.5-2.3-8-3.7
				c-3.8-2.2-9.5-5.2-12.6-8.1c-2.9-2.9-4.5-6.8-4.6-10.9c-3.6-1.2-7.5,0.7-8.7,4.3c-0.3,1-0.4,2-0.3,3c-0.4,0.2-0.9-0.2-1-0.6
				c-0.1-0.4-0.1-0.9-0.1-1.3c-0.2-0.9-0.9-1.7-1.9-2C180.1,362.2,179.2,362,178.2,362.1z"/>
			<path class="st11" d="M100.1,362.3c0.5,1.3,0.7,2.6,0.7,3.9c0.2,1.1,0.4,2.2,0.5,3.3c0,1,0.2,2.2,1.2,2.5
				c0.8,0.2,1.6-0.1,2.1-0.7c0.5-0.6,0.9-1.3,1.3-1.9c1-1.3,2.5-2.2,4.2-2.3c1.6-0.1,1.8,0.1,2.8,1.3c-0.1,0.3-0.8,1.9-0.9,2.3
				c-3.2,8-3.3,15.2-1.4,23.5c0.4,1.7,2.8,4.5,4.2,5.8c0.8,0.8,1.6,1.6,2.5,2.3c0.8,0.6,1.6,1.3,1.7,2c0.1,1,0,1.9-0.5,2.8
				c-0.7,1.1-1.8,1.9-3.1,2.3c-4.8,1.7-10.1,1.6-14.7-0.5c-2-1-3.7-2.4-5-4.2c-2.7-4.8-2.4-9.3-2.5-13.4c-0.1-9.1-1.6-13.8-2.3-18.3
				C90,367.5,98.4,361.5,100.1,362.3z"/>
			<path class="st9" d="M196.9,367.2c-3.4-3.6-4-7.1-3.5-13.9s3.8-66.3,5.2-81c2.3-24.7,3.5-94.1,1.4-111.2l-65.8,5.2
				c-4.8,12-8.3,26.7-7.6,49.8c0.6,17.6,0.2,65.4,0.2,65.4s-8,7-13.8,20.9c-5.1,12.2-10.9,54.6-10.9,54.6l0,0
				c-0.5,1.8-1.2,3.6-1.9,5.4c-1.4,1.7-2.3,3.9-2.4,6.2c0,7.3,0.8,14.6,2.3,21.8c0.8,3.7,3.1,6.1,6.8,7.5c0.8,0.3,1.7,0.5,2.6,0.4
				c0.5,0,0.9-0.2,1.3-0.5c0.6-0.6,0.1-2.1-0.1-2.9c-0.2-1.2-0.3-2.4-0.3-3.6c-0.1-2.4,0-5.3,0.2-7.7c0.3-5.3,1.2-10.6,2.6-15.8
				l1.3-3l0,0c0,0,28.6-57.6,36.7-71.7c6.5-11,10.8-53.8,15.3-77.2l7.7,55.9c0,0-3.4,10.1-4.3,17.8c-1.2,10.4,6.1,51,8.3,65.5
				c0.4,2.7,0.4,5.4,0.1,8.1l0,0c0.8,6.3,5.5,8.2,10.3,11.7c2.4,1.8,13,8.2,19.5,9.5c5.2,1.1,9.2-2.1,6-4.1
				C207.9,376.3,200.2,370.9,196.9,367.2z"/>
			<path class="st2" d="M163.6,233.7c0.7-6.3,2.5-14.9,2.5-14.9l2.9,24.2l2.4,27.8c-0.9,3.7-1.6,7.5-2.1,11.3
				c-1,7.5-0.5,19.5,0.8,27.5s4.2,22.4,4.2,22.4c11.9,6.2,21-0.1,21-0.1s1.2-16.1,3.4-39.6s3-47.1,3.2-66.7c0,0,2.8-48.8-5.4-81.7
				c-9.7,6.8-38.5,8.2-50.1-1c0,0-4.6,7.7-14.8,24.9c-8,13.5-5.6,35.1-5.8,53.3c-0.2,27.9-0.1,59.5-0.1,59.5
				c-3.7,4.1-7,8.5-9.9,13.2c-5.1,8.2-7.7,26.4-7.7,26.4s5.2,10.9,22.7,11.4c0,0,17.1-31,21.3-38.1S163,240,163.6,233.7z"/>
			<path class="st12" d="M166.1,218.8l6.4-24.6c0,0,12.3-1.3,21.8-8.3c0,0-2,9-18.9,11.7l-7.3,24.2l0.9,21.4L166.1,218.8z"/>
			<path class="st13" d="M200.1,97.6c-8-10.5-10.7-14.1-16-19.5l-29.2-1.3c-2.3,0.2-15.3,2.3-15.3,2.3c-3.3,1.4-6.8,9.2-6,15.3
				c0.9,6.4,1.6,12.8,3.2,20.6s4.1,14,4.7,16.5c1.1,5.1,1.7,10.3-1,15.4c-5.5,10.5-10.1,17.4-11.9,26.2c3.2-0.9,6-2.5,8.4-4.8
				c3.6-3.4,5.7-5,8.6-9c0,0,0.3,6,6.2,13.9c1.5,2,3.3,3.9,5.2,5.5c10.7,9,42.9,12.9,43.9-15.2c0,0-3.1-12.8-3.8-20.4
				s-0.7-12.2-0.7-14.2C209.6,119.5,205.3,104.4,200.1,97.6z"/>
			<path class="st9" d="M79.4,122.2c3.5-6.1,8.1-7.7,13.9-12s17.8-13.9,25.2-18.9c8.4-5.7,14.9-10.8,21.2-10.7c0,0,1-0.2,2.8,4.8
				s1.5,17.1-2.5,20.3s-36.7,21.3-36.7,21.3L79.4,122.2"/>
			<path class="st10" d="M119,118.1l-2.4-4.7c-2.2,1.5-5.8,2.9-11.8,3.2s-16.4,0.1-22.3,3.6c-0.8,0.5-1.2,1.4-1,2.3l21.8,4.3
				C103.4,126.9,110.8,122.8,119,118.1z"/>
			<path class="st11" d="M139.6,79.1c-3.6,0-8.5,2.2-12.8,5.4c-5.3,3.9-19.3,14.6-19.3,14.6s2.8,15,12.5,18.8c0,0,18.1-10,19.5-11.1
				s3.9-3.5,4.4-12S141.6,82.4,139.6,79.1z"/>
			<path class="st11" d="M178.9,124.3c0,0-7.9,7-17.6,4.2c-3.7-1-7-3.2-9.3-6.3c-0.2-0.3-0.7-0.3-1-0.1c-0.2,0.2-0.3,0.5-0.2,0.8
				c1.4,3.2,4.3,7,10.8,8.5C173.3,134.3,178.9,124.3,178.9,124.3z"/>
			<path class="st8" d="M147.9,9.7c10-3.9,17.3-3.2,22.3-2.1c20.7-9.3,37.6,18.3,19.1,32c0,0-0.9,21.5-17.2,26.7L154,70
				c-2.7-7.5-18.4-9.9-22.7-26.6C126.4,27.7,137.2,13.9,147.9,9.7z"/>
			<path class="st9" d="M179.7,17.4c3.7,1.5,9.2,9.4,11.6,27.3c2,15.2-2.3,19.7-4.6,21.2s-7.2,1.6-11.9,1.5l1.4,10.5
				c0,0,4.8,3,5.8,8.1c0.8,4.2-10.5,6.8-18.2,2.2c-3.6-2.1-6.6-5.1-8.6-8.8l-2.9-21.9c0,0-2.5,3.2-7,0.8c-4.9-2.5-5.9-8.2-3.4-11.7
				s8.4-2.8,10.2,1.2c0,0,6.5-1.4,15.1-8.9C176.5,31,178,24.2,179.7,17.4z"/>
			<path class="st8" d="M171,43.7c0.2,1.1-0.5,2.1-1.6,2.2s-2.1-0.5-2.2-1.6c-0.2-1,0.5-2,1.5-2.2C169.8,41.9,170.8,42.6,171,43.7z"
				/>
			<path class="st14" d="M172.6,54.1l7.6,1.5c-0.3,2.1-2.2,3.5-4.3,3.2c0,0-0.1,0-0.1,0C173.6,58.3,172.2,56.2,172.6,54.1z"/>
			<path class="st10" d="M175.7,58.7c0.6,0.1,1.3,0.1,1.9-0.1c-0.2-1.6-1.6-2.9-3.2-2.9c-0.6,0-1.1,0.2-1.6,0.4
				C173.3,57.5,174.4,58.4,175.7,58.7z"/>
			<path class="st8" d="M186.8,35.6l-4.3-2.1c0.5-1.2,1.8-1.7,3-1.2c0,0,0.1,0,0.1,0.1C186.8,32.9,187.3,34.4,186.8,35.6z"/>
			<path class="st8" d="M186.6,40.2c0.2,1.1-0.5,2-1.6,2.2s-2-0.5-2.2-1.6c-0.2-1,0.5-2,1.5-2.2C185.3,38.4,186.4,39.1,186.6,40.2z"
				/>
			<polygon class="st10" points="177.3,39.9 179.4,51.3 185.1,48.5 			"/>
			<path class="st10" d="M174.7,67.5c-5,0.1-15.5-1.2-17.6-4.9c0.9,1.9,2.4,3.5,4.3,4.5c3.4,2.1,13.8,3.4,13.8,3.4L174.7,67.5z"/>
			<path class="st9" d="M242.1,130.7c-8.4-7.2-11.1-11.3-34.8-15.7c0,0-13.1-4-14.7-5.2s-4.9-1.3-7.3-2.1s-11.1-4-13.3-5.5
				s-3.3-2.5-7.2-2.8s-9.2-0.9-10.4-0.8s-2.4,2.9-3.6,5s-1.9,2.4-0.9,6.7c0.6,2.8,1.5,3.1,1.5,3.1c0.7,0.3,1.6-1,1.6-1
				c1.4,0.4,1.6-1.2,1.6-1.2c1.1,0,3.1-3.5,3.1-3.5l2.1-0.5c1.8,0.5,5.6,3.6,4.3,6.5s-5.8,4-8.5,6s-3,6.4-1.8,7
				c0.7,0.4,1.6-1.1,4-2.7c2.1-1.4,4.5-2.4,6.9-3.2c5.3-1.6,9.9-0.5,14.4-0.8s5.9-2,21.2,7.6c6.3,3.9,11.7,7.4,16.9,9.3
				c5.9,2,12,3.1,18.2,3.1C242.6,140.6,243.3,134.4,242.1,130.7z"/>
			<path class="st10" d="M182.2,116.9c-2.1-0.5-4.1-1.5-5.8-2.8c-1.9-1.3-3.9-3.9-5.3-5.2s-3.5,0-4.7,0c-0.7,0-1.4-0.4-1.9-1
				c1.9-0.4,1.9-1.5,1.9-1.5c-1.1,0.5-2.4,0.6-3.6,0.3c-0.8-0.4-0.8-1.7-0.8-1.7c-0.1,1.1-1.2,1.6-2.5,1.8s-1.8-0.5-1.8-0.5
				c0.1,0.5,0.1,1.1,0,1.7l2.1-0.5c0.3,0.1,0.5,0.2,0.8,0.3c1.9,1,4.7,3.7,3.6,6.2c-0.5,1-1.3,1.9-2.3,2.4l0,0
				c4.9-1.4,5.8-4.6,7.1-5.1c0.9-0.3,2.1-0.1,4.7,2.1C175.9,115.5,179,116.7,182.2,116.9z"/>
			<path class="st10" d="M165.4,102.7c-1.9,0-3.9,0-5.8,0.2c-0.8,0.2-3.8,2.3-4.4,2.6s-0.8,2.4-1.2,3.7s-0.3,1.6,0.3,2
				c0,0-1.3-0.2-0.7-2.1s0.7-3.8,1.4-4.3c1.4-1,2.9-1.8,4.5-2.5C160.1,102.3,165.4,102.7,165.4,102.7z"/>
			<path class="st10" d="M157.6,99.2c-1.1-0.2-1.4,0.3-2.3,1.3c-1.3,1.6-2.4,3.3-3.5,5c-0.1,0.8-0.1,1.7,0,2.5
				c0.1,0.9,0.1,3.1,1.1,4.5c0,0-0.5-0.1-1-1.4c-0.4-1.5-0.6-3-0.6-4.5c-0.1-0.8,0-1.1,0.8-2.3c1-1.5,2.1-3,3.3-4.4
				C156.2,99.2,156.5,98.9,157.6,99.2z"/>
			<path class="st10" d="M186.7,120.7c-0.8-1.1-1.1-2.4-1-3.8c0-1.8-0.1-2.2-0.5-0.8s-2.1,3.9-3.5,3.9
				C183.4,119.8,185.1,120.1,186.7,120.7z"/>
			<path class="st9" d="M79.4,122.2c-3.5,6.1-4.7,10.9-2.4,13.5c1.8,2,5,1.7,9.6,2c4.4,0.2,12.5-0.8,18.2-3.9
				c8.3-4.7,12.6-7.2,19.4-7.8c6.4-0.6,9.3-2.1,12.8-2.4c4.2-0.4,8.6-0.5,11.5,1c1.3,0.7,2.6,1.5,3.8,2.4c0.3,0.1,0.7-0.2,0.8-1.1
				c0.1-1.1-0.2-2.2-0.7-3.1c-1.1-2-4.4-3.4-8-4s-6.1-2.4-6.6-4.5c-0.4-1.7-0.2-3.4,0.5-4.9c0.7,0.2,1.4,0.4,2.1,0.5
				c1,0.1,2,0.2,2.9,0.2c0.7,0.9,1.5,1.8,2.4,2.5c0.9,0.6,1.6,0.8,2.1,0.5c0.4,0.7,1.1,1.3,1.9,1.5c1.1,0.1,1.4-0.4,1.4-0.4
				s-0.4-2.2-0.5-3.1s-0.1-2.3-0.2-3s-0.7-1.2-2.4-3s-2.5-3.5-3.3-3.7c-0.8-0.1-1.6,0-2.4,0.2c-0.6-0.1-1.1-0.1-1.7,0
				c-1.4,0.1-3.2,0.3-5.4,0.5s-4.7,0.1-5.3,0.7s-1.6,2.1-2.9,3.7c-1.9,2.1-4,4.1-6.1,5.9c-1.1,0.9-2.2,1.8-3.4,2.6
				c-1.2,0.8-2.6,1.5-4,2c-2.4,0.7-6,0.9-10.6,1.3C94.9,118.6,82.7,118.5,79.4,122.2z"/>
			<path class="st10" d="M142.4,118.2c-2.5-0.8-4.3-2.3-4.7-4c-0.4-1.7-0.2-3.4,0.5-4.9c-0.6,0.6-1.3,1-2.2,1c-1.3,0-2.6-0.4-3.7-1
				c0.6,0.9,1.5,1.5,2.6,1.7c-1.3,0.7-2.7,1.2-4.1,1.7c-2.3,0.7-2.8,3-3.6,5.4s-1.1,4.8-3.8,6.2c0,0,2.7-0.4,5.2-3.8
				s4.2-4.3,6.8-4.4S139.6,117.9,142.4,118.2L142.4,118.2z"/>
			<path class="st10" d="M147.7,112.9c0.6-0.5,0.8-0.7,0.1-1.6s-1.8-2.3-2.3-2.9c-0.7-0.7-1.6-1.2-2.5-1.6c-1.3-0.6-1.8-1.2-3.1-1.3
				c0.7-0.1,1.5,0.1,2.1,0.4c0.9,0.4,3,1.6,3.5,1.9c0.8,0.8,1.5,1.7,2.1,2.6c0.4,0.5,1.1,1.4,1,1.8S147.7,112.9,147.7,112.9z"/>
			<path class="st10" d="M147.7,112.9c0.6,0.5,1.4,0.7,2.1,0.4c0.7-0.4,0.6-0.7,0.2-1.7c-0.4-1-0.7-2.1-1-3.1
				c-0.1-0.9-0.5-1.7-1.2-2.3c-1.6-1.2-5.2-4.2-5.6-4.8c0,0,3.6,2.7,4.3,3.1c1.1,0.7,2.5,1.7,2.7,2.4s0.9,3.5,1.1,3.9
				c0.3,0.6,0.5,1.3,0.5,2C150.5,113.4,149.7,114.5,147.7,112.9z"/>
			<path class="st10" d="M123.8,126L123.8,126c-2.1-0.2-3.1-1.7-4.1-2.2s0.1,0.9,0,1.8c-0.1,0.6-0.4,1-0.8,1.4l0,0
				C120.5,126.5,122.1,126.2,123.8,126L123.8,126z"/>
		</g>
	</g>
</g>
</svg>
