<?xml version="1.0" encoding="utf-8"?>
<!-- Generator: Adobe Illustrator 24.2.3, SVG Export Plug-In . SVG Version: 6.00 Build 0)  -->
<svg version="1.1" id="Layer_1" xmlns="http://www.w3.org/2000/svg" xmlns:xlink="http://www.w3.org/1999/xlink" x="0px" y="0px"
	 viewBox="0 0 128.8 300" style="enable-background:new 0 0 128.8 300;" xml:space="preserve">
<style type="text/css">
	.st0{fill:#C96F32;}
	.st1{fill:#FF8B66;}
	.st2{fill:#EF6E4B;}
	.st3{fill:#F2A668;}
	.st4{fill:#9F1600;}
	.st5{fill:#F47458;}
	.st6{fill:#8B383E;}
	.st7{fill:#DB614D;}
	.st8{fill:#1A4850;}
	.st9{fill:#FFB878;}
	.st10{fill:#FFFFFF;
	  font-family: 'Patua One', cursive !important;
	  
	  
}
	.st11{font-family:'ComicSansMS-BoldItalic';
	
	
	}
	.st12{font-size:13px;}
</style>
<g>
	<path class="st0" d="M31.8,90.6c-0.9-1.5-8.3,6.6-6.2,11.5c2.1,5,6.2,4.1,6.2,4.1S34.5,95,31.8,90.6z"/>
	<g>
		<path class="st1" d="M22.5,78.5c0,0,0,0,4.1,4.4c4.1,4.4,3.1,4.7,2.3,7.7c-0.7,2.8-6.6,2.2-8.9,1.4c-2-0.7-7.3,0.4-8.7-0.6
			c-0.6-0.4,0-0.6,1.7-0.8c2-0.2,3.8-1,3.8-1c-1.3-1.7-8.4-0.4-9.5-2.3c-0.5-1,8,0.7,8.9-0.2c0,0-0.4-0.6-4.5-1.8
			c-2.4-0.7-4.8-1.3-4.9-2c-0.2-1.3,4.4,0.8,10.4,1.3c0,0-2.4-1.1-4.7-2c-2.1-0.8-4.2-1.4-3.7-2.2c0.4-0.7,3.6,0.7,5.7,1.5
			c3.9,1.5,7.1,1.7,8.8,1.8c0.8,0,1.2,0,1.2,0C20.7,78.9,22.5,78.5,22.5,78.5z"/>
		<path class="st2" d="M24.5,83.7c0,0-0.4,2.5,1.1,3.9c0,0-3.1-0.8-2.4-3.9C24.1,83.8,24.5,83.7,24.5,83.7z"/>
	</g>
	<path class="st1" d="M29.6,87.3l4,8.6l-3.9,8.3c0,0-3-9.8-4-12.9C24.6,88.2,29.6,87.3,29.6,87.3z"/>
	<path class="st3" d="M74.7,73.9c0,0-13.8,4.5-17.9,7.9L45.6,113c0,0-0.4-2.2-1.1-1.3L31.8,90.6c0,0-0.2,11.5-6.2,11.5
		c0,0,12.4,30.6,19.2,32.3c6.9,1.7,18.7-25.3,18.7-25.3L74.7,73.9z"/>
	<path class="st0" d="M40.4,154.4c5.7-5.4,53.2-1.7,58.4,3.2c5.2,4.9-7.7-64.6-7.7-64.6S67.7,91,66.4,96.5
		C59.5,125.4,40.4,154.4,40.4,154.4z"/>
	<path class="st0" d="M82.1,70.2c0,0,8.8-3.5,16.7-0.9l1.4,10.1c0,0-18.7,6.1-24.8,4.3C69.3,81.9,67.7,77.6,82.1,70.2z"/>
	<path class="st2" d="M17.7,298.2c2.1-1.6,7.7-8.2,8.8-11.6c1.6-4.7,3.5-11.3,5.4-18.4h8.3c-2.7,7.8-4.4,14.2-5.2,17.2
		c0,0.5,0.2,0.9,0.3,1.4c0.2,0.7,0.7,11.5,0.7,11.5H17.5C17.5,298.2,17.6,298.2,17.7,298.2C17.7,298.2,17.7,298.2,17.7,298.2z"/>
	<path class="st1" d="M79.7,268.2h9.8c-1.8,9-3.3,16.7-3.3,16.7v13.3H75.6c1-4,4-15.9,4-21C79.5,274.3,79.6,271.3,79.7,268.2z"/>
	<path class="st2" d="M29.6,276.4c5.8-20.1,13-50.4,13.9-55.4c0.6-3.2,1.1-13.6,2.6-26.2c0.4-14.4,2.2-47.4,11.3-66.2l21.3,0.4
		c-0.9,14.9,15.2,30.9-4.4,48.2c-2.5,6.4-11,28.2-12.2,37.8c-1.4,11.3-3.8,16.3-11.1,29c-6.3,10.9-10.8,23.7-13.5,32.5H29.6z"/>
	<path class="st1" d="M101.7,193.8L101.7,193.8c-1.4,6.3-3.3,10.6-4.4,15.9c-1.5,7.8,2.9,19-1.6,31.5c-2.1,5.9-6,25.5-8.1,36.3h-8.1
		c0-0.1,0-0.2,0-0.3c0-26.3,4-57.7,3.4-69.6c-0.3-5-1.2-12.2-2.2-18.7c0,0-3.1-18.9-6.2-20.5c-12.5-6.5-17.2-40-17.2-40l31.8,1.3
		c0,0,18.5,13.8,13.7,38.4c0,0,0,0.3,0,0.7C103.7,180.6,102.9,188.1,101.7,193.8z"/>
	<path class="st4" d="M36.9,298.2c0,0,0.8-9.9-1.3-12.5c0,0-2.4,3.4-5.6,3.4c-2.1,0-3-4.4-4.8-3.4c-1.6,0.9-2.7,3.3-6.9,5.9
		c-4.3,2.5-7.7,1.8-8,6.6H36.9z"/>
	<path class="st4" d="M87.7,287.9c0,0-0.1-3.3-5.2-2.9c-5.1,0.4-4.7,3.7-4.7,3.7s-0.8-0.5-1.4,0c-0.7,0.5-0.1,5.1-1.4,6
		c-1.3,1-0.9,3.5-0.9,3.5h14.8c0,0,0.8-3.2-0.7-4.4S90.5,288.3,87.7,287.9z"/>
	<path class="st5" d="M94.3,118.7c3.8,8.3,15.5,37.6,11.6,76.7c0,0-11.4,6.4-35.9,5.7c-26.5-0.8-33-8.4-33-8.4
		c10.4-36.5,23.9-79.4,23.9-79.4c-14.7-22.5,11-38.3,11-38.3s0.2-0.1,0.5-0.2c3.4-1,22-6.1,34.2,0.9c0.8,0.5,1.6,1,2.3,1.5
		C122,87.5,94.3,118.7,94.3,118.7z"/>
	<g>
		<path class="st6" d="M101.1,40.6c0,0,5.6-5.2,11-0.7c5.4,4.5-0.3,13.6,0,15.3c0.3,1.7,4.7,2.1,3.6,4.2c-1.1,2.1-3.9,2.5-3.6,3.5
			c0.3,1,2.9,2.7,1.8,3.7c-1.1,1.1-3.7,0-3.5,1.8c0.2,1.8,1.5,4.2-0.9,4.4c0,0,1.9-2.1,0.2-2.8c-1.7-0.7-3,0.1-3.8-2.1
			c-0.8-2.2,2.8-3,1.2-4.2c-1.6-1.2-5.1-1.2-3.4-3.1c1.7-1.9,2.2-3.6-0.8-5.2C99.8,53.9,101.1,40.6,101.1,40.6z"/>
		<path class="st6" d="M76.8,38.1C70.5,38,70.1,50.4,77.6,57C85.2,63.6,87.1,38.3,76.8,38.1z"/>
		<path class="st1" d="M98.4,36.9c0,0-18.9-5.7-22.6,6.3c-3.8,11.9-0.3,24.5,8.5,23.7C96.7,65.6,113,43.6,98.4,36.9z"/>
		<path class="st7" d="M88.9,53.6c0.1,0.7-0.7,1.4-1.6,1.5c-1,0.1-1.9-0.4-2-1.1c-0.1-0.7,0.7-1.4,1.6-1.5
			C87.9,52.4,88.8,52.9,88.9,53.6z"/>
		<g>
			<path class="st6" d="M87.4,46.3c-0.1,0-0.2-0.1-0.3-0.2c-0.8-1.1-2.3-1-2.3-1c-0.2,0-0.4-0.1-0.4-0.3c0-0.2,0.1-0.4,0.3-0.4
				c0.1,0,2-0.2,3.1,1.3c0.1,0.2,0.1,0.4-0.1,0.5C87.6,46.3,87.5,46.3,87.4,46.3z"/>
		</g>
		<g>
			<path class="st6" d="M78.7,44.5c-0.1,0-0.2,0-0.2-0.1c-1.1-0.8-2.5-0.3-2.5-0.3c-0.2,0.1-0.4,0-0.5-0.2c-0.1-0.2,0-0.4,0.2-0.5
				c0.1,0,1.9-0.7,3.4,0.4c0.2,0.1,0.2,0.3,0.1,0.5C78.9,44.5,78.8,44.5,78.7,44.5z"/>
		</g>
		<path class="st8" d="M76.8,57c0,0,2.8,1.6,7.8,0.2c0,0-1.5,5.3-4.7,4.6C76.8,61.2,76.8,57,76.8,57z"/>
		<path class="st6" d="M90.8,43c0,0,4.3,4.9,4.1,11.3c0,0,3.2-3.5,4.8-0.5c1.7,3-5,7.4-5,7.4s10.7,0.5,11.9-11.9
			C107.2,44.3,99.7,39.5,90.8,43z"/>
		<path class="st2" d="M94.5,58.7c-1.4,3.5-7,9.6-12.9,7.8c0,0,1.5,5.2-1,7.1c0,0-2.6,4,3.3,4.6c7.3,0.7,11.4-4.6,11.4-4.6
			c-3.2-6.4,1.2-14.3,1.2-14.3C95.1,60.3,94.5,58.7,94.5,58.7z"/>
		<g>
			<path class="st7" d="M77.7,55.2l0.3-0.7c-0.1-0.1-1.4-0.6-0.9-1.7c0.2-0.3,0.4-0.5,0.6-0.6c0.5-0.1,1,0.1,1,0.1l0.4-0.7
				c0,0-0.9-0.4-1.7-0.2c-0.5,0.2-0.9,0.5-1.1,1.1C75.7,54,77,55,77.7,55.2z"/>
		</g>
		<path class="st8" d="M86.1,50.6c-0.1,0.8-0.5,1.4-1.1,1.3c-0.5,0-0.9-0.7-0.9-1.4c0.1-0.8,0.5-1.4,1.1-1.3S86.1,49.8,86.1,50.6z"
			/>
		<path class="st8" d="M86.6,50.4c0,0-0.4-1.8-1.1-1.8c-0.7,0-1.8,1.1-1.8,1.1l-1.3-0.8l1.2,0.4c0,0,1.1-1.3,2-1.1
			C86.5,48.5,86.6,50.4,86.6,50.4z"/>
		<path class="st8" d="M78.2,49.5c-0.1,0.8-0.5,1.4-1.1,1.3c-0.5,0-0.9-0.7-0.9-1.4c0.1-0.8,0.5-1.4,1.1-1.3
			C77.9,48.1,78.3,48.7,78.2,49.5z"/>
		<path class="st8" d="M78.7,49.3c0,0-0.4-1.8-1.1-1.8c-0.7,0-1.8,1.1-1.8,1.1l-1.3-0.8l1.2,0.4c0,0,1.1-1.3,2-1.1
			C78.7,47.4,78.7,49.3,78.7,49.3z"/>
		<path class="st6" d="M86.1,39.6c0,0-2.8,13.4,8.9,14.8c0,0,4.2-6.4,9.7-1.9c0,0,5.9-14.6-8-16.9c0,0-2.7-5.6-13.5-3.8
			C68,34.2,63.8,50.6,72.2,66.8C72.2,66.8,64.8,37.7,86.1,39.6z"/>
	</g>
	<path class="st2" d="M106.6,75.8c-1.6,0.8-3.5,1.6-5.7,2.5c-40.4,16.2-30.9,1-30.9,1c0-1.1,0.4-2.1,1.1-3.1
		c0.3-0.5,0.7-0.9,1.2-1.3c3.3-1,21.2-5.9,33.4,0.5C106.1,75.5,106.3,75.7,106.6,75.8z"/>
	<path class="st1" d="M106.6,75.8c-1.6,0.8-3.5,1.6-5.7,2.5c-40.4,16.2-30.9,1-30.9,1c0-1.1,0.4-2.1,1.1-3.1c1.5,0.6,4.5,1.8,5.5,2
		l0.6,2.2l3.4-2c0,0,12.1,0.3,25.1-3.1C106.1,75.5,106.3,75.7,106.6,75.8z"/>
	<path class="st9" d="M98.8,72.2c0,0-11.7,7.3-18.6,21.9c-6.9,14.5,12.3,75.4,12.3,75.4s12.3-2.9,21.8-8.3l-14.1-42.8
		c0,0,15.2-28.4,15.5-33C115.7,85.4,113.1,75.2,98.8,72.2z"/>
	<path class="st3" d="M103.7,73.1c0,0,1.8,5.1,0.5,15.8c0,0-3-2-8.8-1.7c0,0-14.2,14.5-14.4,36.6c0,0-6.1-21.1-1.7-31.7
		c4.4-10.7,19.6-22.7,19.6-22.7L103.7,73.1z"/>
	<path class="st9" d="M74.7,73.9c0,0-12.7,16.4-12.9,22.1c-0.3,5.6,0,23.9,0,23.9l-21.2,39.2c0,0-4.2-8.8,16.3-38.3
		c0,0-2.5-18.9-1.3-24.9C56.6,90,62.4,78.3,74.7,73.9z"/>
	<path class="st3" d="M61.8,119.9c0,0-0.2-23.5,4-33c4.2-9.5,16.3-16.7,16.3-16.7s-15.2,4.5-21,16.1c0,0,1.4-0.4,2.9-0.3
		C63.9,86,57.6,91.5,61.8,119.9z"/>
	<path class="st3" d="M115.7,85.4c0,0,12.5,43.1,8.7,46.7s-8.4,10.2-15.3-3.7c-6.9-13.9-8-25.3-8-25.3S107.7,85.6,115.7,85.4z"/>
	<path class="st0" d="M106.7,106.3c0,0,8.7-0.2,10.8-5.3C117.5,101,110.8,98.8,106.7,106.3z"/>
	<path class="st1" d="M107.4,94l3.1,11.4c0,0,5.3-1,6.4-4.1l-2.3-7.3H107.4z"/>
	<g>
		<path class="st1" d="M110.2,83.1c0,0,0,0-2,5.4c-2,5.4-0.9,5.4,1,8c1.8,2.4,7-0.1,8.9-1.7c1.6-1.3,6.9-2,7.9-3.4
			c0.4-0.6-0.2-0.6-1.9-0.1c-1.9,0.5-3.9,0.3-3.9,0.3c0.5-2,7.7-3.1,7.9-5.3c0.1-1.1-7.2,3.3-8.3,2.7c0,0,0.1-0.7,3.5-3.1
			c1.9-1.4,3.9-2.8,3.8-3.5c-0.3-1.3-3.8,2.2-9.1,4.6c0,0,1.8-1.8,3.6-3.4c1.6-1.4,3.3-2.6,2.5-3.2c-0.6-0.5-3.1,1.8-4.8,3.2
			c-3.1,2.6-5.9,4-7.5,4.6c-0.7,0.3-1.2,0.4-1.2,0.4C112,82.9,110.2,83.1,110.2,83.1z"/>
		<path class="st2" d="M110.5,88.5c0,0,1.4,2.2,0.5,4c0,0,2.6-1.8,0.6-4.4C110.9,88.4,110.5,88.5,110.5,88.5z"/>
	</g>
</g>
<g>
	<ellipse class="st9" cx="36.2" cy="27.8" rx="33.6" ry="26.5"/>
	<path class="st9" d="M52.2,43L34,45.4c0,0,7.5,14.4,28.3,20.4C62.3,65.9,50.4,55.4,52.2,43z"/>
	<text transform="matrix(1.1133 0 0 1 7.0098 33.5747)" class="st10 st11 st12">Thanks !</text>
</g>
</svg>
