<svg xmlns="http://www.w3.org/2000/svg" viewBox="0 0 2536.64 1703.69"><defs><style>.cls-1{fill:#ebf3fa;opacity:.4;}.cls-2{fill:#2e3552;}</style></defs><g id="Layer_2" data-name="Layer 2"><g id="_лой_1" data-name="‘лой_1"><path class="cls-1" d="M299.83,1703S2,1388.58,191.69,1018.9s444.12-183.65,432-614S1209.19-62.23,1399.4,62.62s207,205.26,599.76,155.68S2574.6,535,2445.52,789.16c-150.77,296.87,303.39,325.63-41.7,914.53Z"/><path class="cls-2" d="M2335.53,1703.69l-2332.69-.8A2.85,2.85,0,0,1,0,1700v-1.45a2.85,2.85,0,0,1,2.84-2.84l2332.69.8a2.84,2.84,0,0,1,2.84,2.84v1.46A2.84,2.84,0,0,1,2335.53,1703.69Z"/></g></g></svg>